<svg width="1920" height="12158" viewBox="0 0 1920 12158" fill="none" xmlns="http://www.w3.org/2000/svg">
<g clip-path="url(#clip0_70_642)">
<rect width="1920" height="12158" fill="#151515"/>
<line opacity="0.05" x1="72.5005" y1="-8.21681e-08" x2="72.5007" y2="12369" stroke="white"/>
<line opacity="0.05" x1="146.501" y1="-2.50308e-07" x2="146.501" y2="12369" stroke="white"/>
<line opacity="0.05" x1="220.501" y1="-2.50308e-07" x2="220.501" y2="12369" stroke="white"/>
<line opacity="0.05" x1="294.501" y1="-2.50308e-07" x2="294.501" y2="12369" stroke="white"/>
<line opacity="0.05" x1="368.501" y1="-2.50308e-07" x2="368.501" y2="12369" stroke="white"/>
<line opacity="0.05" x1="442.501" y1="-2.50308e-07" x2="442.501" y2="12369" stroke="white"/>
<line opacity="0.05" x1="516.501" y1="-2.50308e-07" x2="516.501" y2="12369" stroke="white"/>
<line opacity="0.05" x1="590.501" y1="-2.50308e-07" x2="590.501" y2="12369" stroke="white"/>
<line opacity="0.05" x1="664.501" y1="-2.50308e-07" x2="664.501" y2="12369" stroke="white"/>
<line opacity="0.05" x1="738.501" y1="-2.50308e-07" x2="738.501" y2="12369" stroke="white"/>
<line opacity="0.05" x1="812.501" y1="-2.50308e-07" x2="812.501" y2="12369" stroke="white"/>
<line opacity="0.05" x1="886.501" y1="-2.50308e-07" x2="886.501" y2="12369" stroke="white"/>
<line opacity="0.05" x1="960.501" y1="-2.50308e-07" x2="960.501" y2="12369" stroke="white"/>
<line opacity="0.05" x1="1034.5" y1="-2.50308e-07" x2="1034.5" y2="12369" stroke="white"/>
<line opacity="0.05" x1="1108.5" y1="-2.50308e-07" x2="1108.5" y2="12369" stroke="white"/>
<line opacity="0.05" x1="1182.5" y1="-2.50308e-07" x2="1182.5" y2="12369" stroke="white"/>
<line opacity="0.05" x1="1256.5" y1="-2.50308e-07" x2="1256.5" y2="12369" stroke="white"/>
<line opacity="0.05" x1="1330.5" y1="-2.50308e-07" x2="1330.5" y2="12369" stroke="white"/>
<line opacity="0.05" x1="1404.5" y1="-2.50308e-07" x2="1404.5" y2="12369" stroke="white"/>
<line opacity="0.05" x1="1478.5" y1="-2.50308e-07" x2="1478.5" y2="12369" stroke="white"/>
<line opacity="0.05" x1="1552.5" y1="-2.50308e-07" x2="1552.5" y2="12369" stroke="white"/>
<line opacity="0.05" x1="1626.5" y1="-2.50308e-07" x2="1626.5" y2="12369" stroke="white"/>
<line opacity="0.05" x1="1700.5" y1="-2.50308e-07" x2="1700.5" y2="12369" stroke="white"/>
<line opacity="0.05" x1="1774.5" y1="-2.50308e-07" x2="1774.5" y2="12369" stroke="white"/>
<line opacity="0.05" x1="1848.5" y1="-2.50308e-07" x2="1848.5" y2="12369" stroke="white"/>
<line opacity="0.05" x1="1920" y1="22.5" y2="22.5" stroke="white"/>
<line opacity="0.05" x1="1920" y1="96.5" y2="96.5" stroke="white"/>
<line opacity="0.05" x1="1920" y1="170.5" y2="170.5" stroke="white"/>
<line opacity="0.05" x1="1920" y1="244.5" y2="244.5" stroke="white"/>
<line opacity="0.05" x1="1920" y1="318.5" y2="318.5" stroke="white"/>
<line opacity="0.05" x1="1920" y1="392.5" y2="392.5" stroke="white"/>
<line opacity="0.05" x1="1920" y1="466.5" y2="466.5" stroke="white"/>
<line opacity="0.05" x1="1920" y1="540.5" y2="540.5" stroke="white"/>
<line opacity="0.05" x1="1920" y1="614.5" y2="614.5" stroke="white"/>
<line opacity="0.05" x1="1920" y1="688.5" y2="688.5" stroke="white"/>
<line opacity="0.05" x1="1920" y1="762.5" y2="762.5" stroke="white"/>
<line opacity="0.05" x1="1920" y1="836.5" y2="836.5" stroke="white"/>
<line opacity="0.05" x1="1920" y1="910.5" y2="910.5" stroke="white"/>
<line opacity="0.05" x1="1920" y1="984.5" y2="984.5" stroke="white"/>
<line opacity="0.05" x1="1920" y1="1058.5" y2="1058.5" stroke="white"/>
<line opacity="0.05" x1="1920" y1="1132.5" y2="1132.5" stroke="white"/>
<line opacity="0.05" x1="1920" y1="1206.5" y2="1206.5" stroke="white"/>
<line opacity="0.05" x1="1920" y1="1280.5" y2="1280.5" stroke="white"/>
<line opacity="0.05" x1="1920" y1="1354.5" y2="1354.5" stroke="white"/>
<line opacity="0.05" x1="1920" y1="1428.5" y2="1428.5" stroke="white"/>
<line opacity="0.05" x1="1920" y1="1502.5" y2="1502.5" stroke="white"/>
<line opacity="0.05" x1="1920" y1="1576.5" y2="1576.5" stroke="white"/>
<line opacity="0.05" x1="1920" y1="1650.5" y2="1650.5" stroke="white"/>
<line opacity="0.05" x1="1920" y1="1724.5" y2="1724.5" stroke="white"/>
<line opacity="0.05" x1="1920" y1="1798.5" y2="1798.5" stroke="white"/>
<line opacity="0.05" x1="1920" y1="1872.5" y2="1872.5" stroke="white"/>
<line opacity="0.05" x1="1920" y1="1946.5" y2="1946.5" stroke="white"/>
<line opacity="0.05" x1="1920" y1="2020.5" y2="2020.5" stroke="white"/>
<line opacity="0.05" x1="1920" y1="2094.5" y2="2094.5" stroke="white"/>
<line opacity="0.05" x1="1920" y1="2168.5" y2="2168.5" stroke="white"/>
<line opacity="0.05" x1="1920" y1="2242.5" y2="2242.5" stroke="white"/>
<line opacity="0.05" x1="1920" y1="2316.5" y2="2316.5" stroke="white"/>
<line opacity="0.05" x1="1920" y1="2390.5" y2="2390.5" stroke="white"/>
<line opacity="0.05" x1="1920" y1="2464.5" y2="2464.5" stroke="white"/>
<line opacity="0.05" x1="1920" y1="2538.5" y2="2538.5" stroke="white"/>
<line opacity="0.05" x1="1920" y1="2612.5" y2="2612.5" stroke="white"/>
<line opacity="0.05" x1="1920" y1="2686.5" y2="2686.5" stroke="white"/>
<line opacity="0.05" x1="1920" y1="2760.5" y2="2760.5" stroke="white"/>
<line opacity="0.05" x1="1920" y1="2834.5" y2="2834.5" stroke="white"/>
<line opacity="0.05" x1="1920" y1="2908.5" y2="2908.5" stroke="white"/>
<line opacity="0.05" x1="1920" y1="2982.5" y2="2982.5" stroke="white"/>
<line opacity="0.05" x1="1920" y1="3056.5" y2="3056.5" stroke="white"/>
<line opacity="0.05" x1="1920" y1="3130.5" y2="3130.5" stroke="white"/>
<line opacity="0.05" x1="1920" y1="3204.5" y2="3204.5" stroke="white"/>
<line opacity="0.05" x1="1920" y1="3278.5" y2="3278.5" stroke="white"/>
<line opacity="0.05" x1="1920" y1="3352.5" y2="3352.5" stroke="white"/>
<line opacity="0.05" x1="1920" y1="3426.5" y2="3426.5" stroke="white"/>
<line opacity="0.05" x1="1920" y1="3500.5" y2="3500.5" stroke="white"/>
<line opacity="0.05" x1="1920" y1="3574.5" y2="3574.5" stroke="white"/>
<line opacity="0.05" x1="1920" y1="3648.5" y2="3648.5" stroke="white"/>
<line opacity="0.05" x1="1920" y1="3722.5" y2="3722.5" stroke="white"/>
<line opacity="0.05" x1="1920" y1="3796.5" y2="3796.5" stroke="white"/>
<line opacity="0.05" x1="1920" y1="3870.5" y2="3870.5" stroke="white"/>
<line opacity="0.05" x1="1920" y1="3944.5" y2="3944.5" stroke="white"/>
<line opacity="0.05" x1="1920" y1="4018.5" y2="4018.5" stroke="white"/>
<line opacity="0.05" x1="1920" y1="4092.5" y2="4092.5" stroke="white"/>
<line opacity="0.05" x1="1920" y1="4166.5" y2="4166.5" stroke="white"/>
<line opacity="0.05" x1="1920" y1="4240.5" y2="4240.5" stroke="white"/>
<line opacity="0.05" x1="1920" y1="4314.5" y2="4314.5" stroke="white"/>
<line opacity="0.05" x1="1920" y1="4388.5" y2="4388.5" stroke="white"/>
<line opacity="0.05" x1="1920" y1="4462.5" y2="4462.5" stroke="white"/>
<line opacity="0.05" x1="1920" y1="4536.5" y2="4536.5" stroke="white"/>
<line opacity="0.05" x1="1920" y1="4610.5" y2="4610.5" stroke="white"/>
<line opacity="0.05" x1="1920" y1="4684.5" y2="4684.5" stroke="white"/>
<line opacity="0.05" x1="1920" y1="4758.5" y2="4758.5" stroke="white"/>
<line opacity="0.05" x1="1920" y1="4832.5" y2="4832.5" stroke="white"/>
<line opacity="0.05" x1="1920" y1="4906.5" y2="4906.5" stroke="white"/>
<line opacity="0.05" x1="1920" y1="4980.5" y2="4980.5" stroke="white"/>
<line opacity="0.05" x1="1920" y1="5054.5" y2="5054.5" stroke="white"/>
<line opacity="0.05" x1="1920" y1="5128.5" y2="5128.5" stroke="white"/>
<line opacity="0.05" x1="1920" y1="5202.5" y2="5202.5" stroke="white"/>
<line opacity="0.05" x1="1920" y1="5276.5" y2="5276.5" stroke="white"/>
<line opacity="0.05" x1="1920" y1="5350.5" y2="5350.5" stroke="white"/>
<line opacity="0.05" x1="1920" y1="5424.5" y2="5424.5" stroke="white"/>
<line opacity="0.05" x1="1920" y1="5498.5" y2="5498.5" stroke="white"/>
<line opacity="0.05" x1="1920" y1="5572.5" y2="5572.5" stroke="white"/>
<line opacity="0.05" x1="1920" y1="5646.5" y2="5646.5" stroke="white"/>
<line opacity="0.05" x1="1920" y1="5720.5" y2="5720.5" stroke="white"/>
<line opacity="0.05" x1="1920" y1="5794.5" y2="5794.5" stroke="white"/>
<line opacity="0.05" x1="1920" y1="5868.5" y2="5868.5" stroke="white"/>
<line opacity="0.05" x1="1920" y1="5942.5" y2="5942.5" stroke="white"/>
<line opacity="0.05" x1="1920" y1="6016.5" y2="6016.5" stroke="white"/>
<line opacity="0.05" x1="1920" y1="6090.5" y2="6090.5" stroke="white"/>
<line opacity="0.05" x1="1920" y1="6164.5" y2="6164.5" stroke="white"/>
<line opacity="0.05" x1="1920" y1="6238.5" y2="6238.5" stroke="white"/>
<line opacity="0.05" x1="1920" y1="6312.5" y2="6312.5" stroke="white"/>
<line opacity="0.05" x1="1920" y1="6386.5" y2="6386.5" stroke="white"/>
<line opacity="0.05" x1="1920" y1="6460.5" y2="6460.5" stroke="white"/>
<line opacity="0.05" x1="1920" y1="6534.5" y2="6534.5" stroke="white"/>
<line opacity="0.05" x1="1920" y1="6608.5" y2="6608.5" stroke="white"/>
<line opacity="0.05" x1="1920" y1="6682.5" y2="6682.5" stroke="white"/>
<line opacity="0.05" x1="1920" y1="6756.5" y2="6756.5" stroke="white"/>
<line opacity="0.05" x1="1920" y1="6830.5" y2="6830.5" stroke="white"/>
<line opacity="0.05" x1="1920" y1="6904.5" y2="6904.5" stroke="white"/>
<line opacity="0.05" x1="1920" y1="6978.5" y2="6978.5" stroke="white"/>
<line opacity="0.05" x1="1920" y1="7052.5" y2="7052.5" stroke="white"/>
<line opacity="0.05" x1="1920" y1="7126.5" y2="7126.5" stroke="white"/>
<line opacity="0.05" x1="1920" y1="7200.5" y2="7200.5" stroke="white"/>
<line opacity="0.05" x1="1920" y1="7274.5" y2="7274.5" stroke="white"/>
<line opacity="0.05" x1="1920" y1="7348.5" y2="7348.5" stroke="white"/>
<line opacity="0.05" x1="1920" y1="7422.5" y2="7422.5" stroke="white"/>
<line opacity="0.05" x1="1920" y1="7496.5" y2="7496.5" stroke="white"/>
<line opacity="0.05" x1="1920" y1="7570.5" y2="7570.5" stroke="white"/>
<line opacity="0.05" x1="1920" y1="7644.5" y2="7644.5" stroke="white"/>
<line opacity="0.05" x1="1920" y1="7718.5" y2="7718.5" stroke="white"/>
<line opacity="0.05" x1="1920" y1="7792.5" y2="7792.5" stroke="white"/>
<line opacity="0.05" x1="1920" y1="7866.5" y2="7866.5" stroke="white"/>
<line opacity="0.05" x1="1920" y1="7940.5" y2="7940.5" stroke="white"/>
<line opacity="0.05" x1="1920" y1="8014.5" y2="8014.5" stroke="white"/>
<line opacity="0.05" x1="1920" y1="8088.5" y2="8088.5" stroke="white"/>
<line opacity="0.05" x1="1920" y1="8162.5" y2="8162.5" stroke="white"/>
<line opacity="0.05" x1="1920" y1="8236.5" y2="8236.5" stroke="white"/>
<line opacity="0.05" x1="1920" y1="8310.5" y2="8310.5" stroke="white"/>
<line opacity="0.05" x1="1920" y1="8384.5" y2="8384.5" stroke="white"/>
<line opacity="0.05" x1="1920" y1="8458.5" y2="8458.5" stroke="white"/>
<line opacity="0.05" x1="1920" y1="8532.5" y2="8532.5" stroke="white"/>
<line opacity="0.05" x1="1920" y1="8606.5" y2="8606.5" stroke="white"/>
<line opacity="0.05" x1="1920" y1="8680.5" y2="8680.5" stroke="white"/>
<line opacity="0.05" x1="1920" y1="8754.5" y2="8754.5" stroke="white"/>
<line opacity="0.05" x1="1920" y1="8828.5" y2="8828.5" stroke="white"/>
<line opacity="0.05" x1="1920" y1="8902.5" y2="8902.5" stroke="white"/>
<line opacity="0.05" x1="1920" y1="8976.5" y2="8976.5" stroke="white"/>
<line opacity="0.05" x1="1920" y1="9050.5" y2="9050.5" stroke="white"/>
<line opacity="0.05" x1="1920" y1="9124.5" y2="9124.5" stroke="white"/>
<line opacity="0.05" x1="1920" y1="9198.5" y2="9198.5" stroke="white"/>
<line opacity="0.05" x1="1920" y1="9272.5" y2="9272.5" stroke="white"/>
<line opacity="0.05" x1="1920" y1="9346.5" y2="9346.5" stroke="white"/>
<line opacity="0.05" x1="1920" y1="9420.5" y2="9420.5" stroke="white"/>
<line opacity="0.05" x1="1920" y1="9494.5" y2="9494.5" stroke="white"/>
<line opacity="0.05" x1="1920" y1="9568.5" y2="9568.5" stroke="white"/>
<line opacity="0.05" x1="1920" y1="9642.5" y2="9642.5" stroke="white"/>
<line opacity="0.05" x1="1920" y1="9716.5" y2="9716.5" stroke="white"/>
<line opacity="0.05" x1="1920" y1="9790.5" y2="9790.5" stroke="white"/>
<line opacity="0.05" x1="1920" y1="9864.5" y2="9864.5" stroke="white"/>
<line opacity="0.05" x1="1920" y1="9938.5" y2="9938.5" stroke="white"/>
<line opacity="0.05" x1="1920" y1="10012.5" y2="10012.5" stroke="white"/>
<line opacity="0.05" x1="1920" y1="10086.5" y2="10086.5" stroke="white"/>
<line opacity="0.05" x1="1920" y1="10160.5" y2="10160.5" stroke="white"/>
<line opacity="0.05" x1="1920" y1="10234.5" y2="10234.5" stroke="white"/>
<line opacity="0.05" x1="1920" y1="10308.5" y2="10308.5" stroke="white"/>
<line opacity="0.05" x1="1920" y1="10382.5" y2="10382.5" stroke="white"/>
<line opacity="0.05" x1="1920" y1="10456.5" y2="10456.5" stroke="white"/>
<line opacity="0.05" x1="1920" y1="10530.5" y2="10530.5" stroke="white"/>
<line opacity="0.05" x1="1920" y1="10604.5" y2="10604.5" stroke="white"/>
<line opacity="0.05" x1="1920" y1="10678.5" y2="10678.5" stroke="white"/>
<line opacity="0.05" x1="1920" y1="10752.5" y2="10752.5" stroke="white"/>
<line opacity="0.05" x1="1920" y1="10826.5" y2="10826.5" stroke="white"/>
<line opacity="0.05" x1="1920" y1="10900.5" y2="10900.5" stroke="white"/>
<line opacity="0.05" x1="1920" y1="10974.5" y2="10974.5" stroke="white"/>
<line opacity="0.05" x1="1920" y1="11048.5" y2="11048.5" stroke="white"/>
<line opacity="0.05" x1="1920" y1="11122.5" y2="11122.5" stroke="white"/>
<line opacity="0.05" x1="1920" y1="11196.5" y2="11196.5" stroke="white"/>
<line opacity="0.05" x1="1920" y1="11270.5" y2="11270.5" stroke="white"/>
<line opacity="0.05" x1="1920" y1="11344.5" y2="11344.5" stroke="white"/>
<line opacity="0.05" x1="1920" y1="11418.5" y2="11418.5" stroke="white"/>
<line opacity="0.05" x1="1920" y1="11492.5" y2="11492.5" stroke="white"/>
<line opacity="0.05" x1="1920" y1="11566.5" y2="11566.5" stroke="white"/>
<line opacity="0.05" x1="1920" y1="11640.5" y2="11640.5" stroke="white"/>
<line opacity="0.05" x1="1920" y1="11714.5" y2="11714.5" stroke="white"/>
<line opacity="0.05" x1="1920" y1="11788.5" y2="11788.5" stroke="white"/>
<line opacity="0.05" x1="1920" y1="11862.5" y2="11862.5" stroke="white"/>
<line opacity="0.05" x1="1920" y1="11936.5" y2="11936.5" stroke="white"/>
<line opacity="0.05" x1="1920" y1="12010.5" y2="12010.5" stroke="white"/>
<line opacity="0.05" x1="1920" y1="12084.5" y2="12084.5" stroke="white"/>
<path d="M-5 984.5L2 984.5M-1.5 988L-1.5 981" stroke="#2E2E2E" stroke-width="2"/>
<path d="M69 984.5L76 984.5M72.5 988L72.5 981" stroke="#2E2E2E" stroke-width="2"/>
<path d="M143 984.5L150 984.5M146.5 988L146.5 981" stroke="#2E2E2E" stroke-width="2"/>
<path d="M217 984.5L224 984.5M220.5 988L220.5 981" stroke="#2E2E2E" stroke-width="2"/>
<path d="M291 984.5L298 984.5M294.5 988L294.5 981" stroke="#2E2E2E" stroke-width="2"/>
<path d="M365 984.5L372 984.5M368.5 988L368.5 981" stroke="#2E2E2E" stroke-width="2"/>
<path d="M439 984.5L446 984.5M442.5 988L442.5 981" stroke="#2E2E2E" stroke-width="2"/>
<path d="M513 984.5L520 984.5M516.5 988L516.5 981" stroke="#2E2E2E" stroke-width="2"/>
<path d="M587 984.5L594 984.5M590.5 988L590.5 981" stroke="#2E2E2E" stroke-width="2"/>
<path d="M661 984.5L668 984.5M664.5 988L664.5 981" stroke="#2E2E2E" stroke-width="2"/>
<path d="M735 984.5L742 984.5M738.5 988L738.5 981" stroke="#2E2E2E" stroke-width="2"/>
<path d="M809 984.5L816 984.5M812.5 988L812.5 981" stroke="#2E2E2E" stroke-width="2"/>
<path d="M883 984.5L890 984.5M886.5 988L886.5 981" stroke="#2E2E2E" stroke-width="2"/>
<path d="M957 984.5L964 984.5M960.5 988L960.5 981" stroke="#2E2E2E" stroke-width="2"/>
<path d="M1031 984.5L1038 984.5M1034.5 988L1034.5 981" stroke="#2E2E2E" stroke-width="2"/>
<path d="M1105 984.5L1112 984.5M1108.5 988L1108.5 981" stroke="#2E2E2E" stroke-width="2"/>
<path d="M1179 984.5L1186 984.5M1182.5 988L1182.5 981" stroke="#2E2E2E" stroke-width="2"/>
<path d="M1253 984.5L1260 984.5M1256.5 988L1256.5 981" stroke="#2E2E2E" stroke-width="2"/>
<path d="M1327 984.5L1334 984.5M1330.5 988L1330.5 981" stroke="#2E2E2E" stroke-width="2"/>
<path d="M1401 984.5L1408 984.5M1404.5 988L1404.5 981" stroke="#2E2E2E" stroke-width="2"/>
<path d="M1475 984.5L1482 984.5M1478.5 988L1478.5 981" stroke="#2E2E2E" stroke-width="2"/>
<path d="M1549 984.5L1556 984.5M1552.5 988L1552.5 981" stroke="#2E2E2E" stroke-width="2"/>
<path d="M1623 984.5L1630 984.5M1626.5 988L1626.5 981" stroke="#2E2E2E" stroke-width="2"/>
<path d="M1697 984.5L1704 984.5M1700.5 988L1700.5 981" stroke="#2E2E2E" stroke-width="2"/>
<path d="M1771 984.5L1778 984.5M1774.5 988L1774.5 981" stroke="#2E2E2E" stroke-width="2"/>
<path d="M1845 984.5L1852 984.5M1848.5 988L1848.5 981" stroke="#2E2E2E" stroke-width="2"/>
<path d="M217 1058.5L224 1058.5M220.5 1062L220.5 1055" stroke="white" stroke-width="2"/>
<path d="M-5 2094.5L2 2094.5M-1.5 2098L-1.5 2091" stroke="#2E2E2E" stroke-width="2"/>
<path d="M69 2094.5L76 2094.5M72.5 2098L72.5 2091" stroke="#2E2E2E" stroke-width="2"/>
<path d="M143 2094.5L150 2094.5M146.5 2098L146.5 2091" stroke="#2E2E2E" stroke-width="2"/>
<path d="M217 2094.5L224 2094.5M220.5 2098L220.5 2091" stroke="#2E2E2E" stroke-width="2"/>
<path d="M291 2094.5L298 2094.5M294.5 2098L294.5 2091" stroke="#2E2E2E" stroke-width="2"/>
<path d="M365 2094.5L372 2094.5M368.5 2098L368.5 2091" stroke="#2E2E2E" stroke-width="2"/>
<path d="M439 2094.5L446 2094.5M442.5 2098L442.5 2091" stroke="#2E2E2E" stroke-width="2"/>
<path d="M513 2094.5L520 2094.5M516.5 2098L516.5 2091" stroke="#2E2E2E" stroke-width="2"/>
<path d="M587 2094.5L594 2094.5M590.5 2098L590.5 2091" stroke="#2E2E2E" stroke-width="2"/>
<path d="M661 2094.5L668 2094.5M664.5 2098L664.5 2091" stroke="#2E2E2E" stroke-width="2"/>
<path d="M735 2094.5L742 2094.5M738.5 2098L738.5 2091" stroke="#2E2E2E" stroke-width="2"/>
<path d="M809 2094.5L816 2094.5M812.5 2098L812.5 2091" stroke="#2E2E2E" stroke-width="2"/>
<path d="M883 2094.5L890 2094.5M886.5 2098L886.5 2091" stroke="#2E2E2E" stroke-width="2"/>
<path d="M957 2094.5L964 2094.5M960.5 2098L960.5 2091" stroke="#2E2E2E" stroke-width="2"/>
<path d="M1031 2094.5L1038 2094.5M1034.5 2098L1034.5 2091" stroke="#2E2E2E" stroke-width="2"/>
<path d="M1105 2094.5L1112 2094.5M1108.5 2098L1108.5 2091" stroke="#2E2E2E" stroke-width="2"/>
<path d="M1179 2094.5L1186 2094.5M1182.5 2098L1182.5 2091" stroke="#2E2E2E" stroke-width="2"/>
<path d="M1253 2094.5L1260 2094.5M1256.5 2098L1256.5 2091" stroke="#2E2E2E" stroke-width="2"/>
<path d="M1327 2094.5L1334 2094.5M1330.5 2098L1330.5 2091" stroke="#2E2E2E" stroke-width="2"/>
<path d="M1401 2094.5L1408 2094.5M1404.5 2098L1404.5 2091" stroke="#2E2E2E" stroke-width="2"/>
<path d="M1475 2094.5L1482 2094.5M1478.5 2098L1478.5 2091" stroke="#2E2E2E" stroke-width="2"/>
<path d="M1549 2094.5L1556 2094.5M1552.5 2098L1552.5 2091" stroke="#2E2E2E" stroke-width="2"/>
<path d="M1623 2094.5L1630 2094.5M1626.5 2098L1626.5 2091" stroke="#2E2E2E" stroke-width="2"/>
<path d="M1697 2094.5L1704 2094.5M1700.5 2098L1700.5 2091" stroke="#2E2E2E" stroke-width="2"/>
<path d="M1771 2094.5L1778 2094.5M1774.5 2098L1774.5 2091" stroke="#2E2E2E" stroke-width="2"/>
<path d="M1845 2094.5L1852 2094.5M1848.5 2098L1848.5 2091" stroke="#2E2E2E" stroke-width="2"/>
<path d="M-5 7496.5L2 7496.5M-1.5 7500L-1.5 7493" stroke="#2E2E2E" stroke-width="2"/>
<path d="M69 7496.5L76 7496.5M72.5 7500L72.5 7493" stroke="#2E2E2E" stroke-width="2"/>
<path d="M143 7496.5L150 7496.5M146.5 7500L146.5 7493" stroke="#2E2E2E" stroke-width="2"/>
<path d="M217 7496.5L224 7496.5M220.5 7500L220.5 7493" stroke="#2E2E2E" stroke-width="2"/>
<path d="M291 7496.5L298 7496.5M294.5 7500L294.5 7493" stroke="#2E2E2E" stroke-width="2"/>
<path d="M365 7496.5L372 7496.5M368.5 7500L368.5 7493" stroke="#2E2E2E" stroke-width="2"/>
<path d="M439 7496.5L446 7496.5M442.5 7500L442.5 7493" stroke="#2E2E2E" stroke-width="2"/>
<path d="M513 7496.5L520 7496.5M516.5 7500L516.5 7493" stroke="#2E2E2E" stroke-width="2"/>
<path d="M587 7496.5L594 7496.5M590.5 7500L590.5 7493" stroke="#2E2E2E" stroke-width="2"/>
<path d="M661 7496.5L668 7496.5M664.5 7500L664.5 7493" stroke="#2E2E2E" stroke-width="2"/>
<path d="M735 7496.5L742 7496.5M738.5 7500L738.5 7493" stroke="#2E2E2E" stroke-width="2"/>
<path d="M809 7496.5L816 7496.5M812.5 7500L812.5 7493" stroke="#2E2E2E" stroke-width="2"/>
<path d="M883 7496.5L890 7496.5M886.5 7500L886.5 7493" stroke="#2E2E2E" stroke-width="2"/>
<path d="M957 7496.5L964 7496.5M960.5 7500L960.5 7493" stroke="#2E2E2E" stroke-width="2"/>
<path d="M1031 7496.5L1038 7496.5M1034.5 7500L1034.5 7493" stroke="#2E2E2E" stroke-width="2"/>
<path d="M1105 7496.5L1112 7496.5M1108.5 7500L1108.5 7493" stroke="#2E2E2E" stroke-width="2"/>
<path d="M1179 7496.5L1186 7496.5M1182.5 7500L1182.5 7493" stroke="#2E2E2E" stroke-width="2"/>
<path d="M1253 7496.5L1260 7496.5M1256.5 7500L1256.5 7493" stroke="#2E2E2E" stroke-width="2"/>
<path d="M1327 7496.5L1334 7496.5M1330.5 7500L1330.5 7493" stroke="#2E2E2E" stroke-width="2"/>
<path d="M1401 7496.5L1408 7496.5M1404.5 7500L1404.5 7493" stroke="#2E2E2E" stroke-width="2"/>
<path d="M1475 7496.5L1482 7496.5M1478.5 7500L1478.5 7493" stroke="#2E2E2E" stroke-width="2"/>
<path d="M1549 7496.5L1556 7496.5M1552.5 7500L1552.5 7493" stroke="#2E2E2E" stroke-width="2"/>
<path d="M1623 7496.5L1630 7496.5M1626.5 7500L1626.5 7493" stroke="#2E2E2E" stroke-width="2"/>
<path d="M1697 7496.5L1704 7496.5M1700.5 7500L1700.5 7493" stroke="#2E2E2E" stroke-width="2"/>
<path d="M1771 7496.5L1778 7496.5M1774.5 7500L1774.5 7493" stroke="#2E2E2E" stroke-width="2"/>
<path d="M1845 7496.5L1852 7496.5M1848.5 7500L1848.5 7493" stroke="#2E2E2E" stroke-width="2"/>
<path d="M217 3352.5L224 3352.5M220.5 3356L220.5 3349" stroke="#2E2E2E" stroke-width="2"/>
<path d="M217 3426.5L224 3426.5M220.5 3430L220.5 3423" stroke="#2E2E2E" stroke-width="2"/>
<path d="M217 3500.5L224 3500.5M220.5 3504L220.5 3497" stroke="#2E2E2E" stroke-width="2"/>
<path d="M217 3574.5L224 3574.5M220.5 3578L220.5 3571" stroke="#2E2E2E" stroke-width="2"/>
<path d="M217 3648.5L224 3648.5M220.5 3652L220.5 3645" stroke="#2E2E2E" stroke-width="2"/>
<path d="M217 3722.5L224 3722.5M220.5 3726L220.5 3719" stroke="#2E2E2E" stroke-width="2"/>
<path d="M217 3796.5L224 3796.5M220.5 3800L220.5 3793" stroke="#2E2E2E" stroke-width="2"/>
<path d="M217 3870.5L224 3870.5M220.5 3874L220.5 3867" stroke="#2E2E2E" stroke-width="2"/>
<path d="M217 3944.5L224 3944.5M220.5 3948L220.5 3941" stroke="#2E2E2E" stroke-width="2"/>
<path d="M217 4018.5L224 4018.5M220.5 4022L220.5 4015" stroke="#2E2E2E" stroke-width="2"/>
<path d="M217 4092.5L224 4092.5M220.5 4096L220.5 4089" stroke="#2E2E2E" stroke-width="2"/>
<path d="M217 4166.5L224 4166.5M220.5 4170L220.5 4163" stroke="#2E2E2E" stroke-width="2"/>
<path d="M217 4240.5L224 4240.5M220.5 4244L220.5 4237" stroke="#2E2E2E" stroke-width="2"/>
<path d="M217 4314.5L224 4314.5M220.5 4318L220.5 4311" stroke="white" stroke-width="2"/>
<path d="M217 4388.5L224 4388.5M220.5 4392L220.5 4385" stroke="#2E2E2E" stroke-width="2"/>
<path d="M217 4462.5L224 4462.5M220.5 4466L220.5 4459" stroke="#2E2E2E" stroke-width="2"/>
<path d="M217 4536.5L224 4536.5M220.5 4540L220.5 4533" stroke="#2E2E2E" stroke-width="2"/>
<path d="M217 4610.5L224 4610.5M220.5 4614L220.5 4607" stroke="#2E2E2E" stroke-width="2"/>
<path d="M217 4684.5L224 4684.5M220.5 4688L220.5 4681" stroke="#2E2E2E" stroke-width="2"/>
<path d="M217 4758.5L224 4758.5M220.5 4762L220.5 4755" stroke="#2E2E2E" stroke-width="2"/>
<path d="M217 4832.5L224 4832.5M220.5 4836L220.5 4829" stroke="#2E2E2E" stroke-width="2"/>
<path d="M217 4906.5L224 4906.5M220.5 4910L220.5 4903" stroke="#2E2E2E" stroke-width="2"/>
<path d="M217 4980.5L224 4980.5M220.5 4984L220.5 4977" stroke="#2E2E2E" stroke-width="2"/>
<path d="M217 5054.5L224 5054.5M220.5 5058L220.5 5051" stroke="#2E2E2E" stroke-width="2"/>
<path d="M217 5128.5L224 5128.5M220.5 5132L220.5 5125" stroke="#2E2E2E" stroke-width="2"/>
<path d="M217 9642.5L224 9642.5M220.5 9646L220.5 9639" stroke="white" stroke-width="2"/>
<path d="M217 2464.5L224 2464.5M220.5 2468L220.5 2461" stroke="white" stroke-width="2"/>
<path d="M217 5350.5L224 5350.5M220.5 5354L220.5 5347" stroke="white" stroke-width="2"/>
<path d="M217 6312.5L224 6312.5M220.5 6316L220.5 6309" stroke="white" stroke-width="2"/>
<path d="M217 7570.5L224 7570.5M220.5 7574L220.5 7567" stroke="white" stroke-width="2"/>
<path d="M218 8384.5L225 8384.5M221.5 8388L221.5 8381" stroke="white" stroke-width="2"/>
<path d="M217 11567.5L224 11567.5M220.5 11571L220.5 11564" stroke="white" stroke-width="2"/>
<path opacity="0.5" d="M41.064 9718.66V9705.79H43.318V9706.54H41.946V9717.92H43.318V9718.66H41.064ZM48.025 9706H54.367V9706.82H48.977V9710.43H53.765V9711.24H48.977V9716H48.025V9706ZM59.8329 9712.08H63.7669L61.8349 9706.96L59.8329 9712.08ZM61.3449 9706H62.4089L66.3289 9716H65.3069L64.0889 9712.89H59.5389L58.3349 9716H57.3269L61.3449 9706ZM79.2072 9716.63L77.6532 9715.47C76.9719 9715.95 76.1086 9716.2 75.0632 9716.2C74.2792 9716.2 73.5886 9716.06 72.9912 9715.78C72.4032 9715.49 71.9132 9715.1 71.5212 9714.63C71.1292 9714.15 70.8352 9713.6 70.6392 9712.98C70.4432 9712.35 70.3452 9711.69 70.3452 9711C70.3452 9710.31 70.4432 9709.65 70.6392 9709.03C70.8352 9708.4 71.1292 9707.85 71.5212 9707.38C71.9132 9706.89 72.4032 9706.51 72.9912 9706.23C73.5886 9705.94 74.2792 9705.79 75.0632 9705.79C75.8472 9705.79 76.5332 9705.94 77.1212 9706.23C77.7092 9706.51 78.1992 9706.89 78.5912 9707.38C78.9832 9707.85 79.2772 9708.4 79.4732 9709.03C79.6692 9709.65 79.7672 9710.31 79.7672 9711C79.7672 9711.79 79.6412 9712.52 79.3892 9713.21C79.1372 9713.9 78.7592 9714.48 78.2552 9714.96L79.6832 9716.04L79.2072 9716.63ZM77.5412 9714.42C77.9892 9714 78.3112 9713.48 78.5072 9712.88C78.7126 9712.27 78.8152 9711.65 78.8152 9711C78.8152 9710.45 78.7406 9709.91 78.5912 9709.39C78.4512 9708.87 78.2272 9708.4 77.9192 9707.99C77.6206 9707.57 77.2332 9707.24 76.7572 9706.98C76.2906 9706.73 75.7259 9706.61 75.0632 9706.61C74.4006 9706.61 73.8312 9706.73 73.3552 9706.98C72.8792 9707.24 72.4872 9707.57 72.1792 9707.99C71.8806 9708.4 71.6566 9708.87 71.5072 9709.39C71.3672 9709.91 71.2972 9710.45 71.2972 9711C71.2972 9711.54 71.3672 9712.08 71.5072 9712.61C71.6566 9713.13 71.8806 9713.61 72.1792 9714.03C72.4872 9714.44 72.8792 9714.77 73.3552 9715.02C73.8312 9715.27 74.4006 9715.4 75.0632 9715.4C75.7726 9715.4 76.3886 9715.23 76.9112 9714.91L75.5952 9713.91L76.0852 9713.31L77.5412 9714.42ZM86.1962 9705.79V9718.66H83.9422V9717.92H85.3142V9706.54H83.9422V9705.79H86.1962Z" fill="white" fill-opacity="0.2"/>
<path d="M217 3278.5L224 3278.5M220.5 3282L220.5 3275" stroke="white" stroke-width="2"/>
<rect x="1624" y="6319" width="5" height="56" fill="#3F3F3F"/>
<rect x="1550" y="4190" width="5" height="32" fill="#3F3F3F"/>
<rect x="1032" y="3508" width="5" height="56" fill="#3F3F3F"/>
<rect x="514" y="2178" width="5" height="56" fill="#3F3F3F"/>
<rect x="1846" y="4545" width="5" height="56" fill="#3F3F3F"/>
<rect x="144" y="5507" width="5" height="56" fill="#3F3F3F"/>
</g>
<defs>
<clipPath id="clip0_70_642">
<rect width="1920" height="12158" fill="white"/>
</clipPath>
</defs>
</svg>
