<svg width="320" height="9408" viewBox="0 0 320 9408" fill="none" xmlns="http://www.w3.org/2000/svg">
<g clip-path="url(#clip0_70_4208)">
<rect width="320" height="9408" fill="#151515"/>
<line opacity="0.05" x1="324" y1="0.5" x2="4" y2="0.5" stroke="white"/>
<line opacity="0.05" x1="324" y1="24.5" x2="4" y2="24.5" stroke="white"/>
<line opacity="0.05" x1="324" y1="48.5" x2="4" y2="48.5" stroke="white"/>
<line opacity="0.05" x1="324" y1="72.5" x2="4" y2="72.5" stroke="white"/>
<line opacity="0.05" x1="324" y1="96.5" x2="4" y2="96.5" stroke="white"/>
<line opacity="0.05" x1="324" y1="120.5" x2="4" y2="120.5" stroke="white"/>
<line opacity="0.05" x1="324" y1="144.5" x2="4" y2="144.5" stroke="white"/>
<line opacity="0.05" x1="324" y1="168.5" x2="4" y2="168.5" stroke="white"/>
<line opacity="0.05" x1="324" y1="192.5" x2="4" y2="192.5" stroke="white"/>
<line opacity="0.05" x1="324" y1="216.5" x2="4" y2="216.5" stroke="white"/>
<line opacity="0.05" x1="324" y1="240.5" x2="4" y2="240.5" stroke="white"/>
<line opacity="0.05" x1="324" y1="264.5" x2="4" y2="264.5" stroke="white"/>
<line opacity="0.05" x1="324" y1="288.5" x2="4" y2="288.5" stroke="white"/>
<line opacity="0.05" x1="324" y1="312.5" x2="4" y2="312.5" stroke="white"/>
<line opacity="0.05" x1="324" y1="336.5" x2="4" y2="336.5" stroke="white"/>
<line opacity="0.05" x1="324" y1="360.5" x2="4" y2="360.5" stroke="white"/>
<line opacity="0.05" x1="324" y1="384.5" x2="4" y2="384.5" stroke="white"/>
<line opacity="0.05" x1="324" y1="408.5" x2="4" y2="408.5" stroke="white"/>
<line opacity="0.05" x1="324" y1="432.5" x2="4" y2="432.5" stroke="white"/>
<line opacity="0.05" x1="324" y1="456.5" x2="4" y2="456.5" stroke="white"/>
<line opacity="0.05" x1="324" y1="480.5" x2="4" y2="480.5" stroke="white"/>
<line opacity="0.05" x1="324" y1="504.5" x2="4" y2="504.5" stroke="white"/>
<line opacity="0.05" x1="324" y1="528.5" x2="4" y2="528.5" stroke="white"/>
<line opacity="0.05" x1="324" y1="552.5" x2="4" y2="552.5" stroke="white"/>
<line opacity="0.05" x1="324" y1="576.5" x2="4" y2="576.5" stroke="white"/>
<line opacity="0.05" x1="324" y1="600.5" x2="4" y2="600.5" stroke="white"/>
<line opacity="0.05" x1="324" y1="624.5" x2="4" y2="624.5" stroke="white"/>
<line opacity="0.05" x1="324" y1="648.5" x2="4" y2="648.5" stroke="white"/>
<line opacity="0.05" x1="324" y1="672.5" x2="4" y2="672.5" stroke="white"/>
<line opacity="0.05" x1="324" y1="696.5" x2="4" y2="696.5" stroke="white"/>
<line opacity="0.05" x1="324" y1="720.5" x2="4" y2="720.5" stroke="white"/>
<line opacity="0.05" x1="324" y1="744.5" x2="4" y2="744.5" stroke="white"/>
<line opacity="0.05" x1="324" y1="768.5" x2="4" y2="768.5" stroke="white"/>
<line opacity="0.05" x1="324" y1="792.5" x2="4" y2="792.5" stroke="white"/>
<line opacity="0.05" x1="324" y1="816.5" x2="4" y2="816.5" stroke="white"/>
<line opacity="0.05" x1="324" y1="840.5" x2="4" y2="840.5" stroke="white"/>
<line opacity="0.05" x1="324" y1="864.5" x2="4" y2="864.5" stroke="white"/>
<line opacity="0.05" x1="324" y1="888.5" x2="4" y2="888.5" stroke="white"/>
<line opacity="0.05" x1="324" y1="912.5" x2="4" y2="912.5" stroke="white"/>
<line opacity="0.05" x1="324" y1="936.5" x2="4" y2="936.5" stroke="white"/>
<line opacity="0.05" x1="324" y1="960.5" x2="4" y2="960.5" stroke="white"/>
<line opacity="0.05" x1="324" y1="984.5" x2="4" y2="984.5" stroke="white"/>
<line opacity="0.05" x1="324" y1="1008.5" x2="4" y2="1008.5" stroke="white"/>
<line opacity="0.05" x1="324" y1="1032.5" x2="4" y2="1032.5" stroke="white"/>
<line opacity="0.05" x1="324" y1="1056.5" x2="4" y2="1056.5" stroke="white"/>
<line opacity="0.05" x1="324" y1="1080.5" x2="4" y2="1080.5" stroke="white"/>
<line opacity="0.05" x1="324" y1="1104.5" x2="4" y2="1104.5" stroke="white"/>
<line opacity="0.05" x1="324" y1="1128.5" x2="4" y2="1128.5" stroke="white"/>
<line opacity="0.05" x1="324" y1="1152.5" x2="4" y2="1152.5" stroke="white"/>
<line opacity="0.05" x1="324" y1="1176.5" x2="4" y2="1176.5" stroke="white"/>
<line opacity="0.05" x1="324" y1="1200.5" x2="4" y2="1200.5" stroke="white"/>
<line opacity="0.05" x1="324" y1="1224.5" x2="4" y2="1224.5" stroke="white"/>
<line opacity="0.05" x1="324" y1="1248.5" x2="4" y2="1248.5" stroke="white"/>
<line opacity="0.05" x1="324" y1="1272.5" x2="4" y2="1272.5" stroke="white"/>
<line opacity="0.05" x1="324" y1="1296.5" x2="4" y2="1296.5" stroke="white"/>
<line opacity="0.05" x1="324" y1="1320.5" x2="4" y2="1320.5" stroke="white"/>
<line opacity="0.05" x1="324" y1="1344.5" x2="4" y2="1344.5" stroke="white"/>
<line opacity="0.05" x1="324" y1="1368.5" x2="4" y2="1368.5" stroke="white"/>
<line opacity="0.05" x1="324" y1="1392.5" x2="4" y2="1392.5" stroke="white"/>
<line opacity="0.05" x1="324" y1="1416.5" x2="4" y2="1416.5" stroke="white"/>
<line opacity="0.05" x1="324" y1="1440.5" x2="4" y2="1440.5" stroke="white"/>
<line opacity="0.05" x1="324" y1="1464.5" x2="4" y2="1464.5" stroke="white"/>
<line opacity="0.05" x1="324" y1="1488.5" x2="4" y2="1488.5" stroke="white"/>
<line opacity="0.05" x1="324" y1="1512.5" x2="4" y2="1512.5" stroke="white"/>
<line opacity="0.05" x1="324" y1="1536.5" x2="4" y2="1536.5" stroke="white"/>
<line opacity="0.05" x1="324" y1="1560.5" x2="4" y2="1560.5" stroke="white"/>
<line opacity="0.05" x1="324" y1="1584.5" x2="4" y2="1584.5" stroke="white"/>
<line opacity="0.05" x1="324" y1="1608.5" x2="4" y2="1608.5" stroke="white"/>
<line opacity="0.05" x1="324" y1="1632.5" x2="4" y2="1632.5" stroke="white"/>
<line opacity="0.05" x1="324" y1="1656.5" x2="4" y2="1656.5" stroke="white"/>
<line opacity="0.05" x1="324" y1="1680.5" x2="4" y2="1680.5" stroke="white"/>
<line opacity="0.05" x1="324" y1="1704.5" x2="4" y2="1704.5" stroke="white"/>
<line opacity="0.05" x1="324" y1="1728.5" x2="4" y2="1728.5" stroke="white"/>
<line opacity="0.05" x1="324" y1="1752.5" x2="4" y2="1752.5" stroke="white"/>
<line opacity="0.05" x1="324" y1="1776.5" x2="4" y2="1776.5" stroke="white"/>
<line opacity="0.05" x1="324" y1="1800.5" x2="4" y2="1800.5" stroke="white"/>
<line opacity="0.05" x1="324" y1="1824.5" x2="4" y2="1824.5" stroke="white"/>
<line opacity="0.05" x1="324" y1="1848.5" x2="4" y2="1848.5" stroke="white"/>
<line opacity="0.05" x1="324" y1="1872.5" x2="4" y2="1872.5" stroke="white"/>
<line opacity="0.05" x1="324" y1="1896.5" x2="4" y2="1896.5" stroke="white"/>
<line opacity="0.05" x1="324" y1="1920.5" x2="4" y2="1920.5" stroke="white"/>
<line opacity="0.05" x1="324" y1="1944.5" x2="4" y2="1944.5" stroke="white"/>
<line opacity="0.05" x1="324" y1="1968.5" x2="4" y2="1968.5" stroke="white"/>
<line opacity="0.05" x1="324" y1="1992.5" x2="4" y2="1992.5" stroke="white"/>
<line opacity="0.05" x1="324" y1="2016.5" x2="4" y2="2016.5" stroke="white"/>
<line opacity="0.05" x1="324" y1="2040.5" x2="4" y2="2040.5" stroke="white"/>
<line opacity="0.05" x1="324" y1="2064.5" x2="4" y2="2064.5" stroke="white"/>
<line opacity="0.05" x1="324" y1="2088.5" x2="4" y2="2088.5" stroke="white"/>
<line opacity="0.05" x1="324" y1="2112.5" x2="4" y2="2112.5" stroke="white"/>
<line opacity="0.05" x1="324" y1="2136.5" x2="4" y2="2136.5" stroke="white"/>
<line opacity="0.05" x1="324" y1="2160.5" x2="4" y2="2160.5" stroke="white"/>
<line opacity="0.05" x1="324" y1="2184.5" x2="4" y2="2184.5" stroke="white"/>
<line opacity="0.05" x1="324" y1="2208.5" x2="4" y2="2208.5" stroke="white"/>
<line opacity="0.05" x1="324" y1="2232.5" x2="4" y2="2232.5" stroke="white"/>
<line opacity="0.05" x1="324" y1="2256.5" x2="4" y2="2256.5" stroke="white"/>
<line opacity="0.05" x1="324" y1="2280.5" x2="4" y2="2280.5" stroke="white"/>
<line opacity="0.05" x1="324" y1="2304.5" x2="4" y2="2304.5" stroke="white"/>
<line opacity="0.05" x1="324" y1="2328.5" x2="4" y2="2328.5" stroke="white"/>
<line opacity="0.05" x1="324" y1="2352.5" x2="4" y2="2352.5" stroke="white"/>
<line opacity="0.05" x1="324" y1="2376.5" x2="4" y2="2376.5" stroke="white"/>
<line opacity="0.05" x1="324" y1="2400.5" x2="4" y2="2400.5" stroke="white"/>
<line opacity="0.05" x1="324" y1="2424.5" x2="4" y2="2424.5" stroke="white"/>
<line opacity="0.05" x1="324" y1="2448.5" x2="4" y2="2448.5" stroke="white"/>
<line opacity="0.05" x1="324" y1="2472.5" x2="4" y2="2472.5" stroke="white"/>
<line opacity="0.05" x1="324" y1="2496.5" x2="4" y2="2496.5" stroke="white"/>
<line opacity="0.05" x1="324" y1="2520.5" x2="4" y2="2520.5" stroke="white"/>
<line opacity="0.05" x1="324" y1="2544.5" x2="4" y2="2544.5" stroke="white"/>
<line opacity="0.05" x1="324" y1="2568.5" x2="4" y2="2568.5" stroke="white"/>
<line opacity="0.05" x1="324" y1="2592.5" x2="4" y2="2592.5" stroke="white"/>
<line opacity="0.05" x1="324" y1="2616.5" x2="4" y2="2616.5" stroke="white"/>
<line opacity="0.05" x1="324" y1="2640.5" x2="4" y2="2640.5" stroke="white"/>
<line opacity="0.05" x1="324" y1="2664.5" x2="4" y2="2664.5" stroke="white"/>
<line opacity="0.05" x1="324" y1="2688.5" x2="4" y2="2688.5" stroke="white"/>
<line opacity="0.05" x1="324" y1="2712.5" x2="4" y2="2712.5" stroke="white"/>
<line opacity="0.05" x1="324" y1="2736.5" x2="4" y2="2736.5" stroke="white"/>
<line opacity="0.05" x1="324" y1="2760.5" x2="4" y2="2760.5" stroke="white"/>
<line opacity="0.05" x1="324" y1="2784.5" x2="4" y2="2784.5" stroke="white"/>
<line opacity="0.05" x1="324" y1="2808.5" x2="4" y2="2808.5" stroke="white"/>
<line opacity="0.05" x1="324" y1="2832.5" x2="4" y2="2832.5" stroke="white"/>
<line opacity="0.05" x1="324" y1="2856.5" x2="4" y2="2856.5" stroke="white"/>
<line opacity="0.05" x1="324" y1="2880.5" x2="4" y2="2880.5" stroke="white"/>
<line opacity="0.05" x1="324" y1="2904.5" x2="4" y2="2904.5" stroke="white"/>
<line opacity="0.05" x1="324" y1="2928.5" x2="4" y2="2928.5" stroke="white"/>
<line opacity="0.05" x1="324" y1="2952.5" x2="4" y2="2952.5" stroke="white"/>
<line opacity="0.05" x1="324" y1="2976.5" x2="4" y2="2976.5" stroke="white"/>
<line opacity="0.05" x1="324" y1="3000.5" x2="4" y2="3000.5" stroke="white"/>
<line opacity="0.05" x1="324" y1="3024.5" x2="4" y2="3024.5" stroke="white"/>
<line opacity="0.05" x1="324" y1="3048.5" x2="4" y2="3048.5" stroke="white"/>
<line opacity="0.05" x1="324" y1="3072.5" x2="4" y2="3072.5" stroke="white"/>
<line opacity="0.05" x1="324" y1="3096.5" x2="4" y2="3096.5" stroke="white"/>
<line opacity="0.05" x1="324" y1="3120.5" x2="4" y2="3120.5" stroke="white"/>
<line opacity="0.05" x1="324" y1="3144.5" x2="4" y2="3144.5" stroke="white"/>
<line opacity="0.05" x1="324" y1="3168.5" x2="4" y2="3168.5" stroke="white"/>
<line opacity="0.05" x1="324" y1="3192.5" x2="4" y2="3192.5" stroke="white"/>
<line opacity="0.05" x1="324" y1="3216.5" x2="4" y2="3216.5" stroke="white"/>
<line opacity="0.05" x1="324" y1="3240.5" x2="4" y2="3240.5" stroke="white"/>
<line opacity="0.05" x1="324" y1="3264.5" x2="4" y2="3264.5" stroke="white"/>
<line opacity="0.05" x1="324" y1="3288.5" x2="4" y2="3288.5" stroke="white"/>
<line opacity="0.05" x1="324" y1="3312.5" x2="4" y2="3312.5" stroke="white"/>
<line opacity="0.05" x1="324" y1="3336.5" x2="4" y2="3336.5" stroke="white"/>
<line opacity="0.05" x1="324" y1="3360.5" x2="4" y2="3360.5" stroke="white"/>
<line opacity="0.05" x1="324" y1="3384.5" x2="4" y2="3384.5" stroke="white"/>
<line opacity="0.05" x1="324" y1="3408.5" x2="4" y2="3408.5" stroke="white"/>
<line opacity="0.05" x1="324" y1="3432.5" x2="4" y2="3432.5" stroke="white"/>
<line opacity="0.05" x1="324" y1="3456.5" x2="4" y2="3456.5" stroke="white"/>
<line opacity="0.05" x1="324" y1="3480.5" x2="4" y2="3480.5" stroke="white"/>
<line opacity="0.05" x1="324" y1="3504.5" x2="4" y2="3504.5" stroke="white"/>
<line opacity="0.05" x1="324" y1="3528.5" x2="4" y2="3528.5" stroke="white"/>
<line opacity="0.05" x1="324" y1="3552.5" x2="4" y2="3552.5" stroke="white"/>
<line opacity="0.05" x1="324" y1="3576.5" x2="4" y2="3576.5" stroke="white"/>
<line opacity="0.05" x1="324" y1="3600.5" x2="4" y2="3600.5" stroke="white"/>
<line opacity="0.05" x1="324" y1="3624.5" x2="4" y2="3624.5" stroke="white"/>
<line opacity="0.05" x1="324" y1="3648.5" x2="4" y2="3648.5" stroke="white"/>
<line opacity="0.05" x1="324" y1="3672.5" x2="4" y2="3672.5" stroke="white"/>
<line opacity="0.05" x1="324" y1="3696.5" x2="4" y2="3696.5" stroke="white"/>
<line opacity="0.05" x1="324" y1="3720.5" x2="4" y2="3720.5" stroke="white"/>
<line opacity="0.05" x1="324" y1="3744.5" x2="4" y2="3744.5" stroke="white"/>
<line opacity="0.05" x1="324" y1="3768.5" x2="4" y2="3768.5" stroke="white"/>
<line opacity="0.05" x1="324" y1="3792.5" x2="4" y2="3792.5" stroke="white"/>
<line opacity="0.05" x1="324" y1="3816.5" x2="4" y2="3816.5" stroke="white"/>
<line opacity="0.05" x1="324" y1="3840.5" x2="4" y2="3840.5" stroke="white"/>
<line opacity="0.05" x1="324" y1="3864.5" x2="4" y2="3864.5" stroke="white"/>
<line opacity="0.05" x1="324" y1="3888.5" x2="4" y2="3888.5" stroke="white"/>
<line opacity="0.05" x1="324" y1="3912.5" x2="4" y2="3912.5" stroke="white"/>
<line opacity="0.05" x1="324" y1="3936.5" x2="4" y2="3936.5" stroke="white"/>
<line opacity="0.05" x1="324" y1="3960.5" x2="4" y2="3960.5" stroke="white"/>
<line opacity="0.05" x1="324" y1="3984.5" x2="4" y2="3984.5" stroke="white"/>
<line opacity="0.05" x1="324" y1="4008.5" x2="4" y2="4008.5" stroke="white"/>
<line opacity="0.05" x1="324" y1="4032.5" x2="4" y2="4032.5" stroke="white"/>
<line opacity="0.05" x1="324" y1="4056.5" x2="4" y2="4056.5" stroke="white"/>
<line opacity="0.05" x1="324" y1="4080.5" x2="4" y2="4080.5" stroke="white"/>
<line opacity="0.05" x1="324" y1="4104.5" x2="4" y2="4104.5" stroke="white"/>
<line opacity="0.05" x1="324" y1="4128.5" x2="4" y2="4128.5" stroke="white"/>
<line opacity="0.05" x1="324" y1="4152.5" x2="4" y2="4152.5" stroke="white"/>
<line opacity="0.05" x1="324" y1="4176.5" x2="4" y2="4176.5" stroke="white"/>
<line opacity="0.05" x1="324" y1="4200.5" x2="4" y2="4200.5" stroke="white"/>
<line opacity="0.05" x1="324" y1="4224.5" x2="4" y2="4224.5" stroke="white"/>
<line opacity="0.05" x1="324" y1="4248.5" x2="4" y2="4248.5" stroke="white"/>
<line opacity="0.05" x1="324" y1="4272.5" x2="4" y2="4272.5" stroke="white"/>
<line opacity="0.05" x1="324" y1="4296.5" x2="4" y2="4296.5" stroke="white"/>
<line opacity="0.05" x1="324" y1="4320.5" x2="4" y2="4320.5" stroke="white"/>
<line opacity="0.05" x1="324" y1="4344.5" x2="4" y2="4344.5" stroke="white"/>
<line opacity="0.05" x1="324" y1="4368.5" x2="4" y2="4368.5" stroke="white"/>
<line opacity="0.05" x1="324" y1="4392.5" x2="4" y2="4392.5" stroke="white"/>
<line opacity="0.05" x1="324" y1="4416.5" x2="4" y2="4416.5" stroke="white"/>
<line opacity="0.05" x1="324" y1="4440.5" x2="4" y2="4440.5" stroke="white"/>
<line opacity="0.05" x1="324" y1="4464.5" x2="4" y2="4464.5" stroke="white"/>
<line opacity="0.05" x1="324" y1="4488.5" x2="4" y2="4488.5" stroke="white"/>
<line opacity="0.05" x1="324" y1="4512.5" x2="4" y2="4512.5" stroke="white"/>
<line opacity="0.05" x1="324" y1="4536.5" x2="4" y2="4536.5" stroke="white"/>
<line opacity="0.05" x1="324" y1="4560.5" x2="4" y2="4560.5" stroke="white"/>
<line opacity="0.05" x1="324" y1="4584.5" x2="4" y2="4584.5" stroke="white"/>
<line opacity="0.05" x1="324" y1="4608.5" x2="4" y2="4608.5" stroke="white"/>
<line opacity="0.05" x1="324" y1="4632.5" x2="4" y2="4632.5" stroke="white"/>
<line opacity="0.05" x1="324" y1="4656.5" x2="4" y2="4656.5" stroke="white"/>
<line opacity="0.05" x1="324" y1="4680.5" x2="4" y2="4680.5" stroke="white"/>
<line opacity="0.05" x1="324" y1="4704.5" x2="4" y2="4704.5" stroke="white"/>
<line opacity="0.05" x1="324" y1="4728.5" x2="4" y2="4728.5" stroke="white"/>
<line opacity="0.05" x1="324" y1="4752.5" x2="4" y2="4752.5" stroke="white"/>
<line opacity="0.05" x1="324" y1="4776.5" x2="4" y2="4776.5" stroke="white"/>
<line opacity="0.05" x1="324" y1="4800.5" x2="4" y2="4800.5" stroke="white"/>
<line opacity="0.05" x1="324" y1="4824.5" x2="4" y2="4824.5" stroke="white"/>
<line opacity="0.05" x1="324" y1="4848.5" x2="4" y2="4848.5" stroke="white"/>
<line opacity="0.05" x1="324" y1="4872.5" x2="4" y2="4872.5" stroke="white"/>
<line opacity="0.05" x1="324" y1="4896.5" x2="4" y2="4896.5" stroke="white"/>
<line opacity="0.05" x1="324" y1="4920.5" x2="4" y2="4920.5" stroke="white"/>
<line opacity="0.05" x1="324" y1="4944.5" x2="4" y2="4944.5" stroke="white"/>
<line opacity="0.05" x1="324" y1="4968.5" x2="4" y2="4968.5" stroke="white"/>
<line opacity="0.05" x1="324" y1="4992.5" x2="4" y2="4992.5" stroke="white"/>
<line opacity="0.05" x1="324" y1="5016.5" x2="4" y2="5016.5" stroke="white"/>
<line opacity="0.05" x1="324" y1="5040.5" x2="4" y2="5040.5" stroke="white"/>
<line opacity="0.05" x1="324" y1="5064.5" x2="4" y2="5064.5" stroke="white"/>
<line opacity="0.05" x1="324" y1="5088.5" x2="4" y2="5088.5" stroke="white"/>
<line opacity="0.05" x1="324" y1="5112.5" x2="4" y2="5112.5" stroke="white"/>
<line opacity="0.05" x1="324" y1="5136.5" x2="4" y2="5136.5" stroke="white"/>
<line opacity="0.05" x1="324" y1="5160.5" x2="4" y2="5160.5" stroke="white"/>
<line opacity="0.05" x1="324" y1="5184.5" x2="4" y2="5184.5" stroke="white"/>
<line opacity="0.05" x1="324" y1="5208.5" x2="4" y2="5208.5" stroke="white"/>
<line opacity="0.05" x1="324" y1="5232.5" x2="4" y2="5232.5" stroke="white"/>
<line opacity="0.05" x1="324" y1="5256.5" x2="4" y2="5256.5" stroke="white"/>
<line opacity="0.05" x1="324" y1="5280.5" x2="4" y2="5280.5" stroke="white"/>
<line opacity="0.05" x1="324" y1="5304.5" x2="4" y2="5304.5" stroke="white"/>
<line opacity="0.05" x1="324" y1="5328.5" x2="4" y2="5328.5" stroke="white"/>
<line opacity="0.05" x1="324" y1="5352.5" x2="4" y2="5352.5" stroke="white"/>
<line opacity="0.05" x1="324" y1="5376.5" x2="4" y2="5376.5" stroke="white"/>
<line opacity="0.05" x1="324" y1="5400.5" x2="4" y2="5400.5" stroke="white"/>
<line opacity="0.05" x1="324" y1="5424.5" x2="4" y2="5424.5" stroke="white"/>
<line opacity="0.05" x1="324" y1="5448.5" x2="4" y2="5448.5" stroke="white"/>
<line opacity="0.05" x1="324" y1="5472.5" x2="4" y2="5472.5" stroke="white"/>
<line opacity="0.05" x1="324" y1="5496.5" x2="4" y2="5496.5" stroke="white"/>
<line opacity="0.05" x1="324" y1="5520.5" x2="4" y2="5520.5" stroke="white"/>
<line opacity="0.05" x1="324" y1="5544.5" x2="4" y2="5544.5" stroke="white"/>
<line opacity="0.05" x1="324" y1="5568.5" x2="4" y2="5568.5" stroke="white"/>
<line opacity="0.05" x1="324" y1="5592.5" x2="4" y2="5592.5" stroke="white"/>
<line opacity="0.05" x1="324" y1="5616.5" x2="4" y2="5616.5" stroke="white"/>
<line opacity="0.05" x1="324" y1="5640.5" x2="4" y2="5640.5" stroke="white"/>
<line opacity="0.05" x1="324" y1="5664.5" x2="4" y2="5664.5" stroke="white"/>
<line opacity="0.05" x1="324" y1="5688.5" x2="4" y2="5688.5" stroke="white"/>
<line opacity="0.05" x1="324" y1="5712.5" x2="4" y2="5712.5" stroke="white"/>
<line opacity="0.05" x1="324" y1="5736.5" x2="4" y2="5736.5" stroke="white"/>
<line opacity="0.05" x1="324" y1="5760.5" x2="4" y2="5760.5" stroke="white"/>
<line opacity="0.05" x1="324" y1="5784.5" x2="4" y2="5784.5" stroke="white"/>
<line opacity="0.05" x1="324" y1="5808.5" x2="4" y2="5808.5" stroke="white"/>
<line opacity="0.05" x1="324" y1="5832.5" x2="4" y2="5832.5" stroke="white"/>
<line opacity="0.05" x1="324" y1="5856.5" x2="4" y2="5856.5" stroke="white"/>
<line opacity="0.05" x1="324" y1="5880.5" x2="4" y2="5880.5" stroke="white"/>
<line opacity="0.05" x1="324" y1="5904.5" x2="4" y2="5904.5" stroke="white"/>
<line opacity="0.05" x1="324" y1="5928.5" x2="4" y2="5928.5" stroke="white"/>
<line opacity="0.05" x1="324" y1="5952.5" x2="4" y2="5952.5" stroke="white"/>
<line opacity="0.05" x1="324" y1="5976.5" x2="4" y2="5976.5" stroke="white"/>
<line opacity="0.05" x1="324" y1="6000.5" x2="4" y2="6000.5" stroke="white"/>
<line opacity="0.05" x1="324" y1="6024.5" x2="4" y2="6024.5" stroke="white"/>
<line opacity="0.05" x1="324" y1="6048.5" x2="4" y2="6048.5" stroke="white"/>
<line opacity="0.05" x1="324" y1="6072.5" x2="4" y2="6072.5" stroke="white"/>
<line opacity="0.05" x1="324" y1="6096.5" x2="4" y2="6096.5" stroke="white"/>
<line opacity="0.05" x1="324" y1="6120.5" x2="4" y2="6120.5" stroke="white"/>
<line opacity="0.05" x1="324" y1="6144.5" x2="4" y2="6144.5" stroke="white"/>
<line opacity="0.05" x1="324" y1="6168.5" x2="4" y2="6168.5" stroke="white"/>
<line opacity="0.05" x1="324" y1="6192.5" x2="4" y2="6192.5" stroke="white"/>
<line opacity="0.05" x1="324" y1="6216.5" x2="4" y2="6216.5" stroke="white"/>
<line opacity="0.05" x1="324" y1="6240.5" x2="4" y2="6240.5" stroke="white"/>
<line opacity="0.05" x1="324" y1="6264.5" x2="4" y2="6264.5" stroke="white"/>
<line opacity="0.05" x1="324" y1="6288.5" x2="4" y2="6288.5" stroke="white"/>
<line opacity="0.05" x1="324" y1="6312.5" x2="4" y2="6312.5" stroke="white"/>
<line opacity="0.05" x1="324" y1="6336.5" x2="4" y2="6336.5" stroke="white"/>
<line opacity="0.05" x1="324" y1="6360.5" x2="4" y2="6360.5" stroke="white"/>
<line opacity="0.05" x1="324" y1="6384.5" x2="4" y2="6384.5" stroke="white"/>
<line opacity="0.05" x1="324" y1="6408.5" x2="4" y2="6408.5" stroke="white"/>
<line opacity="0.05" x1="324" y1="6432.5" x2="4" y2="6432.5" stroke="white"/>
<line opacity="0.05" x1="324" y1="6456.5" x2="4" y2="6456.5" stroke="white"/>
<line opacity="0.05" x1="324" y1="6480.5" x2="4" y2="6480.5" stroke="white"/>
<line opacity="0.05" x1="324" y1="6504.5" x2="4" y2="6504.5" stroke="white"/>
<line opacity="0.05" x1="324" y1="6528.5" x2="4" y2="6528.5" stroke="white"/>
<line opacity="0.05" x1="324" y1="6552.5" x2="4" y2="6552.5" stroke="white"/>
<line opacity="0.05" x1="324" y1="6576.5" x2="4" y2="6576.5" stroke="white"/>
<line opacity="0.05" x1="324" y1="6600.5" x2="4" y2="6600.5" stroke="white"/>
<line opacity="0.05" x1="324" y1="6624.5" x2="4" y2="6624.5" stroke="white"/>
<line opacity="0.05" x1="324" y1="6648.5" x2="4" y2="6648.5" stroke="white"/>
<line opacity="0.05" x1="324" y1="6672.5" x2="4" y2="6672.5" stroke="white"/>
<line opacity="0.05" x1="324" y1="6696.5" x2="4" y2="6696.5" stroke="white"/>
<line opacity="0.05" x1="324" y1="6720.5" x2="4" y2="6720.5" stroke="white"/>
<line opacity="0.05" x1="324" y1="6744.5" x2="4" y2="6744.5" stroke="white"/>
<line opacity="0.05" x1="324" y1="6768.5" x2="4" y2="6768.5" stroke="white"/>
<line opacity="0.05" x1="324" y1="6792.5" x2="4" y2="6792.5" stroke="white"/>
<line opacity="0.05" x1="324" y1="6816.5" x2="4" y2="6816.5" stroke="white"/>
<line opacity="0.05" x1="324" y1="6840.5" x2="4" y2="6840.5" stroke="white"/>
<line opacity="0.05" x1="324" y1="6864.5" x2="4" y2="6864.5" stroke="white"/>
<line opacity="0.05" x1="324" y1="6888.5" x2="4" y2="6888.5" stroke="white"/>
<line opacity="0.05" x1="324" y1="6912.5" x2="4" y2="6912.5" stroke="white"/>
<line opacity="0.05" x1="324" y1="6936.5" x2="4" y2="6936.5" stroke="white"/>
<line opacity="0.05" x1="324" y1="6960.5" x2="4" y2="6960.5" stroke="white"/>
<line opacity="0.05" x1="324" y1="6984.5" x2="4" y2="6984.5" stroke="white"/>
<line opacity="0.05" x1="324" y1="7008.5" x2="4" y2="7008.5" stroke="white"/>
<line opacity="0.05" x1="324" y1="7032.5" x2="4" y2="7032.5" stroke="white"/>
<line opacity="0.05" x1="324" y1="7056.5" x2="4" y2="7056.5" stroke="white"/>
<line opacity="0.05" x1="324" y1="7080.5" x2="4" y2="7080.5" stroke="white"/>
<line opacity="0.05" x1="324" y1="7104.5" x2="4" y2="7104.5" stroke="white"/>
<line opacity="0.05" x1="324" y1="7128.5" x2="4" y2="7128.5" stroke="white"/>
<line opacity="0.05" x1="324" y1="7152.5" x2="4" y2="7152.5" stroke="white"/>
<line opacity="0.05" x1="324" y1="7176.5" x2="4" y2="7176.5" stroke="white"/>
<line opacity="0.05" x1="324" y1="7200.5" x2="4" y2="7200.5" stroke="white"/>
<line opacity="0.05" x1="324" y1="7224.5" x2="4" y2="7224.5" stroke="white"/>
<line opacity="0.05" x1="324" y1="7248.5" x2="4" y2="7248.5" stroke="white"/>
<line opacity="0.05" x1="324" y1="7272.5" x2="4" y2="7272.5" stroke="white"/>
<line opacity="0.05" x1="324" y1="7296.5" x2="4" y2="7296.5" stroke="white"/>
<line opacity="0.05" x1="324" y1="7320.5" x2="4" y2="7320.5" stroke="white"/>
<line opacity="0.05" x1="324" y1="7344.5" x2="4" y2="7344.5" stroke="white"/>
<line opacity="0.05" x1="324" y1="7368.5" x2="4" y2="7368.5" stroke="white"/>
<line opacity="0.05" x1="324" y1="7392.5" x2="4" y2="7392.5" stroke="white"/>
<line opacity="0.05" x1="324" y1="7416.5" x2="4" y2="7416.5" stroke="white"/>
<line opacity="0.05" x1="324" y1="7440.5" x2="4" y2="7440.5" stroke="white"/>
<line opacity="0.05" x1="324" y1="7464.5" x2="4" y2="7464.5" stroke="white"/>
<line opacity="0.05" x1="324" y1="7488.5" x2="4" y2="7488.5" stroke="white"/>
<line opacity="0.05" x1="324" y1="7512.5" x2="4" y2="7512.5" stroke="white"/>
<line opacity="0.05" x1="324" y1="7536.5" x2="4" y2="7536.5" stroke="white"/>
<line opacity="0.05" x1="324" y1="7560.5" x2="4" y2="7560.5" stroke="white"/>
<line opacity="0.05" x1="324" y1="7584.5" x2="4" y2="7584.5" stroke="white"/>
<line opacity="0.05" x1="324" y1="7608.5" x2="4" y2="7608.5" stroke="white"/>
<line opacity="0.05" x1="324" y1="7632.5" x2="4" y2="7632.5" stroke="white"/>
<line opacity="0.05" x1="324" y1="7656.5" x2="4" y2="7656.5" stroke="white"/>
<line opacity="0.05" x1="324" y1="7680.5" x2="4" y2="7680.5" stroke="white"/>
<line opacity="0.05" x1="324" y1="7704.5" x2="4" y2="7704.5" stroke="white"/>
<line opacity="0.05" x1="324" y1="7728.5" x2="4" y2="7728.5" stroke="white"/>
<line opacity="0.05" x1="324" y1="7752.5" x2="4" y2="7752.5" stroke="white"/>
<line opacity="0.05" x1="324" y1="7776.5" x2="4" y2="7776.5" stroke="white"/>
<line opacity="0.05" x1="324" y1="7800.5" x2="4" y2="7800.5" stroke="white"/>
<line opacity="0.05" x1="324" y1="7824.5" x2="4" y2="7824.5" stroke="white"/>
<line opacity="0.05" x1="324" y1="7848.5" x2="4" y2="7848.5" stroke="white"/>
<line opacity="0.05" x1="324" y1="7872.5" x2="4" y2="7872.5" stroke="white"/>
<line opacity="0.05" x1="324" y1="7896.5" x2="4" y2="7896.5" stroke="white"/>
<line opacity="0.05" x1="324" y1="7920.5" x2="4" y2="7920.5" stroke="white"/>
<line opacity="0.05" x1="324" y1="7944.5" x2="4" y2="7944.5" stroke="white"/>
<line opacity="0.05" x1="324" y1="7968.5" x2="4" y2="7968.5" stroke="white"/>
<line opacity="0.05" x1="324" y1="7992.5" x2="4" y2="7992.5" stroke="white"/>
<line opacity="0.05" x1="324" y1="8016.5" x2="4" y2="8016.5" stroke="white"/>
<line opacity="0.05" x1="324" y1="8040.5" x2="4" y2="8040.5" stroke="white"/>
<line opacity="0.05" x1="324" y1="8064.5" x2="4" y2="8064.5" stroke="white"/>
<line opacity="0.05" x1="324" y1="8088.5" x2="4" y2="8088.5" stroke="white"/>
<line opacity="0.05" x1="324" y1="8112.5" x2="4" y2="8112.5" stroke="white"/>
<line opacity="0.05" x1="324" y1="8136.5" x2="4" y2="8136.5" stroke="white"/>
<line opacity="0.05" x1="324" y1="8160.5" x2="4" y2="8160.5" stroke="white"/>
<line opacity="0.05" x1="324" y1="8184.5" x2="4" y2="8184.5" stroke="white"/>
<line opacity="0.05" x1="324" y1="8208.5" x2="4" y2="8208.5" stroke="white"/>
<line opacity="0.05" x1="324" y1="8232.5" x2="4" y2="8232.5" stroke="white"/>
<line opacity="0.05" x1="324" y1="8256.5" x2="4" y2="8256.5" stroke="white"/>
<line opacity="0.05" x1="324" y1="8280.5" x2="4" y2="8280.5" stroke="white"/>
<line opacity="0.05" x1="324" y1="8304.5" x2="4" y2="8304.5" stroke="white"/>
<line opacity="0.05" x1="324" y1="8328.5" x2="4" y2="8328.5" stroke="white"/>
<line opacity="0.05" x1="324" y1="8352.5" x2="4" y2="8352.5" stroke="white"/>
<line opacity="0.05" x1="324" y1="8376.5" x2="4" y2="8376.5" stroke="white"/>
<line opacity="0.05" x1="324" y1="8400.5" x2="4" y2="8400.5" stroke="white"/>
<line opacity="0.05" x1="324" y1="8424.5" x2="4" y2="8424.5" stroke="white"/>
<line opacity="0.05" x1="324" y1="8448.5" x2="4" y2="8448.5" stroke="white"/>
<line opacity="0.05" x1="324" y1="8472.5" x2="4" y2="8472.5" stroke="white"/>
<line opacity="0.05" x1="324" y1="8496.5" x2="4" y2="8496.5" stroke="white"/>
<line opacity="0.05" x1="324" y1="8520.5" x2="4" y2="8520.5" stroke="white"/>
<line opacity="0.05" x1="324" y1="8544.5" x2="4" y2="8544.5" stroke="white"/>
<line opacity="0.05" x1="324" y1="8568.5" x2="4" y2="8568.5" stroke="white"/>
<line opacity="0.05" x1="324" y1="8592.5" x2="4" y2="8592.5" stroke="white"/>
<line opacity="0.05" x1="324" y1="8616.5" x2="4" y2="8616.5" stroke="white"/>
<line opacity="0.05" x1="324" y1="8640.5" x2="4" y2="8640.5" stroke="white"/>
<line opacity="0.05" x1="324" y1="8664.5" x2="4" y2="8664.5" stroke="white"/>
<line opacity="0.05" x1="324" y1="8688.5" x2="4" y2="8688.5" stroke="white"/>
<line opacity="0.05" x1="324" y1="8712.5" x2="4" y2="8712.5" stroke="white"/>
<line opacity="0.05" x1="324" y1="8736.5" x2="4" y2="8736.5" stroke="white"/>
<line opacity="0.05" x1="324" y1="8760.5" x2="4" y2="8760.5" stroke="white"/>
<line opacity="0.05" x1="324" y1="8784.5" x2="4" y2="8784.5" stroke="white"/>
<line opacity="0.05" x1="324" y1="8808.5" x2="4" y2="8808.5" stroke="white"/>
<line opacity="0.05" x1="324" y1="8832.5" x2="4" y2="8832.5" stroke="white"/>
<line opacity="0.05" x1="324" y1="8856.5" x2="4" y2="8856.5" stroke="white"/>
<line opacity="0.05" x1="324" y1="8880.5" x2="4" y2="8880.5" stroke="white"/>
<line opacity="0.05" x1="324" y1="8904.5" x2="4" y2="8904.5" stroke="white"/>
<line opacity="0.05" x1="324" y1="8928.5" x2="4" y2="8928.5" stroke="white"/>
<line opacity="0.05" x1="324" y1="8952.5" x2="4" y2="8952.5" stroke="white"/>
<line opacity="0.05" x1="324" y1="8976.5" x2="4" y2="8976.5" stroke="white"/>
<line opacity="0.05" x1="324" y1="9000.5" x2="4" y2="9000.5" stroke="white"/>
<line opacity="0.05" x1="324" y1="9024.5" x2="4" y2="9024.5" stroke="white"/>
<line opacity="0.05" x1="324" y1="9048.5" x2="4" y2="9048.5" stroke="white"/>
<line opacity="0.05" x1="324" y1="9072.5" x2="4" y2="9072.5" stroke="white"/>
<line opacity="0.05" x1="324" y1="9096.5" x2="4" y2="9096.5" stroke="white"/>
<line opacity="0.05" x1="324" y1="9120.5" x2="4" y2="9120.5" stroke="white"/>
<line opacity="0.05" x1="324" y1="9144.5" x2="4" y2="9144.5" stroke="white"/>
<line opacity="0.05" x1="324" y1="9168.5" x2="4" y2="9168.5" stroke="white"/>
<line opacity="0.05" x1="324" y1="9192.5" x2="4" y2="9192.5" stroke="white"/>
<line opacity="0.05" x1="324" y1="9216.5" x2="4" y2="9216.5" stroke="white"/>
<line opacity="0.05" x1="324" y1="9240.5" x2="4" y2="9240.5" stroke="white"/>
<line opacity="0.05" x1="324" y1="9264.5" x2="4" y2="9264.5" stroke="white"/>
<line opacity="0.05" x1="324" y1="9288.5" x2="4" y2="9288.5" stroke="white"/>
<line opacity="0.05" x1="324" y1="9312.5" x2="4" y2="9312.5" stroke="white"/>
<line opacity="0.05" x1="324" y1="9336.5" x2="4" y2="9336.5" stroke="white"/>
<line opacity="0.05" x1="324" y1="9360.5" x2="4" y2="9360.5" stroke="white"/>
<line opacity="0.05" x1="324" y1="9384.5" x2="4" y2="9384.5" stroke="white"/>
<line opacity="0.05" x1="16.5005" y1="-2.18557e-08" x2="16.501" y2="12369" stroke="white"/>
<line opacity="0.05" x1="40.501" y1="-8.21681e-08" x2="40.5011" y2="12369" stroke="white"/>
<line opacity="0.05" x1="64.5012" y1="-8.21681e-08" x2="64.5014" y2="12369" stroke="white"/>
<line opacity="0.05" x1="88.5015" y1="-2.50308e-07" x2="88.5015" y2="12369" stroke="white"/>
<line opacity="0.05" x1="112.501" y1="-2.50308e-07" x2="112.502" y2="12369" stroke="white"/>
<line opacity="0.05" x1="136.501" y1="-2.50308e-07" x2="136.502" y2="12369" stroke="white"/>
<line opacity="0.05" x1="160.501" y1="-2.50308e-07" x2="160.502" y2="12369" stroke="white"/>
<line opacity="0.05" x1="184.501" y1="-2.50308e-07" x2="184.502" y2="12369" stroke="white"/>
<line opacity="0.05" x1="208.502" y1="-2.50308e-07" x2="208.502" y2="12369" stroke="white"/>
<line opacity="0.05" x1="232.502" y1="-2.50308e-07" x2="232.502" y2="12369" stroke="white"/>
<line opacity="0.05" x1="256.502" y1="-2.50308e-07" x2="256.502" y2="12369" stroke="white"/>
<line opacity="0.05" x1="280.502" y1="-2.50308e-07" x2="280.502" y2="12369" stroke="white"/>
<line opacity="0.05" x1="304.502" y1="-2.50308e-07" x2="304.502" y2="12369" stroke="white"/>
<path d="M13 504.5L20 504.5M16.5 508L16.5 501" stroke="#2E2E2E" stroke-width="2"/>
<path d="M37 504.5L44 504.5M40.5 508L40.5 501" stroke="#2E2E2E" stroke-width="2"/>
<path d="M61 504.5L68 504.5M64.5 508L64.5 501" stroke="#2E2E2E" stroke-width="2"/>
<path d="M85 504.5L92 504.5M88.5 508L88.5 501" stroke="#2E2E2E" stroke-width="2"/>
<path d="M109 504.5L116 504.5M112.5 508L112.5 501" stroke="#2E2E2E" stroke-width="2"/>
<path d="M133 504.5L140 504.5M136.5 508L136.5 501" stroke="#2E2E2E" stroke-width="2"/>
<path d="M157 504.5L164 504.5M160.5 508L160.5 501" stroke="#2E2E2E" stroke-width="2"/>
<path d="M181 504.5L188 504.5M184.5 508L184.5 501" stroke="#2E2E2E" stroke-width="2"/>
<path d="M205 504.5L212 504.5M208.5 508L208.5 501" stroke="#2E2E2E" stroke-width="2"/>
<path d="M229 504.5L236 504.5M232.5 508L232.5 501" stroke="#2E2E2E" stroke-width="2"/>
<path d="M253 504.5L260 504.5M256.5 508L256.5 501" stroke="#2E2E2E" stroke-width="2"/>
<path d="M277 504.5L284 504.5M280.5 508L280.5 501" stroke="#2E2E2E" stroke-width="2"/>
<path d="M301 504.5L308 504.5M304.5 508L304.5 501" stroke="#2E2E2E" stroke-width="2"/>
<rect x="286" y="567" width="5" height="22" fill="#3F3F3F"/>
<rect x="286" y="2150" width="5" height="22" fill="#3F3F3F"/>
<rect x="46" y="2487" width="5" height="22" fill="#3F3F3F"/>
<rect x="286" y="2917" width="5" height="22" fill="#3F3F3F"/>
<rect x="46" y="3317" width="5" height="22" fill="#3F3F3F"/>
<rect x="46" y="8439" width="5" height="22" fill="#3F3F3F"/>
<rect x="310" y="3640" width="5" height="22" fill="#3F3F3F"/>
<path d="M157 7584.5L164 7584.5M160.5 7588L160.5 7581" stroke="white" stroke-width="2"/>
<path d="M157 9144.5L164 9144.5M160.5 9148L160.5 9141" stroke="white" stroke-width="2"/>
<path d="M157 504.5L164 504.5M160.5 508L160.5 501" stroke="white" stroke-width="2"/>
<path d="M157 1584.5L164 1584.5M160.5 1588L160.5 1581" stroke="white" stroke-width="2"/>
<path d="M157 2208.5L164 2208.5M160.5 2212L160.5 2205" stroke="white" stroke-width="2"/>
<path d="M157 3528.5L164 3528.5M160.5 3532L160.5 3525" stroke="white" stroke-width="2"/>
<path d="M157 3888.5L164 3888.5M160.5 3892L160.5 3885" stroke="white" stroke-width="2"/>
<path d="M157 4968.5L164 4968.5M160.5 4972L160.5 4965" stroke="white" stroke-width="2"/>
<path d="M157 5856.5L164 5856.5M160.5 5860L160.5 5853" stroke="white" stroke-width="2"/>
<path d="M157 6504.5L164 6504.5M160.5 6508L160.5 6501" stroke="white" stroke-width="2"/>
</g>
<defs>
<clipPath id="clip0_70_4208">
<rect width="320" height="9408" fill="white"/>
</clipPath>
</defs>
</svg>
