<svg width="768" height="10615" viewBox="0 0 768 10615" fill="none" xmlns="http://www.w3.org/2000/svg">
<g clip-path="url(#clip0_70_2581)">
<rect width="768" height="10615" fill="#151515"/>
<line opacity="0.05" x1="771.5" y1="22.5" x2="-3.5" y2="22.5" stroke="white"/>
<line opacity="0.05" x1="771.5" y1="46.5" x2="-3.5" y2="46.5" stroke="white"/>
<line opacity="0.05" x1="771.5" y1="70.5" x2="-3.5" y2="70.5" stroke="white"/>
<line opacity="0.05" x1="771.5" y1="94.5" x2="-3.5" y2="94.5" stroke="white"/>
<line opacity="0.05" x1="771.5" y1="118.5" x2="-3.5" y2="118.5" stroke="white"/>
<line opacity="0.05" x1="771.5" y1="142.5" x2="-3.5" y2="142.5" stroke="white"/>
<line opacity="0.05" x1="771.5" y1="166.5" x2="-3.5" y2="166.5" stroke="white"/>
<line opacity="0.05" x1="771.5" y1="190.5" x2="-3.5" y2="190.5" stroke="white"/>
<line opacity="0.05" x1="771.5" y1="214.5" x2="-3.5" y2="214.5" stroke="white"/>
<line opacity="0.05" x1="771.5" y1="238.5" x2="-3.5" y2="238.5" stroke="white"/>
<line opacity="0.05" x1="771.5" y1="262.5" x2="-3.5" y2="262.5" stroke="white"/>
<line opacity="0.05" x1="771.5" y1="286.5" x2="-3.5" y2="286.5" stroke="white"/>
<line opacity="0.05" x1="771.5" y1="310.5" x2="-3.5" y2="310.5" stroke="white"/>
<line opacity="0.05" x1="771.5" y1="334.5" x2="-3.5" y2="334.5" stroke="white"/>
<line opacity="0.05" x1="771.5" y1="358.5" x2="-3.5" y2="358.5" stroke="white"/>
<line opacity="0.05" x1="771.5" y1="382.5" x2="-3.5" y2="382.5" stroke="white"/>
<line opacity="0.05" x1="771.5" y1="406.5" x2="-3.5" y2="406.5" stroke="white"/>
<line opacity="0.05" x1="771.5" y1="430.5" x2="-3.5" y2="430.5" stroke="white"/>
<line opacity="0.05" x1="771.5" y1="454.5" x2="-3.5" y2="454.5" stroke="white"/>
<line opacity="0.05" x1="771.5" y1="478.5" x2="-3.5" y2="478.5" stroke="white"/>
<line opacity="0.05" x1="771.5" y1="502.5" x2="-3.5" y2="502.5" stroke="white"/>
<line opacity="0.05" x1="771.5" y1="526.5" x2="-3.5" y2="526.5" stroke="white"/>
<line opacity="0.05" x1="771.5" y1="550.5" x2="-3.5" y2="550.5" stroke="white"/>
<line opacity="0.05" x1="771.5" y1="574.5" x2="-3.5" y2="574.5" stroke="white"/>
<line opacity="0.05" x1="771.5" y1="598.5" x2="-3.5" y2="598.5" stroke="white"/>
<line opacity="0.05" x1="771.5" y1="622.5" x2="-3.5" y2="622.5" stroke="white"/>
<line opacity="0.05" x1="771.5" y1="646.5" x2="-3.5" y2="646.5" stroke="white"/>
<line opacity="0.05" x1="771.5" y1="670.5" x2="-3.5" y2="670.5" stroke="white"/>
<line opacity="0.05" x1="771.5" y1="694.5" x2="-3.5" y2="694.5" stroke="white"/>
<line opacity="0.05" x1="771.5" y1="718.5" x2="-3.5" y2="718.5" stroke="white"/>
<line opacity="0.05" x1="771.5" y1="742.5" x2="-3.5" y2="742.5" stroke="white"/>
<line opacity="0.05" x1="771.5" y1="766.5" x2="-3.5" y2="766.5" stroke="white"/>
<line opacity="0.05" x1="771.5" y1="790.5" x2="-3.5" y2="790.5" stroke="white"/>
<line opacity="0.05" x1="771.5" y1="814.5" x2="-3.5" y2="814.5" stroke="white"/>
<line opacity="0.05" x1="771.5" y1="838.5" x2="-3.5" y2="838.5" stroke="white"/>
<line opacity="0.05" x1="771.5" y1="862.5" x2="-3.5" y2="862.5" stroke="white"/>
<line opacity="0.05" x1="771.5" y1="886.5" x2="-3.5" y2="886.5" stroke="white"/>
<line opacity="0.05" x1="771.5" y1="910.5" x2="-3.5" y2="910.5" stroke="white"/>
<line opacity="0.05" x1="771.5" y1="934.5" x2="-3.5" y2="934.5" stroke="white"/>
<line opacity="0.05" x1="771.5" y1="958.5" x2="-3.5" y2="958.5" stroke="white"/>
<line opacity="0.05" x1="771.5" y1="982.5" x2="-3.5" y2="982.5" stroke="white"/>
<line opacity="0.05" x1="771.5" y1="1006.5" x2="-3.5" y2="1006.5" stroke="white"/>
<line opacity="0.05" x1="771.5" y1="1030.5" x2="-3.5" y2="1030.5" stroke="white"/>
<line opacity="0.05" x1="771.5" y1="1054.5" x2="-3.5" y2="1054.5" stroke="white"/>
<line opacity="0.05" x1="771.5" y1="1078.5" x2="-3.5" y2="1078.5" stroke="white"/>
<line opacity="0.05" x1="771.5" y1="1102.5" x2="-3.5" y2="1102.5" stroke="white"/>
<line opacity="0.05" x1="771.5" y1="1126.5" x2="-3.5" y2="1126.5" stroke="white"/>
<line opacity="0.05" x1="771.5" y1="1150.5" x2="-3.5" y2="1150.5" stroke="white"/>
<line opacity="0.05" x1="771.5" y1="1174.5" x2="-3.5" y2="1174.5" stroke="white"/>
<line opacity="0.05" x1="771.5" y1="1198.5" x2="-3.5" y2="1198.5" stroke="white"/>
<line opacity="0.05" x1="771.5" y1="1222.5" x2="-3.5" y2="1222.5" stroke="white"/>
<line opacity="0.05" x1="771.5" y1="1246.5" x2="-3.5" y2="1246.5" stroke="white"/>
<line opacity="0.05" x1="771.5" y1="1270.5" x2="-3.5" y2="1270.5" stroke="white"/>
<line opacity="0.05" x1="771.5" y1="1294.5" x2="-3.5" y2="1294.5" stroke="white"/>
<line opacity="0.05" x1="771.5" y1="1318.5" x2="-3.5" y2="1318.5" stroke="white"/>
<line opacity="0.05" x1="771.5" y1="1342.5" x2="-3.5" y2="1342.5" stroke="white"/>
<line opacity="0.05" x1="771.5" y1="1366.5" x2="-3.5" y2="1366.5" stroke="white"/>
<line opacity="0.05" x1="771.5" y1="1390.5" x2="-3.5" y2="1390.5" stroke="white"/>
<line opacity="0.05" x1="771.5" y1="1414.5" x2="-3.5" y2="1414.5" stroke="white"/>
<line opacity="0.05" x1="771.5" y1="1438.5" x2="-3.5" y2="1438.5" stroke="white"/>
<line opacity="0.05" x1="771.5" y1="1462.5" x2="-3.5" y2="1462.5" stroke="white"/>
<line opacity="0.05" x1="771.5" y1="1486.5" x2="-3.5" y2="1486.5" stroke="white"/>
<line opacity="0.05" x1="771.5" y1="1510.5" x2="-3.5" y2="1510.5" stroke="white"/>
<line opacity="0.05" x1="771.5" y1="1534.5" x2="-3.5" y2="1534.5" stroke="white"/>
<line opacity="0.05" x1="771.5" y1="1558.5" x2="-3.5" y2="1558.5" stroke="white"/>
<line opacity="0.05" x1="771.5" y1="1582.5" x2="-3.5" y2="1582.5" stroke="white"/>
<line opacity="0.05" x1="771.5" y1="1606.5" x2="-3.5" y2="1606.5" stroke="white"/>
<line opacity="0.05" x1="771.5" y1="1630.5" x2="-3.5" y2="1630.5" stroke="white"/>
<line opacity="0.05" x1="771.5" y1="1654.5" x2="-3.5" y2="1654.5" stroke="white"/>
<line opacity="0.05" x1="771.5" y1="1678.5" x2="-3.5" y2="1678.5" stroke="white"/>
<line opacity="0.05" x1="771.5" y1="1702.5" x2="-3.5" y2="1702.5" stroke="white"/>
<line opacity="0.05" x1="771.5" y1="1726.5" x2="-3.5" y2="1726.5" stroke="white"/>
<line opacity="0.05" x1="771.5" y1="1750.5" x2="-3.5" y2="1750.5" stroke="white"/>
<line opacity="0.05" x1="771.5" y1="1774.5" x2="-3.5" y2="1774.5" stroke="white"/>
<line opacity="0.05" x1="771.5" y1="1798.5" x2="-3.5" y2="1798.5" stroke="white"/>
<line opacity="0.05" x1="771.5" y1="1822.5" x2="-3.5" y2="1822.5" stroke="white"/>
<line opacity="0.05" x1="771.5" y1="1846.5" x2="-3.5" y2="1846.5" stroke="white"/>
<line opacity="0.05" x1="771.5" y1="1870.5" x2="-3.5" y2="1870.5" stroke="white"/>
<line opacity="0.05" x1="771.5" y1="1894.5" x2="-3.5" y2="1894.5" stroke="white"/>
<line opacity="0.05" x1="771.5" y1="1918.5" x2="-3.5" y2="1918.5" stroke="white"/>
<line opacity="0.05" x1="771.5" y1="1942.5" x2="-3.5" y2="1942.5" stroke="white"/>
<line opacity="0.05" x1="771.5" y1="1966.5" x2="-3.5" y2="1966.5" stroke="white"/>
<line opacity="0.05" x1="771.5" y1="1990.5" x2="-3.5" y2="1990.5" stroke="white"/>
<line opacity="0.05" x1="771.5" y1="2014.5" x2="-3.5" y2="2014.5" stroke="white"/>
<line opacity="0.05" x1="771.5" y1="2038.5" x2="-3.5" y2="2038.5" stroke="white"/>
<line opacity="0.05" x1="771.5" y1="2062.5" x2="-3.5" y2="2062.5" stroke="white"/>
<line opacity="0.05" x1="771.5" y1="2086.5" x2="-3.5" y2="2086.5" stroke="white"/>
<line opacity="0.05" x1="771.5" y1="2110.5" x2="-3.5" y2="2110.5" stroke="white"/>
<line opacity="0.05" x1="771.5" y1="2134.5" x2="-3.5" y2="2134.5" stroke="white"/>
<line opacity="0.05" x1="771.5" y1="2158.5" x2="-3.5" y2="2158.5" stroke="white"/>
<line opacity="0.05" x1="771.5" y1="2182.5" x2="-3.5" y2="2182.5" stroke="white"/>
<line opacity="0.05" x1="771.5" y1="2206.5" x2="-3.5" y2="2206.5" stroke="white"/>
<line opacity="0.05" x1="771.5" y1="2230.5" x2="-3.5" y2="2230.5" stroke="white"/>
<line opacity="0.05" x1="771.5" y1="2254.5" x2="-3.5" y2="2254.5" stroke="white"/>
<line opacity="0.05" x1="771.5" y1="2278.5" x2="-3.5" y2="2278.5" stroke="white"/>
<line opacity="0.05" x1="771.5" y1="2302.5" x2="-3.5" y2="2302.5" stroke="white"/>
<line opacity="0.05" x1="771.5" y1="2326.5" x2="-3.5" y2="2326.5" stroke="white"/>
<line opacity="0.05" x1="771.5" y1="2350.5" x2="-3.5" y2="2350.5" stroke="white"/>
<line opacity="0.05" x1="771.5" y1="2374.5" x2="-3.5" y2="2374.5" stroke="white"/>
<line opacity="0.05" x1="771.5" y1="2398.5" x2="-3.5" y2="2398.5" stroke="white"/>
<line opacity="0.05" x1="771.5" y1="2422.5" x2="-3.5" y2="2422.5" stroke="white"/>
<line opacity="0.05" x1="771.5" y1="2446.5" x2="-3.5" y2="2446.5" stroke="white"/>
<line opacity="0.05" x1="771.5" y1="2470.5" x2="-3.5" y2="2470.5" stroke="white"/>
<line opacity="0.05" x1="771.5" y1="2494.5" x2="-3.5" y2="2494.5" stroke="white"/>
<line opacity="0.05" x1="771.5" y1="2518.5" x2="-3.5" y2="2518.5" stroke="white"/>
<line opacity="0.05" x1="771.5" y1="2542.5" x2="-3.5" y2="2542.5" stroke="white"/>
<line opacity="0.05" x1="771.5" y1="2566.5" x2="-3.5" y2="2566.5" stroke="white"/>
<line opacity="0.05" x1="771.5" y1="2590.5" x2="-3.5" y2="2590.5" stroke="white"/>
<line opacity="0.05" x1="771.5" y1="2614.5" x2="-3.5" y2="2614.5" stroke="white"/>
<line opacity="0.05" x1="771.5" y1="2638.5" x2="-3.5" y2="2638.5" stroke="white"/>
<line opacity="0.05" x1="771.5" y1="2662.5" x2="-3.5" y2="2662.5" stroke="white"/>
<line opacity="0.05" x1="771.5" y1="2686.5" x2="-3.5" y2="2686.5" stroke="white"/>
<line opacity="0.05" x1="771.5" y1="2710.5" x2="-3.5" y2="2710.5" stroke="white"/>
<line opacity="0.05" x1="771.5" y1="2734.5" x2="-3.5" y2="2734.5" stroke="white"/>
<line opacity="0.05" x1="771.5" y1="2758.5" x2="-3.5" y2="2758.5" stroke="white"/>
<line opacity="0.05" x1="771.5" y1="2782.5" x2="-3.5" y2="2782.5" stroke="white"/>
<line opacity="0.05" x1="771.5" y1="2806.5" x2="-3.5" y2="2806.5" stroke="white"/>
<line opacity="0.05" x1="771.5" y1="2830.5" x2="-3.5" y2="2830.5" stroke="white"/>
<line opacity="0.05" x1="771.5" y1="2854.5" x2="-3.5" y2="2854.5" stroke="white"/>
<line opacity="0.05" x1="771.5" y1="2878.5" x2="-3.5" y2="2878.5" stroke="white"/>
<line opacity="0.05" x1="771.5" y1="2902.5" x2="-3.5" y2="2902.5" stroke="white"/>
<line opacity="0.05" x1="771.5" y1="2926.5" x2="-3.5" y2="2926.5" stroke="white"/>
<line opacity="0.05" x1="771.5" y1="2950.5" x2="-3.5" y2="2950.5" stroke="white"/>
<line opacity="0.05" x1="771.5" y1="2974.5" x2="-3.5" y2="2974.5" stroke="white"/>
<line opacity="0.05" x1="771.5" y1="2998.5" x2="-3.5" y2="2998.5" stroke="white"/>
<line opacity="0.05" x1="771.5" y1="3022.5" x2="-3.5" y2="3022.5" stroke="white"/>
<line opacity="0.05" x1="771.5" y1="3046.5" x2="-3.5" y2="3046.5" stroke="white"/>
<line opacity="0.05" x1="771.5" y1="3070.5" x2="-3.5" y2="3070.5" stroke="white"/>
<line opacity="0.05" x1="771.5" y1="3094.5" x2="-3.5" y2="3094.5" stroke="white"/>
<line opacity="0.05" x1="771.5" y1="3118.5" x2="-3.5" y2="3118.5" stroke="white"/>
<line opacity="0.05" x1="771.5" y1="3142.5" x2="-3.5" y2="3142.5" stroke="white"/>
<line opacity="0.05" x1="771.5" y1="3166.5" x2="-3.5" y2="3166.5" stroke="white"/>
<line opacity="0.05" x1="771.5" y1="3190.5" x2="-3.5" y2="3190.5" stroke="white"/>
<line opacity="0.05" x1="771.5" y1="3214.5" x2="-3.5" y2="3214.5" stroke="white"/>
<line opacity="0.05" x1="771.5" y1="3238.5" x2="-3.5" y2="3238.5" stroke="white"/>
<line opacity="0.05" x1="771.5" y1="3262.5" x2="-3.5" y2="3262.5" stroke="white"/>
<line opacity="0.05" x1="771.5" y1="3286.5" x2="-3.5" y2="3286.5" stroke="white"/>
<line opacity="0.05" x1="771.5" y1="3310.5" x2="-3.5" y2="3310.5" stroke="white"/>
<line opacity="0.05" x1="771.5" y1="3334.5" x2="-3.5" y2="3334.5" stroke="white"/>
<line opacity="0.05" x1="771.5" y1="3358.5" x2="-3.5" y2="3358.5" stroke="white"/>
<line opacity="0.05" x1="771.5" y1="3382.5" x2="-3.5" y2="3382.5" stroke="white"/>
<line opacity="0.05" x1="771.5" y1="3406.5" x2="-3.5" y2="3406.5" stroke="white"/>
<line opacity="0.05" x1="771.5" y1="3430.5" x2="-3.5" y2="3430.5" stroke="white"/>
<line opacity="0.05" x1="771.5" y1="3454.5" x2="-3.5" y2="3454.5" stroke="white"/>
<line opacity="0.05" x1="771.5" y1="3478.5" x2="-3.5" y2="3478.5" stroke="white"/>
<line opacity="0.05" x1="771.5" y1="3502.5" x2="-3.5" y2="3502.5" stroke="white"/>
<line opacity="0.05" x1="771.5" y1="3526.5" x2="-3.5" y2="3526.5" stroke="white"/>
<line opacity="0.05" x1="771.5" y1="3550.5" x2="-3.5" y2="3550.5" stroke="white"/>
<line opacity="0.05" x1="771.5" y1="3574.5" x2="-3.5" y2="3574.5" stroke="white"/>
<line opacity="0.05" x1="771.5" y1="3598.5" x2="-3.5" y2="3598.5" stroke="white"/>
<line opacity="0.05" x1="771.5" y1="3622.5" x2="-3.5" y2="3622.5" stroke="white"/>
<line opacity="0.05" x1="771.5" y1="3646.5" x2="-3.5" y2="3646.5" stroke="white"/>
<line opacity="0.05" x1="771.5" y1="3670.5" x2="-3.5" y2="3670.5" stroke="white"/>
<line opacity="0.05" x1="771.5" y1="3694.5" x2="-3.5" y2="3694.5" stroke="white"/>
<line opacity="0.05" x1="771.5" y1="3718.5" x2="-3.5" y2="3718.5" stroke="white"/>
<line opacity="0.05" x1="771.5" y1="3742.5" x2="-3.5" y2="3742.5" stroke="white"/>
<line opacity="0.05" x1="771.5" y1="3766.5" x2="-3.5" y2="3766.5" stroke="white"/>
<line opacity="0.05" x1="771.5" y1="3790.5" x2="-3.5" y2="3790.5" stroke="white"/>
<line opacity="0.05" x1="771.5" y1="3814.5" x2="-3.5" y2="3814.5" stroke="white"/>
<line opacity="0.05" x1="771.5" y1="3838.5" x2="-3.5" y2="3838.5" stroke="white"/>
<line opacity="0.05" x1="771.5" y1="3862.5" x2="-3.5" y2="3862.5" stroke="white"/>
<line opacity="0.05" x1="771.5" y1="3886.5" x2="-3.5" y2="3886.5" stroke="white"/>
<line opacity="0.05" x1="771.5" y1="3910.5" x2="-3.5" y2="3910.5" stroke="white"/>
<line opacity="0.05" x1="771.5" y1="3934.5" x2="-3.5" y2="3934.5" stroke="white"/>
<line opacity="0.05" x1="771.5" y1="3958.5" x2="-3.5" y2="3958.5" stroke="white"/>
<line opacity="0.05" x1="771.5" y1="3982.5" x2="-3.5" y2="3982.5" stroke="white"/>
<line opacity="0.05" x1="771.5" y1="4006.5" x2="-3.5" y2="4006.5" stroke="white"/>
<line opacity="0.05" x1="771.5" y1="4030.5" x2="-3.5" y2="4030.5" stroke="white"/>
<line opacity="0.05" x1="771.5" y1="4054.5" x2="-3.5" y2="4054.5" stroke="white"/>
<line opacity="0.05" x1="771.5" y1="4078.5" x2="-3.5" y2="4078.5" stroke="white"/>
<line opacity="0.05" x1="771.5" y1="4102.5" x2="-3.5" y2="4102.5" stroke="white"/>
<line opacity="0.05" x1="771.5" y1="4126.5" x2="-3.5" y2="4126.5" stroke="white"/>
<line opacity="0.05" x1="771.5" y1="4150.5" x2="-3.5" y2="4150.5" stroke="white"/>
<line opacity="0.05" x1="771.5" y1="4174.5" x2="-3.5" y2="4174.5" stroke="white"/>
<line opacity="0.05" x1="771.5" y1="4198.5" x2="-3.5" y2="4198.5" stroke="white"/>
<line opacity="0.05" x1="771.5" y1="4222.5" x2="-3.5" y2="4222.5" stroke="white"/>
<line opacity="0.05" x1="771.5" y1="4246.5" x2="-3.5" y2="4246.5" stroke="white"/>
<line opacity="0.05" x1="771.5" y1="4270.5" x2="-3.5" y2="4270.5" stroke="white"/>
<line opacity="0.05" x1="771.5" y1="4294.5" x2="-3.5" y2="4294.5" stroke="white"/>
<line opacity="0.05" x1="771.5" y1="4318.5" x2="-3.5" y2="4318.5" stroke="white"/>
<line opacity="0.05" x1="771.5" y1="4342.5" x2="-3.5" y2="4342.5" stroke="white"/>
<line opacity="0.05" x1="771.5" y1="4366.5" x2="-3.5" y2="4366.5" stroke="white"/>
<line opacity="0.05" x1="771.5" y1="4390.5" x2="-3.5" y2="4390.5" stroke="white"/>
<line opacity="0.05" x1="771.5" y1="4414.5" x2="-3.5" y2="4414.5" stroke="white"/>
<line opacity="0.05" x1="771.5" y1="4438.5" x2="-3.5" y2="4438.5" stroke="white"/>
<line opacity="0.05" x1="771.5" y1="4462.5" x2="-3.5" y2="4462.5" stroke="white"/>
<line opacity="0.05" x1="771.5" y1="4486.5" x2="-3.5" y2="4486.5" stroke="white"/>
<line opacity="0.05" x1="771.5" y1="4510.5" x2="-3.5" y2="4510.5" stroke="white"/>
<line opacity="0.05" x1="771.5" y1="4534.5" x2="-3.5" y2="4534.5" stroke="white"/>
<line opacity="0.05" x1="771.5" y1="4558.5" x2="-3.5" y2="4558.5" stroke="white"/>
<line opacity="0.05" x1="771.5" y1="4582.5" x2="-3.5" y2="4582.5" stroke="white"/>
<line opacity="0.05" x1="771.5" y1="4606.5" x2="-3.5" y2="4606.5" stroke="white"/>
<line opacity="0.05" x1="771.5" y1="4630.5" x2="-3.5" y2="4630.5" stroke="white"/>
<line opacity="0.05" x1="771.5" y1="4654.5" x2="-3.5" y2="4654.5" stroke="white"/>
<line opacity="0.05" x1="771.5" y1="4678.5" x2="-3.5" y2="4678.5" stroke="white"/>
<line opacity="0.05" x1="771.5" y1="4702.5" x2="-3.5" y2="4702.5" stroke="white"/>
<line opacity="0.05" x1="771.5" y1="4726.5" x2="-3.5" y2="4726.5" stroke="white"/>
<line opacity="0.05" x1="771.5" y1="4750.5" x2="-3.5" y2="4750.5" stroke="white"/>
<line opacity="0.05" x1="771.5" y1="4774.5" x2="-3.5" y2="4774.5" stroke="white"/>
<line opacity="0.05" x1="771.5" y1="4798.5" x2="-3.5" y2="4798.5" stroke="white"/>
<line opacity="0.05" x1="771.5" y1="4822.5" x2="-3.5" y2="4822.5" stroke="white"/>
<line opacity="0.05" x1="771.5" y1="4846.5" x2="-3.5" y2="4846.5" stroke="white"/>
<line opacity="0.05" x1="771.5" y1="4870.5" x2="-3.5" y2="4870.5" stroke="white"/>
<line opacity="0.05" x1="771.5" y1="4894.5" x2="-3.5" y2="4894.5" stroke="white"/>
<line opacity="0.05" x1="771.5" y1="4918.5" x2="-3.5" y2="4918.5" stroke="white"/>
<line opacity="0.05" x1="771.5" y1="4942.5" x2="-3.5" y2="4942.5" stroke="white"/>
<line opacity="0.05" x1="771.5" y1="4966.5" x2="-3.5" y2="4966.5" stroke="white"/>
<line opacity="0.05" x1="771.5" y1="4990.5" x2="-3.5" y2="4990.5" stroke="white"/>
<line opacity="0.05" x1="771.5" y1="5014.5" x2="-3.5" y2="5014.5" stroke="white"/>
<line opacity="0.05" x1="771.5" y1="5038.5" x2="-3.5" y2="5038.5" stroke="white"/>
<line opacity="0.05" x1="771.5" y1="5062.5" x2="-3.5" y2="5062.5" stroke="white"/>
<line opacity="0.05" x1="771.5" y1="5086.5" x2="-3.5" y2="5086.5" stroke="white"/>
<line opacity="0.05" x1="771.5" y1="5110.5" x2="-3.5" y2="5110.5" stroke="white"/>
<line opacity="0.05" x1="771.5" y1="5134.5" x2="-3.5" y2="5134.5" stroke="white"/>
<line opacity="0.05" x1="771.5" y1="5158.5" x2="-3.5" y2="5158.5" stroke="white"/>
<line opacity="0.05" x1="771.5" y1="5182.5" x2="-3.5" y2="5182.5" stroke="white"/>
<line opacity="0.05" x1="771.5" y1="5206.5" x2="-3.5" y2="5206.5" stroke="white"/>
<line opacity="0.05" x1="771.5" y1="5230.5" x2="-3.5" y2="5230.5" stroke="white"/>
<line opacity="0.05" x1="771.5" y1="5254.5" x2="-3.5" y2="5254.5" stroke="white"/>
<line opacity="0.05" x1="771.5" y1="5278.5" x2="-3.5" y2="5278.5" stroke="white"/>
<line opacity="0.05" x1="771.5" y1="5302.5" x2="-3.5" y2="5302.5" stroke="white"/>
<line opacity="0.05" x1="771.5" y1="5326.5" x2="-3.5" y2="5326.5" stroke="white"/>
<line opacity="0.05" x1="771.5" y1="5350.5" x2="-3.5" y2="5350.5" stroke="white"/>
<line opacity="0.05" x1="771.5" y1="5374.5" x2="-3.5" y2="5374.5" stroke="white"/>
<line opacity="0.05" x1="771.5" y1="5398.5" x2="-3.5" y2="5398.5" stroke="white"/>
<line opacity="0.05" x1="771.5" y1="5422.5" x2="-3.5" y2="5422.5" stroke="white"/>
<line opacity="0.05" x1="771.5" y1="5446.5" x2="-3.5" y2="5446.5" stroke="white"/>
<line opacity="0.05" x1="771.5" y1="5470.5" x2="-3.5" y2="5470.5" stroke="white"/>
<line opacity="0.05" x1="771.5" y1="5494.5" x2="-3.5" y2="5494.5" stroke="white"/>
<line opacity="0.05" x1="771.5" y1="5518.5" x2="-3.5" y2="5518.5" stroke="white"/>
<line opacity="0.05" x1="771.5" y1="5542.5" x2="-3.5" y2="5542.5" stroke="white"/>
<line opacity="0.05" x1="771.5" y1="5566.5" x2="-3.5" y2="5566.5" stroke="white"/>
<line opacity="0.05" x1="771.5" y1="5590.5" x2="-3.5" y2="5590.5" stroke="white"/>
<line opacity="0.05" x1="771.5" y1="5614.5" x2="-3.5" y2="5614.5" stroke="white"/>
<line opacity="0.05" x1="771.5" y1="5638.5" x2="-3.5" y2="5638.5" stroke="white"/>
<line opacity="0.05" x1="771.5" y1="5662.5" x2="-3.5" y2="5662.5" stroke="white"/>
<line opacity="0.05" x1="771.5" y1="5686.5" x2="-3.5" y2="5686.5" stroke="white"/>
<line opacity="0.05" x1="771.5" y1="5710.5" x2="-3.5" y2="5710.5" stroke="white"/>
<line opacity="0.05" x1="771.5" y1="5734.5" x2="-3.5" y2="5734.5" stroke="white"/>
<line opacity="0.05" x1="771.5" y1="5758.5" x2="-3.5" y2="5758.5" stroke="white"/>
<line opacity="0.05" x1="771.5" y1="5782.5" x2="-3.5" y2="5782.5" stroke="white"/>
<line opacity="0.05" x1="771.5" y1="5806.5" x2="-3.5" y2="5806.5" stroke="white"/>
<line opacity="0.05" x1="771.5" y1="5830.5" x2="-3.5" y2="5830.5" stroke="white"/>
<line opacity="0.05" x1="771.5" y1="5854.5" x2="-3.5" y2="5854.5" stroke="white"/>
<line opacity="0.05" x1="771.5" y1="5878.5" x2="-3.5" y2="5878.5" stroke="white"/>
<line opacity="0.05" x1="771.5" y1="5902.5" x2="-3.5" y2="5902.5" stroke="white"/>
<line opacity="0.05" x1="771.5" y1="5926.5" x2="-3.5" y2="5926.5" stroke="white"/>
<line opacity="0.05" x1="771.5" y1="5950.5" x2="-3.5" y2="5950.5" stroke="white"/>
<line opacity="0.05" x1="771.5" y1="5974.5" x2="-3.5" y2="5974.5" stroke="white"/>
<line opacity="0.05" x1="771.5" y1="5998.5" x2="-3.5" y2="5998.5" stroke="white"/>
<line opacity="0.05" x1="771.5" y1="6022.5" x2="-3.5" y2="6022.5" stroke="white"/>
<line opacity="0.05" x1="771.5" y1="6046.5" x2="-3.5" y2="6046.5" stroke="white"/>
<line opacity="0.05" x1="771.5" y1="6070.5" x2="-3.5" y2="6070.5" stroke="white"/>
<line opacity="0.05" x1="771.5" y1="6094.5" x2="-3.5" y2="6094.5" stroke="white"/>
<line opacity="0.05" x1="771.5" y1="6118.5" x2="-3.5" y2="6118.5" stroke="white"/>
<line opacity="0.05" x1="771.5" y1="6142.5" x2="-3.5" y2="6142.5" stroke="white"/>
<line opacity="0.05" x1="771.5" y1="6166.5" x2="-3.5" y2="6166.5" stroke="white"/>
<line opacity="0.05" x1="771.5" y1="6190.5" x2="-3.5" y2="6190.5" stroke="white"/>
<line opacity="0.05" x1="771.5" y1="6214.5" x2="-3.5" y2="6214.5" stroke="white"/>
<line opacity="0.05" x1="771.5" y1="6238.5" x2="-3.5" y2="6238.5" stroke="white"/>
<line opacity="0.05" x1="771.5" y1="6262.5" x2="-3.5" y2="6262.5" stroke="white"/>
<line opacity="0.05" x1="771.5" y1="6286.5" x2="-3.5" y2="6286.5" stroke="white"/>
<line opacity="0.05" x1="771.5" y1="6310.5" x2="-3.5" y2="6310.5" stroke="white"/>
<line opacity="0.05" x1="771.5" y1="6334.5" x2="-3.5" y2="6334.5" stroke="white"/>
<line opacity="0.05" x1="771.5" y1="6358.5" x2="-3.5" y2="6358.5" stroke="white"/>
<line opacity="0.05" x1="771.5" y1="6382.5" x2="-3.5" y2="6382.5" stroke="white"/>
<line opacity="0.05" x1="771.5" y1="6406.5" x2="-3.5" y2="6406.5" stroke="white"/>
<line opacity="0.05" x1="771.5" y1="6430.5" x2="-3.5" y2="6430.5" stroke="white"/>
<line opacity="0.05" x1="771.5" y1="6454.5" x2="-3.5" y2="6454.5" stroke="white"/>
<line opacity="0.05" x1="771.5" y1="6478.5" x2="-3.5" y2="6478.5" stroke="white"/>
<line opacity="0.05" x1="771.5" y1="6502.5" x2="-3.5" y2="6502.5" stroke="white"/>
<line opacity="0.05" x1="771.5" y1="6526.5" x2="-3.5" y2="6526.5" stroke="white"/>
<line opacity="0.05" x1="771.5" y1="6550.5" x2="-3.5" y2="6550.5" stroke="white"/>
<line opacity="0.05" x1="771.5" y1="6574.5" x2="-3.5" y2="6574.5" stroke="white"/>
<line opacity="0.05" x1="771.5" y1="6598.5" x2="-3.5" y2="6598.5" stroke="white"/>
<line opacity="0.05" x1="771.5" y1="6622.5" x2="-3.5" y2="6622.5" stroke="white"/>
<line opacity="0.05" x1="771.5" y1="6646.5" x2="-3.5" y2="6646.5" stroke="white"/>
<line opacity="0.05" x1="771.5" y1="6670.5" x2="-3.5" y2="6670.5" stroke="white"/>
<line opacity="0.05" x1="771.5" y1="6694.5" x2="-3.5" y2="6694.5" stroke="white"/>
<line opacity="0.05" x1="771.5" y1="6718.5" x2="-3.5" y2="6718.5" stroke="white"/>
<line opacity="0.05" x1="771.5" y1="6742.5" x2="-3.5" y2="6742.5" stroke="white"/>
<line opacity="0.05" x1="771.5" y1="6766.5" x2="-3.5" y2="6766.5" stroke="white"/>
<line opacity="0.05" x1="771.5" y1="6790.5" x2="-3.5" y2="6790.5" stroke="white"/>
<line opacity="0.05" x1="771.5" y1="6814.5" x2="-3.5" y2="6814.5" stroke="white"/>
<line opacity="0.05" x1="771.5" y1="6838.5" x2="-3.5" y2="6838.5" stroke="white"/>
<line opacity="0.05" x1="771.5" y1="6862.5" x2="-3.5" y2="6862.5" stroke="white"/>
<line opacity="0.05" x1="771.5" y1="6886.5" x2="-3.5" y2="6886.5" stroke="white"/>
<line opacity="0.05" x1="771.5" y1="6910.5" x2="-3.5" y2="6910.5" stroke="white"/>
<line opacity="0.05" x1="771.5" y1="6934.5" x2="-3.5" y2="6934.5" stroke="white"/>
<line opacity="0.05" x1="771.5" y1="6958.5" x2="-3.5" y2="6958.5" stroke="white"/>
<line opacity="0.05" x1="771.5" y1="6982.5" x2="-3.5" y2="6982.5" stroke="white"/>
<line opacity="0.05" x1="771.5" y1="7006.5" x2="-3.5" y2="7006.5" stroke="white"/>
<line opacity="0.05" x1="771.5" y1="7030.5" x2="-3.5" y2="7030.5" stroke="white"/>
<line opacity="0.05" x1="771.5" y1="7054.5" x2="-3.5" y2="7054.5" stroke="white"/>
<line opacity="0.05" x1="771.5" y1="7078.5" x2="-3.5" y2="7078.5" stroke="white"/>
<line opacity="0.05" x1="771.5" y1="7102.5" x2="-3.5" y2="7102.5" stroke="white"/>
<line opacity="0.05" x1="771.5" y1="7126.5" x2="-3.5" y2="7126.5" stroke="white"/>
<line opacity="0.05" x1="771.5" y1="7150.5" x2="-3.5" y2="7150.5" stroke="white"/>
<line opacity="0.05" x1="771.5" y1="7174.5" x2="-3.5" y2="7174.5" stroke="white"/>
<line opacity="0.05" x1="771.5" y1="7198.5" x2="-3.5" y2="7198.5" stroke="white"/>
<line opacity="0.05" x1="771.5" y1="7222.5" x2="-3.5" y2="7222.5" stroke="white"/>
<line opacity="0.05" x1="771.5" y1="7246.5" x2="-3.5" y2="7246.5" stroke="white"/>
<line opacity="0.05" x1="771.5" y1="7270.5" x2="-3.5" y2="7270.5" stroke="white"/>
<line opacity="0.05" x1="771.5" y1="7294.5" x2="-3.5" y2="7294.5" stroke="white"/>
<line opacity="0.05" x1="771.5" y1="7318.5" x2="-3.5" y2="7318.5" stroke="white"/>
<line opacity="0.05" x1="771.5" y1="7342.5" x2="-3.5" y2="7342.5" stroke="white"/>
<line opacity="0.05" x1="771.5" y1="7366.5" x2="-3.5" y2="7366.5" stroke="white"/>
<line opacity="0.05" x1="771.5" y1="7390.5" x2="-3.5" y2="7390.5" stroke="white"/>
<line opacity="0.05" x1="771.5" y1="7414.5" x2="-3.5" y2="7414.5" stroke="white"/>
<line opacity="0.05" x1="771.5" y1="7438.5" x2="-3.5" y2="7438.5" stroke="white"/>
<line opacity="0.05" x1="771.5" y1="7462.5" x2="-3.5" y2="7462.5" stroke="white"/>
<line opacity="0.05" x1="771.5" y1="7486.5" x2="-3.5" y2="7486.5" stroke="white"/>
<line opacity="0.05" x1="771.5" y1="7510.5" x2="-3.5" y2="7510.5" stroke="white"/>
<line opacity="0.05" x1="771.5" y1="7534.5" x2="-3.5" y2="7534.5" stroke="white"/>
<line opacity="0.05" x1="771.5" y1="7558.5" x2="-3.5" y2="7558.5" stroke="white"/>
<line opacity="0.05" x1="771.5" y1="7582.5" x2="-3.5" y2="7582.5" stroke="white"/>
<line opacity="0.05" x1="771.5" y1="7606.5" x2="-3.5" y2="7606.5" stroke="white"/>
<line opacity="0.05" x1="771.5" y1="7630.5" x2="-3.5" y2="7630.5" stroke="white"/>
<line opacity="0.05" x1="771.5" y1="7654.5" x2="-3.5" y2="7654.5" stroke="white"/>
<line opacity="0.05" x1="771.5" y1="7678.5" x2="-3.5" y2="7678.5" stroke="white"/>
<line opacity="0.05" x1="771.5" y1="7702.5" x2="-3.5" y2="7702.5" stroke="white"/>
<line opacity="0.05" x1="771.5" y1="7726.5" x2="-3.5" y2="7726.5" stroke="white"/>
<line opacity="0.05" x1="771.5" y1="7750.5" x2="-3.5" y2="7750.5" stroke="white"/>
<line opacity="0.05" x1="771.5" y1="7774.5" x2="-3.5" y2="7774.5" stroke="white"/>
<line opacity="0.05" x1="771.5" y1="7798.5" x2="-3.5" y2="7798.5" stroke="white"/>
<line opacity="0.05" x1="771.5" y1="7822.5" x2="-3.5" y2="7822.5" stroke="white"/>
<line opacity="0.05" x1="771.5" y1="7846.5" x2="-3.5" y2="7846.5" stroke="white"/>
<line opacity="0.05" x1="771.5" y1="7870.5" x2="-3.5" y2="7870.5" stroke="white"/>
<line opacity="0.05" x1="771.5" y1="7894.5" x2="-3.5" y2="7894.5" stroke="white"/>
<line opacity="0.05" x1="771.5" y1="7918.5" x2="-3.5" y2="7918.5" stroke="white"/>
<line opacity="0.05" x1="771.5" y1="7942.5" x2="-3.5" y2="7942.5" stroke="white"/>
<line opacity="0.05" x1="771.5" y1="7966.5" x2="-3.5" y2="7966.5" stroke="white"/>
<line opacity="0.05" x1="771.5" y1="7990.5" x2="-3.5" y2="7990.5" stroke="white"/>
<line opacity="0.05" x1="771.5" y1="8014.5" x2="-3.5" y2="8014.5" stroke="white"/>
<line opacity="0.05" x1="771.5" y1="8038.5" x2="-3.5" y2="8038.5" stroke="white"/>
<line opacity="0.05" x1="771.5" y1="8062.5" x2="-3.5" y2="8062.5" stroke="white"/>
<line opacity="0.05" x1="771.5" y1="8086.5" x2="-3.5" y2="8086.5" stroke="white"/>
<line opacity="0.05" x1="771.5" y1="8110.5" x2="-3.5" y2="8110.5" stroke="white"/>
<line opacity="0.05" x1="771.5" y1="8134.5" x2="-3.5" y2="8134.5" stroke="white"/>
<line opacity="0.05" x1="771.5" y1="8158.5" x2="-3.5" y2="8158.5" stroke="white"/>
<line opacity="0.05" x1="771.5" y1="8182.5" x2="-3.5" y2="8182.5" stroke="white"/>
<line opacity="0.05" x1="771.5" y1="8206.5" x2="-3.5" y2="8206.5" stroke="white"/>
<line opacity="0.05" x1="771.5" y1="8230.5" x2="-3.5" y2="8230.5" stroke="white"/>
<line opacity="0.05" x1="771.5" y1="8254.5" x2="-3.5" y2="8254.5" stroke="white"/>
<line opacity="0.05" x1="771.5" y1="8278.5" x2="-3.5" y2="8278.5" stroke="white"/>
<line opacity="0.05" x1="771.5" y1="8302.5" x2="-3.5" y2="8302.5" stroke="white"/>
<line opacity="0.05" x1="771.5" y1="8326.5" x2="-3.5" y2="8326.5" stroke="white"/>
<line opacity="0.05" x1="771.5" y1="8350.5" x2="-3.5" y2="8350.5" stroke="white"/>
<line opacity="0.05" x1="771.5" y1="8374.5" x2="-3.5" y2="8374.5" stroke="white"/>
<line opacity="0.05" x1="771.5" y1="8398.5" x2="-3.5" y2="8398.5" stroke="white"/>
<line opacity="0.05" x1="771.5" y1="8422.5" x2="-3.5" y2="8422.5" stroke="white"/>
<line opacity="0.05" x1="771.5" y1="8446.5" x2="-3.5" y2="8446.5" stroke="white"/>
<line opacity="0.05" x1="771.5" y1="8470.5" x2="-3.5" y2="8470.5" stroke="white"/>
<line opacity="0.05" x1="771.5" y1="8494.5" x2="-3.5" y2="8494.5" stroke="white"/>
<line opacity="0.05" x1="771.5" y1="8518.5" x2="-3.5" y2="8518.5" stroke="white"/>
<line opacity="0.05" x1="771.5" y1="8542.5" x2="-3.5" y2="8542.5" stroke="white"/>
<line opacity="0.05" x1="771.5" y1="8566.5" x2="-3.5" y2="8566.5" stroke="white"/>
<line opacity="0.05" x1="771.5" y1="8590.5" x2="-3.5" y2="8590.5" stroke="white"/>
<line opacity="0.05" x1="771.5" y1="8614.5" x2="-3.5" y2="8614.5" stroke="white"/>
<line opacity="0.05" x1="771.5" y1="8638.5" x2="-3.5" y2="8638.5" stroke="white"/>
<line opacity="0.05" x1="771.5" y1="8662.5" x2="-3.5" y2="8662.5" stroke="white"/>
<line opacity="0.05" x1="771.5" y1="8686.5" x2="-3.5" y2="8686.5" stroke="white"/>
<line opacity="0.05" x1="771.5" y1="8710.5" x2="-3.5" y2="8710.5" stroke="white"/>
<line opacity="0.05" x1="771.5" y1="8734.5" x2="-3.5" y2="8734.5" stroke="white"/>
<line opacity="0.05" x1="771.5" y1="8758.5" x2="-3.5" y2="8758.5" stroke="white"/>
<line opacity="0.05" x1="771.5" y1="8782.5" x2="-3.5" y2="8782.5" stroke="white"/>
<line opacity="0.05" x1="771.5" y1="8806.5" x2="-3.5" y2="8806.5" stroke="white"/>
<line opacity="0.05" x1="771.5" y1="8830.5" x2="-3.5" y2="8830.5" stroke="white"/>
<line opacity="0.05" x1="771.5" y1="8854.5" x2="-3.5" y2="8854.5" stroke="white"/>
<line opacity="0.05" x1="771.5" y1="8878.5" x2="-3.5" y2="8878.5" stroke="white"/>
<line opacity="0.05" x1="771.5" y1="8902.5" x2="-3.5" y2="8902.5" stroke="white"/>
<line opacity="0.05" x1="771.5" y1="8926.5" x2="-3.5" y2="8926.5" stroke="white"/>
<line opacity="0.05" x1="771.5" y1="8950.5" x2="-3.5" y2="8950.5" stroke="white"/>
<line opacity="0.05" x1="771.5" y1="8974.5" x2="-3.5" y2="8974.5" stroke="white"/>
<line opacity="0.05" x1="771.5" y1="8998.5" x2="-3.5" y2="8998.5" stroke="white"/>
<line opacity="0.05" x1="771.5" y1="9022.5" x2="-3.5" y2="9022.5" stroke="white"/>
<line opacity="0.05" x1="771.5" y1="9046.5" x2="-3.5" y2="9046.5" stroke="white"/>
<line opacity="0.05" x1="771.5" y1="9070.5" x2="-3.5" y2="9070.5" stroke="white"/>
<line opacity="0.05" x1="771.5" y1="9094.5" x2="-3.5" y2="9094.5" stroke="white"/>
<line opacity="0.05" x1="771.5" y1="9118.5" x2="-3.5" y2="9118.5" stroke="white"/>
<line opacity="0.05" x1="771.5" y1="9142.5" x2="-3.5" y2="9142.5" stroke="white"/>
<line opacity="0.05" x1="771.5" y1="9166.5" x2="-3.5" y2="9166.5" stroke="white"/>
<line opacity="0.05" x1="771.5" y1="9190.5" x2="-3.5" y2="9190.5" stroke="white"/>
<line opacity="0.05" x1="771.5" y1="9214.5" x2="-3.5" y2="9214.5" stroke="white"/>
<line opacity="0.05" x1="771.5" y1="9238.5" x2="-3.5" y2="9238.5" stroke="white"/>
<line opacity="0.05" x1="771.5" y1="9262.5" x2="-3.5" y2="9262.5" stroke="white"/>
<line opacity="0.05" x1="771.5" y1="9286.5" x2="-3.5" y2="9286.5" stroke="white"/>
<line opacity="0.05" x1="771.5" y1="9310.5" x2="-3.5" y2="9310.5" stroke="white"/>
<line opacity="0.05" x1="771.5" y1="9334.5" x2="-3.5" y2="9334.5" stroke="white"/>
<line opacity="0.05" x1="771.5" y1="9358.5" x2="-3.5" y2="9358.5" stroke="white"/>
<line opacity="0.05" x1="771.5" y1="9382.5" x2="-3.5" y2="9382.5" stroke="white"/>
<line opacity="0.05" x1="771.5" y1="9406.5" x2="-3.5" y2="9406.5" stroke="white"/>
<line opacity="0.05" x1="771.5" y1="9430.5" x2="-3.5" y2="9430.5" stroke="white"/>
<line opacity="0.05" x1="771.5" y1="9454.5" x2="-3.5" y2="9454.5" stroke="white"/>
<line opacity="0.05" x1="771.5" y1="9478.5" x2="-3.5" y2="9478.5" stroke="white"/>
<line opacity="0.05" x1="771.5" y1="9502.5" x2="-3.5" y2="9502.5" stroke="white"/>
<line opacity="0.05" x1="771.5" y1="9526.5" x2="-3.5" y2="9526.5" stroke="white"/>
<line opacity="0.05" x1="771.5" y1="9550.5" x2="-3.5" y2="9550.5" stroke="white"/>
<line opacity="0.05" x1="771.5" y1="9574.5" x2="-3.5" y2="9574.5" stroke="white"/>
<line opacity="0.05" x1="771.5" y1="9598.5" x2="-3.5" y2="9598.5" stroke="white"/>
<line opacity="0.05" x1="771.5" y1="9622.5" x2="-3.5" y2="9622.5" stroke="white"/>
<line opacity="0.05" x1="771.5" y1="9646.5" x2="-3.5" y2="9646.5" stroke="white"/>
<line opacity="0.05" x1="771.5" y1="9670.5" x2="-3.5" y2="9670.5" stroke="white"/>
<line opacity="0.05" x1="771.5" y1="9694.5" x2="-3.5" y2="9694.5" stroke="white"/>
<line opacity="0.05" x1="771.5" y1="9718.5" x2="-3.5" y2="9718.5" stroke="white"/>
<line opacity="0.05" x1="771.5" y1="9742.5" x2="-3.5" y2="9742.5" stroke="white"/>
<line opacity="0.05" x1="771.5" y1="9766.5" x2="-3.5" y2="9766.5" stroke="white"/>
<line opacity="0.05" x1="771.5" y1="9790.5" x2="-3.5" y2="9790.5" stroke="white"/>
<line opacity="0.05" x1="771.5" y1="9814.5" x2="-3.5" y2="9814.5" stroke="white"/>
<line opacity="0.05" x1="771.5" y1="9838.5" x2="-3.5" y2="9838.5" stroke="white"/>
<line opacity="0.05" x1="771.5" y1="9862.5" x2="-3.5" y2="9862.5" stroke="white"/>
<line opacity="0.05" x1="771.5" y1="9886.5" x2="-3.5" y2="9886.5" stroke="white"/>
<line opacity="0.05" x1="771.5" y1="9910.5" x2="-3.5" y2="9910.5" stroke="white"/>
<line opacity="0.05" x1="771.5" y1="9934.5" x2="-3.5" y2="9934.5" stroke="white"/>
<line opacity="0.05" x1="771.5" y1="9958.5" x2="-3.5" y2="9958.5" stroke="white"/>
<line opacity="0.05" x1="771.5" y1="9982.5" x2="-3.5" y2="9982.5" stroke="white"/>
<line opacity="0.05" x1="771.5" y1="10006.5" x2="-3.5" y2="10006.5" stroke="white"/>
<line opacity="0.05" x1="771.5" y1="10030.5" x2="-3.5" y2="10030.5" stroke="white"/>
<line opacity="0.05" x1="771.5" y1="10054.5" x2="-3.5" y2="10054.5" stroke="white"/>
<line opacity="0.05" x1="771.5" y1="10078.5" x2="-3.5" y2="10078.5" stroke="white"/>
<line opacity="0.05" x1="771.5" y1="10102.5" x2="-3.5" y2="10102.5" stroke="white"/>
<line opacity="0.05" x1="771.5" y1="10126.5" x2="-3.5" y2="10126.5" stroke="white"/>
<line opacity="0.05" x1="771.5" y1="10150.5" x2="-3.5" y2="10150.5" stroke="white"/>
<line opacity="0.05" x1="771.5" y1="10174.5" x2="-3.5" y2="10174.5" stroke="white"/>
<line opacity="0.05" x1="771.5" y1="10198.5" x2="-3.5" y2="10198.5" stroke="white"/>
<line opacity="0.05" x1="771.5" y1="10222.5" x2="-3.5" y2="10222.5" stroke="white"/>
<line opacity="0.05" x1="771.5" y1="10246.5" x2="-3.5" y2="10246.5" stroke="white"/>
<line opacity="0.05" x1="771.5" y1="10270.5" x2="-3.5" y2="10270.5" stroke="white"/>
<line opacity="0.05" x1="771.5" y1="10294.5" x2="-3.5" y2="10294.5" stroke="white"/>
<line opacity="0.05" x1="771.5" y1="10318.5" x2="-3.5" y2="10318.5" stroke="white"/>
<line opacity="0.05" x1="771.5" y1="10342.5" x2="-3.5" y2="10342.5" stroke="white"/>
<line opacity="0.05" x1="771.5" y1="10366.5" x2="-3.5" y2="10366.5" stroke="white"/>
<line opacity="0.05" x1="771.5" y1="10390.5" x2="-3.5" y2="10390.5" stroke="white"/>
<line opacity="0.05" x1="771.5" y1="10414.5" x2="-3.5" y2="10414.5" stroke="white"/>
<line opacity="0.05" x1="771.5" y1="10438.5" x2="-3.5" y2="10438.5" stroke="white"/>
<line opacity="0.05" x1="771.5" y1="10462.5" x2="-3.5" y2="10462.5" stroke="white"/>
<line opacity="0.05" x1="771.5" y1="10486.5" x2="-3.5" y2="10486.5" stroke="white"/>
<line opacity="0.05" x1="771.5" y1="10510.5" x2="-3.5" y2="10510.5" stroke="white"/>
<line opacity="0.05" x1="771.5" y1="10534.5" x2="-3.5" y2="10534.5" stroke="white"/>
<line opacity="0.05" x1="771.5" y1="10558.5" x2="-3.5" y2="10558.5" stroke="white"/>
<line opacity="0.05" x1="771.5" y1="10582.5" x2="-3.5" y2="10582.5" stroke="white"/>
<line opacity="0.05" x1="771.5" y1="10606.5" x2="-3.5" y2="10606.5" stroke="white"/>
<line opacity="0.05" x1="24.5" y1="-2.18557e-08" x2="24.5005" y2="12369" stroke="white"/>
<line opacity="0.05" x1="48.5005" y1="-8.21681e-08" x2="48.5006" y2="12369" stroke="white"/>
<line opacity="0.05" x1="72.5007" y1="-8.21681e-08" x2="72.5009" y2="12369" stroke="white"/>
<line opacity="0.05" x1="96.5007" y1="-2.50308e-07" x2="96.5008" y2="12369" stroke="white"/>
<line opacity="0.05" x1="120.501" y1="-2.50308e-07" x2="120.501" y2="12369" stroke="white"/>
<line opacity="0.05" x1="144.501" y1="-2.50308e-07" x2="144.501" y2="12369" stroke="white"/>
<line opacity="0.05" x1="168.501" y1="-2.50308e-07" x2="168.501" y2="12369" stroke="white"/>
<line opacity="0.05" x1="192.501" y1="-2.50308e-07" x2="192.501" y2="12369" stroke="white"/>
<line opacity="0.05" x1="216.501" y1="-2.50308e-07" x2="216.501" y2="12369" stroke="white"/>
<line opacity="0.05" x1="240.501" y1="-2.50308e-07" x2="240.501" y2="12369" stroke="white"/>
<line opacity="0.05" x1="264.501" y1="-2.50308e-07" x2="264.501" y2="12369" stroke="white"/>
<line opacity="0.05" x1="288.501" y1="-2.50308e-07" x2="288.501" y2="12369" stroke="white"/>
<line opacity="0.05" x1="312.501" y1="-2.50308e-07" x2="312.501" y2="12369" stroke="white"/>
<line opacity="0.05" x1="336.501" y1="-2.50308e-07" x2="336.501" y2="12369" stroke="white"/>
<line opacity="0.05" x1="360.501" y1="-2.50308e-07" x2="360.502" y2="12369" stroke="white"/>
<line opacity="0.05" x1="384.501" y1="-2.50308e-07" x2="384.502" y2="12369" stroke="white"/>
<line opacity="0.05" x1="408.501" y1="-2.50308e-07" x2="408.502" y2="12369" stroke="white"/>
<line opacity="0.05" x1="432.501" y1="-2.50308e-07" x2="432.502" y2="12369" stroke="white"/>
<line opacity="0.05" x1="456.502" y1="-2.50308e-07" x2="456.502" y2="12369" stroke="white"/>
<line opacity="0.05" x1="480.502" y1="-2.50308e-07" x2="480.502" y2="12369" stroke="white"/>
<line opacity="0.05" x1="504.502" y1="-2.50308e-07" x2="504.502" y2="12369" stroke="white"/>
<line opacity="0.05" x1="528.502" y1="-2.50308e-07" x2="528.502" y2="12369" stroke="white"/>
<line opacity="0.05" x1="552.502" y1="-2.50308e-07" x2="552.502" y2="12369" stroke="white"/>
<line opacity="0.05" x1="576.502" y1="-2.50308e-07" x2="576.502" y2="12369" stroke="white"/>
<line opacity="0.05" x1="600.502" y1="-2.50308e-07" x2="600.502" y2="12369" stroke="white"/>
<line opacity="0.05" x1="624.502" y1="-2.50308e-07" x2="624.502" y2="12369" stroke="white"/>
<line opacity="0.05" x1="648.502" y1="-2.50308e-07" x2="648.502" y2="12369" stroke="white"/>
<line opacity="0.05" x1="672.502" y1="-2.50308e-07" x2="672.502" y2="12369" stroke="white"/>
<line opacity="0.05" x1="696.502" y1="-2.50308e-07" x2="696.502" y2="12369" stroke="white"/>
<line opacity="0.05" x1="720.502" y1="-2.50308e-07" x2="720.502" y2="12369" stroke="white"/>
<line opacity="0.05" x1="744.502" y1="-2.50308e-07" x2="744.503" y2="12369" stroke="white"/>
<path d="M21 694.5L28 694.5M24.5 698L24.5 691" stroke="#2E2E2E" stroke-width="2"/>
<path d="M45 694.5L52 694.5M48.5 698L48.5 691" stroke="#2E2E2E" stroke-width="2"/>
<path d="M69 694.5L76 694.5M72.5 698L72.5 691" stroke="#2E2E2E" stroke-width="2"/>
<path d="M93 694.5L100 694.5M96.5 698L96.5 691" stroke="#2E2E2E" stroke-width="2"/>
<path d="M117 694.5L124 694.5M120.5 698L120.5 691" stroke="#2E2E2E" stroke-width="2"/>
<path d="M141 694.5L148 694.5M144.5 698L144.5 691" stroke="#2E2E2E" stroke-width="2"/>
<path d="M165 694.5L172 694.5M168.5 698L168.5 691" stroke="#2E2E2E" stroke-width="2"/>
<path d="M189 694.5L196 694.5M192.5 698L192.5 691" stroke="#2E2E2E" stroke-width="2"/>
<path d="M213 694.5L220 694.5M216.5 698L216.5 691" stroke="#2E2E2E" stroke-width="2"/>
<path d="M237 694.5L244 694.5M240.5 698L240.5 691" stroke="#2E2E2E" stroke-width="2"/>
<path d="M261 694.5L268 694.5M264.5 698L264.5 691" stroke="#2E2E2E" stroke-width="2"/>
<path d="M285 694.5L292 694.5M288.5 698L288.5 691" stroke="#2E2E2E" stroke-width="2"/>
<path d="M309 694.5L316 694.5M312.5 698L312.5 691" stroke="#2E2E2E" stroke-width="2"/>
<path d="M333 694.5L340 694.5M336.5 698L336.5 691" stroke="#2E2E2E" stroke-width="2"/>
<path d="M357 694.5L364 694.5M360.5 698L360.5 691" stroke="#2E2E2E" stroke-width="2"/>
<path d="M381 694.5L388 694.5M384.5 698L384.5 691" stroke="#2E2E2E" stroke-width="2"/>
<path d="M405 694.5L412 694.5M408.5 698L408.5 691" stroke="#2E2E2E" stroke-width="2"/>
<path d="M429 694.5L436 694.5M432.5 698L432.5 691" stroke="#2E2E2E" stroke-width="2"/>
<path d="M453 694.5L460 694.5M456.5 698L456.5 691" stroke="#2E2E2E" stroke-width="2"/>
<path d="M477 694.5L484 694.5M480.5 698L480.5 691" stroke="#2E2E2E" stroke-width="2"/>
<path d="M501 694.5L508 694.5M504.5 698L504.5 691" stroke="#2E2E2E" stroke-width="2"/>
<path d="M525 694.5L532 694.5M528.5 698L528.5 691" stroke="#2E2E2E" stroke-width="2"/>
<path d="M549 694.5L556 694.5M552.5 698L552.5 691" stroke="#2E2E2E" stroke-width="2"/>
<path d="M573 694.5L580 694.5M576.5 698L576.5 691" stroke="#2E2E2E" stroke-width="2"/>
<path d="M597 694.5L604 694.5M600.5 698L600.5 691" stroke="#2E2E2E" stroke-width="2"/>
<path d="M621 694.5L628 694.5M624.5 698L624.5 691" stroke="#2E2E2E" stroke-width="2"/>
<path d="M21 2302.5L28 2302.5M24.5 2306L24.5 2299" stroke="#2E2E2E" stroke-width="2"/>
<path d="M21 2326.5L28 2326.5M24.5 2330L24.5 2323" stroke="#2E2E2E" stroke-width="2"/>
<path d="M21 2350.5L28 2350.5M24.5 2354L24.5 2347" stroke="#2E2E2E" stroke-width="2"/>
<path d="M21 2374.5L28 2374.5M24.5 2378L24.5 2371" stroke="#2E2E2E" stroke-width="2"/>
<path d="M21 2398.5L28 2398.5M24.5 2402L24.5 2395" stroke="#2E2E2E" stroke-width="2"/>
<path d="M21 2422.5L28 2422.5M24.5 2426L24.5 2419" stroke="#2E2E2E" stroke-width="2"/>
<path d="M21 2446.5L28 2446.5M24.5 2450L24.5 2443" stroke="#2E2E2E" stroke-width="2"/>
<path d="M21 2470.5L28 2470.5M24.5 2474L24.5 2467" stroke="#2E2E2E" stroke-width="2"/>
<path d="M21 2494.5L28 2494.5M24.5 2498L24.5 2491" stroke="#2E2E2E" stroke-width="2"/>
<path d="M21 2518.5L28 2518.5M24.5 2522L24.5 2515" stroke="#2E2E2E" stroke-width="2"/>
<path d="M21 2542.5L28 2542.5M24.5 2546L24.5 2539" stroke="#2E2E2E" stroke-width="2"/>
<path d="M21 2566.5L28 2566.5M24.5 2570L24.5 2563" stroke="#2E2E2E" stroke-width="2"/>
<path d="M21 2590.5L28 2590.5M24.5 2594L24.5 2587" stroke="#2E2E2E" stroke-width="2"/>
<path d="M21 2614.5L28 2614.5M24.5 2618L24.5 2611" stroke="#2E2E2E" stroke-width="2"/>
<path d="M21 2638.5L28 2638.5M24.5 2642L24.5 2635" stroke="#2E2E2E" stroke-width="2"/>
<path d="M21 2662.5L28 2662.5M24.5 2666L24.5 2659" stroke="#2E2E2E" stroke-width="2"/>
<path d="M21 2686.5L28 2686.5M24.5 2690L24.5 2683" stroke="#2E2E2E" stroke-width="2"/>
<path d="M21 2710.5L28 2710.5M24.5 2714L24.5 2707" stroke="#2E2E2E" stroke-width="2"/>
<path d="M21 2734.5L28 2734.5M24.5 2738L24.5 2731" stroke="#2E2E2E" stroke-width="2"/>
<path d="M21 2758.5L28 2758.5M24.5 2762L24.5 2755" stroke="#2E2E2E" stroke-width="2"/>
<path d="M21 2782.5L28 2782.5M24.5 2786L24.5 2779" stroke="#2E2E2E" stroke-width="2"/>
<path d="M21 2806.5L28 2806.5M24.5 2810L24.5 2803" stroke="#2E2E2E" stroke-width="2"/>
<path d="M21 2830.5L28 2830.5M24.5 2834L24.5 2827" stroke="#2E2E2E" stroke-width="2"/>
<path d="M21 2854.5L28 2854.5M24.5 2858L24.5 2851" stroke="#2E2E2E" stroke-width="2"/>
<path d="M21 2878.5L28 2878.5M24.5 2882L24.5 2875" stroke="#2E2E2E" stroke-width="2"/>
<path d="M21 2902.5L28 2902.5M24.5 2906L24.5 2899" stroke="#2E2E2E" stroke-width="2"/>
<path d="M117 694.5L124 694.5M120.5 698L120.5 691" stroke="white" stroke-width="2"/>
<path d="M117 1510.5L124 1510.5M120.5 1514L120.5 1507" stroke="white" stroke-width="2"/>
<path d="M117 2470.5L124 2470.5M120.5 2474L120.5 2467" stroke="white" stroke-width="2"/>
<path d="M117 2974.5L124 2974.5M120.5 2978L120.5 2971" stroke="white" stroke-width="2"/>
<path d="M117 3598.5L124 3598.5M120.5 3602L120.5 3595" stroke="white" stroke-width="2"/>
<path d="M117 4525.5L124 4525.5M120.5 4529L120.5 4522" stroke="white" stroke-width="2"/>
<path d="M117 6982.5L124 6982.5M120.5 6986L120.5 6979" stroke="white" stroke-width="2"/>
<path d="M117 6406.5L124 6406.5M120.5 6410L120.5 6403" stroke="white" stroke-width="2"/>
<path d="M117 8206.5L124 8206.5M120.5 8210L120.5 8203" stroke="white" stroke-width="2"/>
<rect x="502" y="758" width="5" height="56" fill="#3F3F3F"/>
<rect x="406" y="1471" width="5" height="56" fill="#3F3F3F"/>
<rect x="669" y="2463" width="5" height="18" fill="#3F3F3F"/>
<rect x="550" y="2916" width="5" height="45" fill="#3F3F3F"/>
<rect x="430" y="3656" width="5" height="37" fill="#3F3F3F"/>
<rect x="622" y="4526" width="5" height="21" fill="#3F3F3F"/>
<rect x="622" y="6302" width="5" height="78" fill="#3F3F3F"/>
<rect width="5" height="30" transform="matrix(1 0 0 -1 622 7012)" fill="#3F3F3F"/>
<rect x="742" y="2571" width="5" height="62" fill="#3F3F3F"/>
</g>
<defs>
<clipPath id="clip0_70_2581">
<rect width="768" height="10615" fill="white"/>
</clipPath>
</defs>
</svg>
