<svg width="72" height="72" viewBox="0 0 72 72" fill="none" xmlns="http://www.w3.org/2000/svg">
<path d="M35.9997 4.30322V33.2495C33.5847 33.6158 31.6797 35.6308 31.6797 38.1432C31.6797 40.9089 33.9525 43.1832 36.7197 43.1832H62.6397C65.4063 43.1832 67.6797 40.9097 67.6797 38.1432V4.30322H35.9997ZM30.2622 4.70822C30.1803 4.70781 30.0984 4.7144 30.0176 4.72791C23.1393 5.7955 18.43 8.89747 15.4404 13.1007C12.5225 17.203 11.2394 22.2601 10.6451 27.4557L4.81193 37.5076L4.80631 37.5188C3.81369 39.3051 4.44695 41.6361 6.24912 42.6376L6.27725 42.6517L10.6788 44.8538L12.0963 55.2348L12.0991 55.2517C12.7167 59.1122 16.1011 62.052 20.0219 61.8948L19.9629 61.8976L24.4797 61.9004V66.2232V67.6632H25.6751C25.8342 67.6902 25.9968 67.6902 26.156 67.6632H27.3597V64.7832V59.0232L19.9376 59.0176H19.9066C17.5087 59.1138 15.3358 57.2543 14.9426 54.796L14.9454 54.8298L13.3282 42.9582L7.64975 40.1176C7.17927 39.8545 7.05239 39.4073 7.3235 38.9195L13.4013 28.4429L13.4351 28.1363C13.9793 23.0757 15.224 18.3744 17.7888 14.7685C20.3536 11.1627 24.2031 8.54561 30.4619 7.57416C30.8224 7.5229 31.1501 7.337 31.379 7.05389C31.6079 6.77078 31.7211 6.41147 31.6958 6.04826C31.6705 5.68505 31.5086 5.34491 31.2426 5.09628C30.9766 4.84766 30.6263 4.709 30.2622 4.70822ZM38.8797 7.18322H64.7997V38.1432C64.7997 39.354 63.8505 40.3032 62.6397 40.3032V40.3004C61.4489 40.3018 60.4797 39.3341 60.4797 38.1432C60.4797 37.2058 61.0831 36.4135 61.9198 36.1154V33.1735V33.1032H38.8797V7.18322ZM54.7197 12.9432L56.5816 14.8051L53.2797 18.107L48.9597 13.787L43.6216 19.1251L45.6579 21.1613L48.9597 17.8595L53.2797 22.1795L58.6179 16.8413L60.4797 18.7032V12.9432H54.7197ZM43.1997 25.9032V28.7832H60.4797V25.9032H43.1997ZM36.7197 35.9832H58.1116C57.7951 36.6387 57.5998 37.3632 57.5998 38.1404C57.5998 38.9172 57.7908 39.6454 58.106 40.3032H36.7197C35.5097 40.3032 34.5597 39.352 34.5597 38.1432C34.5597 36.9331 35.511 35.9832 36.7197 35.9832ZM54.9532 46.0463C54.6951 46.0443 54.4413 46.1115 54.2181 46.2412C53.995 46.3708 53.8108 46.558 53.6847 46.7832C51.6618 50.29 50.3997 54.2524 50.3997 58.4382V64.7832V66.2232V67.6632H51.5979C51.7534 67.6889 51.9121 67.6889 52.0676 67.6632H53.2797V66.2232V64.7832V58.4382C53.2797 54.8307 54.3662 51.3664 56.1794 48.2232C56.3091 48.0054 56.379 47.7572 56.3821 47.5038C56.3851 47.2503 56.3212 47.0005 56.1968 46.7796C56.0724 46.5588 55.8919 46.3747 55.6735 46.2459C55.4552 46.1171 55.2067 46.0483 54.9532 46.0463Z" fill="#ECC06A"/>
</svg>
