<svg width="66" height="67" viewBox="0 0 66 67" fill="none" xmlns="http://www.w3.org/2000/svg">
<path d="M25.36 0.440002C23.4981 0.440002 21.9119 1.655 21.31 3.32H14.155C14.0088 3.28063 13.8569 3.26375 13.705 3.275C13.66 3.28625 13.615 3.30313 13.57 3.32H5.20001C2.83188 3.32 0.880005 5.27188 0.880005 7.64V58.04C0.880005 60.4081 2.83188 62.36 5.20001 62.36H31.12C31.12 64.7281 33.0719 66.68 35.44 66.68H61.36C63.7281 66.68 65.68 64.7281 65.68 62.36V29.24C65.68 26.8719 63.7281 24.92 61.36 24.92H49.84V7.64C49.84 5.27188 47.8881 3.32 45.52 3.32H29.41C28.8081 1.655 27.2219 0.440002 25.36 0.440002ZM25.36 3.32C26.08 3.32 26.6313 3.815 26.755 4.49C26.7213 4.67 26.7213 4.85 26.755 5.03C26.6313 5.705 26.08 6.2 25.36 6.2C24.595 6.2 23.9875 5.64313 23.92 4.895C23.92 4.85 23.92 4.805 23.92 4.76C23.92 3.95 24.55 3.32 25.36 3.32ZM5.20001 6.2H12.4V10.52C12.4 12.8881 14.3519 14.84 16.72 14.84H34C36.3681 14.84 38.32 12.8881 38.32 10.52V6.2H45.52C46.3356 6.2 46.96 6.82438 46.96 7.64V24.92H35.44C33.0719 24.92 31.12 26.8719 31.12 29.24V59.48H5.20001C4.38438 59.48 3.76 58.8556 3.76 58.04V7.64C3.76 6.82438 4.38438 6.2 5.20001 6.2ZM15.28 6.2H21.31C21.9119 7.865 23.4981 9.08 25.36 9.08C27.2219 9.08 28.8081 7.865 29.41 6.2H35.44V10.52C35.44 11.3356 34.8156 11.96 34 11.96H16.72C15.9044 11.96 15.28 11.3356 15.28 10.52V6.2ZM16.72 20.6V29.24H13.84V24.92H10.96V29.24H8.08001V32.12H28.24V29.24H25.36V23.48H22.48V29.24H19.6V20.6H16.72ZM35.44 27.8H61.36C62.1756 27.8 62.8 28.4244 62.8 29.24V62.36C62.8 63.1756 62.1756 63.8 61.36 63.8H35.44C34.6244 63.8 34 63.1756 34 62.36V61.19C34.0394 60.9987 34.0394 60.7962 34 60.605V29.24C34 28.4244 34.6244 27.8 35.44 27.8ZM38.05 30.68C37.3638 30.8094 36.8688 31.4169 36.88 32.12V37.88C36.88 38.6731 37.5269 39.32 38.32 39.32H58.48C59.2731 39.32 59.92 38.6731 59.92 37.88V32.12C59.92 31.3269 59.2731 30.68 58.48 30.68H38.32C38.275 30.68 38.23 30.68 38.185 30.68C38.14 30.68 38.095 30.68 38.05 30.68ZM39.76 33.56H57.04V36.44H39.76V33.56ZM16.72 37.88C11.9669 37.88 8.08001 41.7669 8.08001 46.52C8.08001 51.2731 11.9669 55.16 16.72 55.16C21.4731 55.16 25.36 51.2731 25.36 46.52C25.36 41.7669 21.4731 37.88 16.72 37.88ZM16.72 40.76V46.52H22.48C22.48 49.7206 19.9206 52.28 16.72 52.28C13.5194 52.28 10.96 49.7206 10.96 46.52C10.96 43.3194 13.5194 40.76 16.72 40.76ZM38.32 42.2C37.5269 42.2 36.88 42.8469 36.88 43.64V45.08C36.88 45.8731 37.5269 46.52 38.32 46.52H41.2C41.9931 46.52 42.64 45.8731 42.64 45.08V43.64C42.64 42.8469 41.9931 42.2 41.2 42.2H38.32ZM46.96 42.2C46.1669 42.2 45.52 42.8469 45.52 43.64V45.08C45.52 45.8731 46.1669 46.52 46.96 46.52H49.84C50.6331 46.52 51.28 45.8731 51.28 45.08V43.64C51.28 42.8469 50.6331 42.2 49.84 42.2H46.96ZM55.6 42.2C54.8069 42.2 54.16 42.8469 54.16 43.64V45.08C54.16 45.8731 54.8069 46.52 55.6 46.52H58.48C59.2731 46.52 59.92 45.8731 59.92 45.08V43.64C59.92 42.8469 59.2731 42.2 58.48 42.2H55.6ZM38.32 49.4C37.5269 49.4 36.88 50.0469 36.88 50.84V52.28C36.88 53.0731 37.5269 53.72 38.32 53.72H41.2C41.9931 53.72 42.64 53.0731 42.64 52.28V50.84C42.64 50.0469 41.9931 49.4 41.2 49.4H38.32ZM46.96 49.4C46.1669 49.4 45.52 50.0469 45.52 50.84V52.28C45.52 53.0731 46.1669 53.72 46.96 53.72H49.84C50.6331 53.72 51.28 53.0731 51.28 52.28V50.84C51.28 50.0469 50.6331 49.4 49.84 49.4H46.96ZM55.6 49.4C54.8069 49.4 54.16 50.0469 54.16 50.84V52.28C54.16 53.0731 54.8069 53.72 55.6 53.72H58.48C59.2731 53.72 59.92 53.0731 59.92 52.28V50.84C59.92 50.0469 59.2731 49.4 58.48 49.4H55.6ZM38.32 56.6C37.5269 56.6 36.88 57.2469 36.88 58.04V59.48C36.88 60.2731 37.5269 60.92 38.32 60.92H41.2C41.9931 60.92 42.64 60.2731 42.64 59.48V58.04C42.64 57.2469 41.9931 56.6 41.2 56.6H38.32ZM46.96 56.6C46.1669 56.6 45.52 57.2469 45.52 58.04V59.48C45.52 60.2731 46.1669 60.92 46.96 60.92H49.84C50.6331 60.92 51.28 60.2731 51.28 59.48V58.04C51.28 57.2469 50.6331 56.6 49.84 56.6H46.96ZM55.6 56.6C54.8069 56.6 54.16 57.2469 54.16 58.04V59.48C54.16 60.2731 54.8069 60.92 55.6 60.92H58.48C59.2731 60.92 59.92 60.2731 59.92 59.48V58.04C59.92 57.2469 59.2731 56.6 58.48 56.6H55.6Z" fill="#ECC06A"/>
</svg>
