<svg width="72" height="72" viewBox="0 0 72 72" fill="none" xmlns="http://www.w3.org/2000/svg">
<g clip-path="url(#clip0_70_3541)">
<path d="M45.8546 -3.95998e-06C45.4946 0.0618711 45.174 0.253121 44.9546 0.539996L40.6346 5.94C39.9484 6.80062 38.9359 7.3575 37.8446 7.515L37.4396 7.605C32.3434 8.33062 28.0121 11.7337 26.0996 16.515L25.1996 18.72H23.3546C19.9852 18.72 16.8071 20.4187 14.9396 23.22L9.04461 32.085L0.629614 37.665C0.134614 38.0025 -0.096011 38.6156 0.044614 39.195L5.80461 65.115C5.95086 65.7675 6.53024 66.2344 7.19961 66.24H14.6246C15.2659 68.715 17.4934 70.56 20.1596 70.56C21.8865 70.56 23.4221 69.7556 24.4796 68.535C25.5371 69.7556 27.0727 70.56 28.7996 70.56C30.5265 70.56 32.0621 69.7556 33.1196 68.535C34.1771 69.7556 35.7127 70.56 37.4396 70.56C39.1665 70.56 40.7021 69.7556 41.7596 68.535C42.8171 69.7556 44.3527 70.56 46.0796 70.56C48.7459 70.56 50.9734 68.715 51.6146 66.24H58.3196C61.6665 66.24 64.5127 63.6356 64.7996 60.3C64.9684 58.3537 64.2202 56.5537 62.9546 55.26C64.7152 54.2419 65.9809 52.4531 66.1946 50.31C66.3915 48.3412 65.6602 46.4962 64.3946 45.18C66.1384 44.1675 67.4096 42.3956 67.6346 40.275C67.8484 38.2837 67.1227 36.4275 65.8346 35.1C67.5952 34.0931 68.8496 32.3325 69.0746 30.195C69.3615 27.4387 67.8259 24.9356 65.5196 23.76L71.7746 13.725C71.994 13.3762 72.0559 12.9544 71.949 12.5606C71.8365 12.1612 71.5609 11.835 71.1896 11.655L46.7096 0.134996C46.4452 0.00562104 46.1471 -0.045004 45.8546 -3.95998e-06ZM46.4846 3.24L68.4896 13.59L62.5496 23.04H36.8996C36.309 23.0344 35.769 23.3887 35.5496 23.94L30.6446 36.225C29.7502 38.4581 27.2527 39.5044 25.0196 38.61C22.7865 37.7156 21.7402 35.2181 22.6346 32.985L28.7996 17.55C30.3296 13.725 33.7665 11.025 37.8446 10.44L38.2496 10.395C40.0609 10.1362 41.7427 9.16875 42.8846 7.74L46.4846 3.24ZM23.3546 21.6H24.0746L19.9346 31.95C18.4609 35.6287 20.2665 39.8362 23.9396 41.31C27.6184 42.7837 31.8259 40.9331 33.2996 37.26L37.8446 25.92H62.6396C64.7996 25.92 66.4646 27.7312 66.2396 29.88C66.0484 31.725 64.4959 33.12 62.6396 33.12H60.4796C60.4346 33.12 60.3896 33.12 60.3446 33.12C60.2546 33.1256 60.1646 33.1425 60.0746 33.165C60.0296 33.1762 59.9846 33.1931 59.9396 33.21C59.7596 33.2662 59.5909 33.3562 59.4446 33.48C59.4446 33.4969 59.4446 33.5081 59.4446 33.525C59.3771 33.5812 59.3209 33.6375 59.2646 33.705C59.2646 33.7219 59.2646 33.7331 59.2646 33.75C59.2309 33.7781 59.2027 33.8062 59.1746 33.84C59.1746 33.8569 59.1746 33.8681 59.1746 33.885C58.989 34.2112 58.944 34.5994 59.0396 34.965C59.0565 34.9819 59.0677 34.9931 59.0846 35.01C59.0846 35.0381 59.0846 35.0719 59.0846 35.1C59.1015 35.1169 59.1127 35.1281 59.1296 35.145C59.1577 35.2069 59.1859 35.2687 59.2196 35.325C59.2365 35.3419 59.2477 35.3531 59.2646 35.37C59.2759 35.3981 59.2927 35.4319 59.3096 35.46C59.3265 35.4769 59.3377 35.4881 59.3546 35.505C59.4559 35.6287 59.5796 35.7356 59.7146 35.82C59.7427 35.8369 59.7765 35.8537 59.8046 35.865C59.8215 35.8819 59.8327 35.8931 59.8496 35.91C59.8777 35.91 59.9115 35.91 59.9396 35.91C59.9565 35.9269 59.9677 35.9381 59.9846 35.955C60.0127 35.955 60.0465 35.955 60.0746 35.955C60.0915 35.955 60.1027 35.955 60.1196 35.955C60.2096 35.9775 60.2996 35.9944 60.3896 36C60.4065 36 60.4177 36 60.4346 36C60.4515 36 60.4627 36 60.4796 36H61.1996C63.3596 36 64.9796 37.8112 64.7546 39.96C64.5577 41.805 63.0502 43.2 61.1996 43.2H59.0396C58.9946 43.2 58.9496 43.2 58.9046 43.2C58.8146 43.2056 58.7246 43.2225 58.6346 43.245C58.5896 43.2562 58.5446 43.2731 58.4996 43.29C58.3196 43.3462 58.1509 43.4362 58.0046 43.56C58.0046 43.5769 58.0046 43.5881 58.0046 43.605C57.9371 43.6612 57.8809 43.7175 57.8246 43.785C57.8246 43.8019 57.8246 43.8131 57.8246 43.83C57.7909 43.8581 57.7627 43.8862 57.7346 43.92C57.7346 43.9369 57.7346 43.9481 57.7346 43.965C57.549 44.2912 57.504 44.6794 57.5996 45.045C57.6165 45.0619 57.6277 45.0731 57.6446 45.09C57.6446 45.1181 57.6446 45.1519 57.6446 45.18C57.6615 45.1969 57.6727 45.2081 57.6896 45.225C57.7177 45.2869 57.7459 45.3487 57.7796 45.405C57.7965 45.4219 57.8077 45.4331 57.8246 45.45C57.8359 45.4781 57.8527 45.5119 57.8696 45.54C57.8865 45.5569 57.8977 45.5681 57.9146 45.585C58.0159 45.7087 58.1396 45.8156 58.2746 45.9C58.3027 45.9169 58.3365 45.9337 58.3646 45.945C58.3815 45.9619 58.3927 45.9731 58.4096 45.99C58.4377 45.99 58.4715 45.99 58.4996 45.99C58.5165 46.0069 58.5277 46.0181 58.5446 46.035C58.5727 46.035 58.6065 46.035 58.6346 46.035C58.6515 46.035 58.6627 46.035 58.6796 46.035C58.7696 46.0575 58.8596 46.0744 58.9496 46.08C58.9665 46.08 58.9777 46.08 58.9946 46.08C59.0115 46.08 59.0227 46.08 59.0396 46.08H59.7596C61.914 46.08 63.5284 47.8969 63.3146 50.04C63.129 51.8906 61.6215 53.28 59.7596 53.28H57.1946C57.1496 53.28 57.1046 53.28 57.0596 53.28C56.2665 53.3194 55.6477 53.9944 55.6871 54.7875C55.7265 55.5806 56.4015 56.1994 57.1946 56.16H58.3196C60.4515 56.16 62.1052 57.9487 61.9196 60.075C61.7565 61.9481 60.1984 63.36 58.3196 63.36H51.8396V61.92C51.8396 58.7531 49.2465 56.16 46.0796 56.16C44.3527 56.16 42.8171 56.9644 41.7596 58.185C40.7021 56.9644 39.1665 56.16 37.4396 56.16C35.7127 56.16 34.1771 56.9644 33.1196 58.185C32.0621 56.9644 30.5265 56.16 28.7996 56.16C27.0727 56.16 25.5371 56.9644 24.4796 58.185C23.4221 56.9644 21.8865 56.16 20.1596 56.16C16.9927 56.16 14.3996 58.7531 14.3996 61.92V63.36H8.32461L3.05961 39.555L10.8896 34.335C11.0527 34.2281 11.1877 34.0931 11.2946 33.93L17.3696 24.795C18.7027 22.7925 20.9471 21.6 23.3546 21.6ZM20.1596 59.04C21.7684 59.04 23.0396 60.3112 23.0396 61.92V64.8C23.0396 66.4087 21.7684 67.68 20.1596 67.68C18.6465 67.68 17.4146 66.5437 17.2796 65.07C17.319 64.8787 17.319 64.6762 17.2796 64.485V61.92C17.2796 60.3112 18.5509 59.04 20.1596 59.04ZM28.7996 59.04C30.4084 59.04 31.6796 60.3112 31.6796 61.92V64.8C31.6796 66.4087 30.4084 67.68 28.7996 67.68C27.1909 67.68 25.9196 66.4087 25.9196 64.8V61.92C25.9196 60.3112 27.1909 59.04 28.7996 59.04ZM37.4396 59.04C39.0484 59.04 40.3196 60.3112 40.3196 61.92V64.8C40.3196 66.4087 39.0484 67.68 37.4396 67.68C35.8309 67.68 34.5596 66.4087 34.5596 64.8V61.92C34.5596 60.3112 35.8309 59.04 37.4396 59.04ZM46.0796 59.04C47.6884 59.04 48.9596 60.3112 48.9596 61.92V64.53C48.9596 64.575 48.9596 64.62 48.9596 64.665V64.8C48.9484 64.9069 48.9484 65.0081 48.9596 65.115C48.8021 66.5719 47.5815 67.68 46.0796 67.68C44.4709 67.68 43.1996 66.4087 43.1996 64.8V61.92C43.1996 60.3112 44.4709 59.04 46.0796 59.04Z" fill="#ECC06A"/>
</g>
<defs>
<clipPath id="clip0_70_3541">
<rect width="72" height="72" fill="white"/>
</clipPath>
</defs>
</svg>
