<svg width="68" height="68" viewBox="0 0 68 68" fill="none" xmlns="http://www.w3.org/2000/svg">
<path d="M15.28 0.880005C11.32 0.880005 8.07995 4.12 8.07995 8.08C8.07995 12.04 11.32 15.28 15.28 15.28C19.24 15.28 22.4799 12.04 22.4799 8.08C22.4799 4.12 19.24 0.880005 15.28 0.880005ZM39.7599 0.880005V3.76H25.36V6.64H64.2399V44.08H26.7999V46.96H39.04L31.1199 62.8H34L41.2 48.4L48.3999 62.8H51.2799L43.36 46.96H65.6799C66.4731 46.96 67.1199 46.3131 67.1199 45.52V5.2C67.1199 4.40688 66.4731 3.76 65.6799 3.76H42.6399V0.880005H39.7599ZM15.28 3.76C17.6818 3.76 19.6 5.67813 19.6 8.08C19.6 10.4819 17.6818 12.4 15.28 12.4C12.8781 12.4 10.96 10.4819 10.96 8.08C10.96 5.67813 12.8781 3.76 15.28 3.76ZM8.79995 16.72C4.44058 16.72 0.879951 20.2806 0.879951 24.64V42.37C0.874326 42.4319 0.874326 42.4881 0.879951 42.55V42.64C0.874326 42.775 0.891202 42.9156 0.924951 43.045C1.1387 45.2219 2.97245 46.96 5.19995 46.96C5.7062 46.96 6.18433 46.8531 6.63995 46.69V62.08C6.63995 64.8475 8.91245 67.12 11.68 67.12C13.0862 67.12 14.3631 66.5294 15.28 65.59C16.1968 66.5294 17.4737 67.12 18.8799 67.12C21.6474 67.12 23.92 64.8475 23.92 62.08V25.36H39.7599C42.1281 25.36 44.0799 23.4081 44.0799 21.04C44.0799 18.7 42.1787 16.7706 39.8499 16.72C39.8218 16.72 39.7881 16.72 39.7599 16.72H19.6C19.0431 16.7144 18.5368 17.0294 18.295 17.53L15.28 23.56L12.265 17.53C12.0231 17.0294 11.5168 16.7144 10.96 16.72H8.79995ZM8.79995 19.6H10.06L13.975 27.43C14.2112 27.9363 14.7231 28.2625 15.28 28.2625C15.8368 28.2625 16.3487 27.9363 16.585 27.43L20.5 19.6H39.7599C39.805 19.6 39.8499 19.6 39.895 19.6C40.6431 19.6675 41.2 20.275 41.2 21.04C41.2 21.8556 40.5756 22.48 39.7599 22.48H22.4799C21.6868 22.48 21.0399 23.1269 21.0399 23.92V62.08C21.0399 63.2894 20.0893 64.24 18.8799 64.24C17.7437 64.24 16.8268 63.4075 16.72 62.305V61.945C16.72 61.9 16.72 61.855 16.72 61.81V46.96C16.7368 46.5438 16.5681 46.1444 16.27 45.8631C15.9662 45.5763 15.5556 45.4356 15.145 45.475C15.0831 45.4863 15.0212 45.5031 14.965 45.52C14.2956 45.6719 13.8231 46.2738 13.84 46.96V61.81C13.8343 61.8719 13.8343 61.9281 13.84 61.99V62.305C13.7331 63.4075 12.8162 64.24 11.68 64.24C10.4706 64.24 9.51995 63.2894 9.51995 62.08V28.24C9.5312 27.7956 9.33433 27.3738 8.9912 27.0925C8.6537 26.8113 8.19808 26.7044 7.76495 26.8C7.09558 26.9519 6.62308 27.5538 6.63995 28.24V42.415C6.63995 42.46 6.63995 42.505 6.63995 42.55V42.64C6.63995 43.4556 6.01558 44.08 5.19995 44.08C4.41808 44.08 3.80495 43.5006 3.75995 42.73C3.75995 42.7019 3.75995 42.6681 3.75995 42.64C3.7712 42.55 3.7712 42.46 3.75995 42.37V24.64C3.75995 21.8388 5.9987 19.6 8.79995 19.6Z" fill="#ECC06A"/>
</svg>
