<svg width="202" height="80" viewBox="0 0 202 80" fill="none" xmlns="http://www.w3.org/2000/svg">
<g clip-path="url(#clip0_70_1816)">
<g opacity="0.4">
<path d="M107.297 35.6993C108.936 36.2983 110.45 37.1979 111.761 38.3522C113.007 39.5598 114.022 40.9845 114.759 42.5567C115.48 44.2309 115.84 46.0391 115.815 47.8627C115.84 49.6659 115.48 51.4536 114.759 53.1057C114.028 54.6816 112.992 56.096 111.711 57.2662C110.43 58.4362 108.93 59.3388 107.297 59.9211C105.472 60.5946 103.541 60.9351 101.596 60.9259H81.0728V19.0791H112.227V27.2147H89.6494V34.7574H101.592C103.534 34.7294 105.466 35.0483 107.297 35.6993ZM105.88 43.9442C104.611 42.9974 103.055 42.5179 101.475 42.5861H89.6494V53.0258H101.475C103.054 53.0932 104.609 52.6153 105.88 51.6719C107 50.789 107.528 49.5698 107.528 47.8417C107.528 46.1137 107 44.8355 105.88 43.9442ZM131.719 60.9259H123.511V19.0791H131.719V36.8218L146.311 19.0791H156.514L139.872 39.1763L159.993 60.9259H149.279L131.719 41.9472V60.9259ZM172.59 59.9211C167.416 57.7776 163.298 53.668 161.133 48.4893C160.019 45.7999 159.459 42.9126 159.486 40.0006C159.456 37.1484 159.992 34.3186 161.061 31.6757C162.131 29.0326 163.712 26.6289 165.715 24.6039C167.686 22.6369 170.021 21.0758 172.59 20.0084C175.368 18.8726 178.346 18.3106 181.347 18.3561C183.66 18.3488 185.96 18.7063 188.162 19.4156C190.294 20.1597 192.311 21.1984 194.156 22.5016C195.913 23.8327 197.458 25.4234 198.739 27.219C200.041 29.0746 200.996 31.1515 201.56 33.3492H192.337C191.937 32.3016 191.339 31.3412 190.577 30.5195C189.802 29.6828 188.91 28.9646 187.928 28.3879C186.942 27.8371 185.898 27.4026 184.813 27.0928C183.683 26.7882 182.517 26.6299 181.347 26.622C179.497 26.6021 177.66 26.9419 175.938 27.6226C174.345 28.2831 172.907 29.2665 171.709 30.5111C170.549 31.7403 169.631 33.1801 169.005 34.7534C168.361 36.4257 168.046 38.2079 168.08 40.0006C168.051 41.7941 168.369 43.5761 169.018 45.2476C169.644 46.821 170.56 48.2607 171.722 49.4899C172.905 50.7355 174.35 51.7018 175.951 52.3196C177.66 53.0482 179.502 53.4092 181.358 53.379C182.53 53.3711 183.695 53.213 184.825 52.9082C185.922 52.6036 186.97 52.148 187.941 51.5543C188.931 51.0201 189.826 50.3222 190.585 49.4899C191.347 48.6683 191.945 47.7078 192.347 46.6604H201.568C201.004 48.8394 200.048 50.8968 198.747 52.7315C197.482 54.5403 195.934 56.1331 194.164 57.4489C192.347 58.7898 190.321 59.825 188.171 60.5139C185.978 61.2709 183.673 61.6491 181.355 61.6324C178.348 61.6599 175.366 61.0778 172.59 59.9211Z" fill="white"/>
<mask id="mask0_70_1816" style="mask-type:alpha" maskUnits="userSpaceOnUse" x="0" y="8" width="65" height="64">
<path d="M32.5524 72C50.1727 72 64.4567 57.6731 64.4567 40C64.4567 22.3269 50.1727 8 32.5524 8C14.9321 8 0.64801 22.3269 0.64801 40C0.64801 57.6731 14.9321 72 32.5524 72Z" fill="white"/>
</mask>
<g mask="url(#mask0_70_1816)">
<path d="M61.082 56.0943C69.9099 40.406 64.1266 20.3632 48.1646 11.3275C32.2028 2.29167 12.1066 7.68457 3.27874 23.3729C-5.54912 39.0611 0.234218 59.1038 16.1962 68.1397C32.1581 77.1755 52.2542 71.7825 61.082 56.0943Z" fill="url(#paint0_linear_70_1816)"/>
</g>
<mask id="mask1_70_1816" style="mask-type:alpha" maskUnits="userSpaceOnUse" x="0" y="8" width="65" height="64">
<path d="M32.5524 72C50.1727 72 64.4567 57.6731 64.4567 40C64.4567 22.3269 50.1727 8 32.5524 8C14.9321 8 0.64801 22.3269 0.64801 40C0.64801 57.6731 14.9321 72 32.5524 72Z" fill="white"/>
</mask>
<g mask="url(#mask1_70_1816)">
<path d="M61.8336 52.8727C70.2572 41.2735 65.9627 23.744 52.2416 13.7197C38.5205 3.69537 20.5685 4.97209 12.145 16.5713C3.72136 28.1706 8.01586 45.7 21.7369 55.7244C35.458 65.7486 53.41 64.472 61.8336 52.8727Z" fill="url(#paint1_radial_70_1816)"/>
</g>
<mask id="mask2_70_1816" style="mask-type:alpha" maskUnits="userSpaceOnUse" x="0" y="8" width="65" height="64">
<path d="M32.5524 72C50.1727 72 64.4567 57.6731 64.4567 40C64.4567 22.3269 50.1727 8 32.5524 8C14.9321 8 0.64801 22.3269 0.64801 40C0.64801 57.6731 14.9321 72 32.5524 72Z" fill="white"/>
</mask>
<g mask="url(#mask2_70_1816)">
<path d="M62.0498 37.9357C66.2285 29.8085 59.4493 17.9615 46.9081 11.4747C34.3669 4.9879 20.8128 6.31767 16.6343 14.4448C12.4556 22.5719 19.2349 34.419 31.776 40.9058C44.3171 47.3927 57.8712 46.0628 62.0498 37.9357Z" fill="url(#paint2_radial_70_1816)"/>
</g>
</g>
</g>
<defs>
<linearGradient id="paint0_linear_70_1816" x1="50.0286" y1="113.272" x2="31.1525" y2="-3.99229" gradientUnits="userSpaceOnUse">
<stop stop-color="#000306"/>
<stop offset="0.11" stop-color="#000A16"/>
<stop offset="0.23" stop-color="#00040A"/>
<stop offset="0.37" stop-color="#707070"/>
<stop offset="0.5" stop-color="#8C8C8C"/>
<stop offset="0.64" stop-color="#AEAEAE"/>
<stop offset="0.78" stop-color="#D1D1D1"/>
<stop offset="0.92" stop-color="white"/>
<stop offset="1" stop-color="white"/>
</linearGradient>
<radialGradient id="paint1_radial_70_1816" cx="0" cy="0" r="1" gradientUnits="userSpaceOnUse" gradientTransform="translate(76.7606 50.0835) rotate(105.248) scale(49.1852 82.2378)">
<stop offset="0.03" stop-color="#000F21"/>
<stop offset="0.1" stop-color="#4A4A4A"/>
<stop offset="0.21" stop-color="#7D7D7D"/>
<stop offset="0.33" stop-color="#A0A0A0"/>
<stop offset="0.46" stop-color="#B0B0B0"/>
<stop offset="0.61" stop-color="#C9C9C9"/>
<stop offset="0.76" stop-color="#DCDCDC"/>
<stop offset="0.83" stop-color="#EDEDED"/>
</radialGradient>
<radialGradient id="paint2_radial_70_1816" cx="0" cy="0" r="1" gradientUnits="userSpaceOnUse" gradientTransform="translate(80.2784 19.4356) rotate(48.3775) scale(69.9656 58.9418)">
<stop offset="0.06"/>
<stop offset="0.09"/>
<stop offset="0.25"/>
<stop offset="0.4" stop-color="#A3A3A3"/>
<stop offset="0.54" stop-color="#D7D7D7"/>
<stop offset="0.67" stop-color="#F0F0F0"/>
<stop offset="0.77" stop-color="#FEFEFE"/>
<stop offset="0.84" stop-color="white"/>
</radialGradient>
<clipPath id="clip0_70_1816">
<rect width="201" height="80" fill="white" transform="translate(0.64801)"/>
</clipPath>
</defs>
</svg>
