<svg width="201" height="80" viewBox="0 0 201 80" fill="none" xmlns="http://www.w3.org/2000/svg">
<path d="M106.649 35.6993C108.288 36.2983 109.802 37.1979 111.113 38.3522C112.359 39.5598 113.374 40.9845 114.111 42.5567C114.832 44.2309 115.192 46.0391 115.167 47.8627C115.192 49.6659 114.832 51.4536 114.111 53.1057C113.38 54.6816 112.344 56.096 111.063 57.2662C109.782 58.4362 108.282 59.3388 106.649 59.9211C104.824 60.5946 102.893 60.9351 100.948 60.9259H80.4248V19.0791H111.579V27.2147H89.0014V34.7574H100.944C102.886 34.7294 104.818 35.0483 106.649 35.6993ZM105.232 43.9442C103.963 42.9974 102.407 42.5179 100.827 42.5861H89.0014V53.0258H100.827C102.406 53.0932 103.961 52.6153 105.232 51.6719C106.352 50.789 106.88 49.5698 106.88 47.8417C106.88 46.1137 106.352 44.8355 105.232 43.9442ZM131.071 60.9259H122.863V19.0791H131.071V36.8218L145.663 19.0791H155.866L139.224 39.1763L159.345 60.9259H148.631L131.071 41.9472V60.9259ZM171.942 59.9211C166.768 57.7776 162.65 53.668 160.485 48.4893C159.371 45.7999 158.811 42.9126 158.838 40.0006C158.808 37.1484 159.344 34.3186 160.413 31.6757C161.483 29.0326 163.064 26.6289 165.067 24.6039C167.038 22.6369 169.373 21.0758 171.942 20.0084C174.72 18.8726 177.698 18.3106 180.699 18.3561C183.012 18.3488 185.312 18.7063 187.514 19.4156C189.646 20.1597 191.663 21.1984 193.508 22.5016C195.265 23.8327 196.81 25.4234 198.091 27.219C199.393 29.0746 200.348 31.1515 200.912 33.3492H191.689C191.289 32.3016 190.691 31.3412 189.929 30.5195C189.154 29.6828 188.262 28.9646 187.28 28.3879C186.294 27.8371 185.25 27.4026 184.165 27.0928C183.035 26.7882 181.869 26.6299 180.699 26.622C178.849 26.6021 177.012 26.9419 175.29 27.6226C173.697 28.2831 172.259 29.2665 171.061 30.5111C169.901 31.7403 168.983 33.1801 168.357 34.7534C167.713 36.4257 167.398 38.2079 167.432 40.0006C167.403 41.7941 167.721 43.5761 168.37 45.2476C168.996 46.821 169.912 48.2607 171.074 49.4899C172.257 50.7355 173.702 51.7018 175.303 52.3196C177.012 53.0482 178.854 53.4092 180.71 53.379C181.882 53.3711 183.047 53.213 184.177 52.9082C185.274 52.6036 186.322 52.148 187.293 51.5543C188.283 51.0201 189.178 50.3222 189.937 49.4899C190.699 48.6683 191.297 47.7078 191.699 46.6604H200.92C200.356 48.8394 199.4 50.8968 198.099 52.7315C196.834 54.5403 195.286 56.1331 193.516 57.4489C191.699 58.7898 189.673 59.825 187.522 60.5139C185.33 61.2709 183.025 61.6491 180.707 61.6324C177.7 61.6599 174.718 61.0778 171.942 59.9211Z" fill="white"/>
<mask id="mask0_70_2551" style="mask-type:alpha" maskUnits="userSpaceOnUse" x="0" y="8" width="64" height="64">
<path d="M31.9044 72C49.5247 72 63.8087 57.6731 63.8087 40C63.8087 22.3269 49.5247 8 31.9044 8C14.2841 8 0 22.3269 0 40C0 57.6731 14.2841 72 31.9044 72Z" fill="white"/>
</mask>
<g mask="url(#mask0_70_2551)">
<path d="M60.434 56.0943C69.2619 40.406 63.4786 20.3632 47.5166 11.3275C31.5548 2.29167 11.4586 7.68457 2.63073 23.3729C-6.19713 39.0611 -0.413792 59.1038 15.5482 68.1397C31.5101 77.1755 51.6062 71.7825 60.434 56.0943Z" fill="url(#paint0_linear_70_2551)"/>
</g>
<mask id="mask1_70_2551" style="mask-type:alpha" maskUnits="userSpaceOnUse" x="0" y="8" width="64" height="64">
<path d="M31.9044 72C49.5247 72 63.8087 57.6731 63.8087 40C63.8087 22.3269 49.5247 8 31.9044 8C14.2841 8 0 22.3269 0 40C0 57.6731 14.2841 72 31.9044 72Z" fill="white"/>
</mask>
<g mask="url(#mask1_70_2551)">
<path d="M61.1856 52.8727C69.6091 41.2735 65.3147 23.744 51.5935 13.7197C37.8724 3.69537 19.9205 4.97209 11.4969 16.5713C3.07335 28.1706 7.36785 45.7 21.0889 55.7244C34.81 65.7486 52.762 64.472 61.1856 52.8727Z" fill="url(#paint1_radial_70_2551)"/>
</g>
<mask id="mask2_70_2551" style="mask-type:alpha" maskUnits="userSpaceOnUse" x="0" y="8" width="64" height="64">
<path d="M31.9044 72C49.5247 72 63.8087 57.6731 63.8087 40C63.8087 22.3269 49.5247 8 31.9044 8C14.2841 8 0 22.3269 0 40C0 57.6731 14.2841 72 31.9044 72Z" fill="white"/>
</mask>
<g mask="url(#mask2_70_2551)">
<path d="M61.4018 37.9354C65.5805 29.8082 58.8013 17.9613 46.26 11.4745C33.7189 4.98766 20.1648 6.31743 15.9862 14.4446C11.8076 22.5717 18.5868 34.4187 31.128 40.9056C43.6691 47.3924 57.2232 46.0626 61.4018 37.9354Z" fill="url(#paint2_radial_70_2551)"/>
</g>
<defs>
<linearGradient id="paint0_linear_70_2551" x1="49.3805" y1="113.272" x2="30.5045" y2="-3.99229" gradientUnits="userSpaceOnUse">
<stop stop-color="#006DEF"/>
<stop offset="0.11" stop-color="#0570EF"/>
<stop offset="0.23" stop-color="#1277F0"/>
<stop offset="0.37" stop-color="#2884F2"/>
<stop offset="0.5" stop-color="#4896F4"/>
<stop offset="0.64" stop-color="#70ADF6"/>
<stop offset="0.78" stop-color="#A1C9F9"/>
<stop offset="0.92" stop-color="#DBEAFD"/>
<stop offset="1" stop-color="white"/>
</linearGradient>
<radialGradient id="paint1_radial_70_2551" cx="0" cy="0" r="1" gradientUnits="userSpaceOnUse" gradientTransform="translate(76.1125 50.0835) rotate(105.248) scale(49.1852 82.2378)">
<stop offset="0.03" stop-color="#006DEF"/>
<stop offset="0.1" stop-color="#0671EF"/>
<stop offset="0.21" stop-color="#187BF0"/>
<stop offset="0.33" stop-color="#358BF2"/>
<stop offset="0.46" stop-color="#5EA3F4"/>
<stop offset="0.61" stop-color="#92C1F8"/>
<stop offset="0.76" stop-color="#D1E4FB"/>
<stop offset="0.83" stop-color="#F0F6FD"/>
</radialGradient>
<radialGradient id="paint2_radial_70_2551" cx="0" cy="0" r="1" gradientUnits="userSpaceOnUse" gradientTransform="translate(79.6304 19.4353) rotate(48.3775) scale(69.9656 58.9418)">
<stop offset="0.06" stop-color="#006DEF"/>
<stop offset="0.09" stop-color="#0F75F0"/>
<stop offset="0.25" stop-color="#529CF4"/>
<stop offset="0.4" stop-color="#8BBCF7"/>
<stop offset="0.54" stop-color="#B6D5FA"/>
<stop offset="0.67" stop-color="#D6E7FB"/>
<stop offset="0.77" stop-color="#E9F2FD"/>
<stop offset="0.84" stop-color="#F0F6FD"/>
</radialGradient>
</defs>
</svg>
