<svg width="50" height="50" viewBox="0 0 50 50" fill="none" xmlns="http://www.w3.org/2000/svg">
<path d="M25 2C12.317 2 2 12.317 2 25C2 37.683 12.317 48 25 48C37.683 48 48 37.683 48 25C48 20.44 46.6603 16.1893 44.3633 12.6113L42.9941 14.2285C44.8891 17.3825 46 21.06 46 25C46 36.579 36.579 46 25 46C13.421 46 4 36.579 4 25C4 13.421 13.421 4 25 4C30.443 4 35.3939 6.09977 39.1289 9.50977L40.4375 7.96484C36.3525 4.25984 30.935 2 25 2ZM43.2363 7.75391L23.9141 30.5547L15.7812 22.9688L14.418 24.4316L24.084 33.4473L44.7637 9.04688L43.2363 7.75391Z" fill="#ECC06A"/>
</svg>
