<svg width="179" height="179" viewBox="0 0 179 179" fill="none" xmlns="http://www.w3.org/2000/svg">
<g opacity="0.8">
<path fill-rule="evenodd" clip-rule="evenodd" d="M61.5992 102.139V38.3633L99.6458 38.487L99.776 48.9951L86.908 49.0318C79.8304 49.0521 73.8768 49.0794 73.6775 49.0927C73.3627 49.1135 73.3151 50.2411 73.3151 57.6917V66.267L75.2532 66.2443C78.5851 66.2052 80.9904 65.1177 84.7895 61.9321C87.9132 59.3133 88.6328 58.7952 90.4663 57.8446C95.8766 55.0398 104.348 55.1326 110.165 58.0601C114.096 60.038 116.471 62.9643 117.904 67.5956C118.463 69.4025 118.464 69.4513 118.549 85.7787L118.634 102.15L109.308 102.019L109.267 100.932C109.243 100.334 109.216 99.4697 109.206 99.0115L109.188 98.1783L108.13 99.2383C104.78 102.596 99.2066 104.144 93.5581 103.287C90.3528 102.801 88.4963 102.217 86.5793 101.092C82.9732 98.9764 80.829 95.4576 80.5201 91.1483C80.2193 86.9511 81.4474 83.4109 83.9899 81.1446C86.3763 79.0178 89.8752 77.6071 98.1234 75.4468C104.544 73.7652 106.788 72.7997 107.289 71.5034C107.676 70.5029 107.422 68.5083 106.795 67.6285C105.791 66.2185 103.014 65.1834 100.25 65.1887C97.0009 65.195 95.0527 66.0561 90.3455 69.5661C85.3379 73.3002 83.8839 74.173 81.2081 75.0516C79.2325 75.7001 77.351 76.0243 75.2477 76.0792C74.3176 76.1033 73.4768 76.2427 73.3792 76.3886C73.2816 76.5348 73.2002 82.3886 73.198 89.3969L73.1944 102.139H61.5992ZM100.37 83.0998C103.744 82.1756 105.548 81.4985 106.568 80.7728C107.115 80.3841 107.458 80.137 107.668 80.2213C108.025 80.3644 107.999 81.4627 107.936 84.4448C107.856 88.2567 107.789 88.8399 107.33 89.6989C105.778 92.6059 102.181 94.0971 97.2485 93.8777C92.9989 93.6886 91.3118 92.4133 91.3118 89.3897C91.3118 86.1551 92.6766 85.2075 100.37 83.0998Z" fill="#151515"/>
<path d="M39.0129 131.731L38.8858 114.701H42.5218L42.3948 131.731H39.0129Z" fill="#151515"/>
<path d="M43.361 131.731L43.234 114.701H46.7922L48.0126 117.902C48.6842 119.662 49.2895 121.265 49.3581 121.465C49.4267 121.664 49.4915 120.224 49.5019 118.264L49.5209 114.701H53.1444V131.852H51.4829C50.4469 131.852 49.7287 131.739 49.5746 131.55C49.4386 131.384 48.7791 129.835 48.1088 128.108L46.8901 124.967L46.7429 131.731H43.361Z" fill="#151515"/>
<path d="M54.7675 118.928C54.4385 117.334 54.1162 115.726 54.051 115.356L53.9324 114.682L57.5895 114.822L58.2572 118.083C58.6246 119.876 58.9981 121.806 59.0872 122.371C59.3 123.719 59.5708 123.672 59.7826 122.25C59.9254 121.291 60.7639 117.257 61.2386 115.244C61.3572 114.742 61.4999 114.701 63.145 114.701H64.9232L64.5872 116.452C64.4026 117.415 63.6211 121.247 62.8508 124.967L61.4502 131.731H57.4078L56.8336 129.074C56.5176 127.613 56.0582 125.384 55.8123 124.122C55.5666 122.86 55.0963 120.523 54.7675 118.928Z" fill="#151515"/>
<path d="M65.7058 131.852V114.701H73.9191V117.841H69.3293V120.982H73.2173L73.0736 124.001L69.3293 124.142V128.712H73.9191V131.852H65.7058Z" fill="#151515"/>
<path d="M74.7025 119.411C74.8075 116.924 75.2201 115.898 76.4069 115.174C77.5225 114.494 80.953 114.499 82.0741 115.183C83.1522 115.84 83.8213 117.019 83.8223 118.264L83.8232 119.291H82.1482C80.5008 119.291 80.4723 119.28 80.3969 118.626C80.3278 118.025 80.2287 117.962 79.3543 117.962H78.388V121.344L79.9582 121.465C81.0757 121.551 81.7559 121.748 82.3171 122.148C83.5855 123.053 83.8232 123.773 83.8223 126.707C83.8216 128.884 83.7421 129.446 83.3413 130.103C82.5219 131.447 81.574 131.85 79.2335 131.85C76.1806 131.85 75.0175 130.987 74.7232 128.501L74.5764 127.262H76.4057C78.2218 127.262 78.2356 127.267 78.3117 127.927C78.3721 128.452 78.5296 128.607 79.0668 128.669C80.142 128.792 80.4413 128.358 80.4413 126.677C80.4413 125.839 80.3143 125.058 80.1514 124.895C79.992 124.736 79.3125 124.605 78.6417 124.605C76.9422 124.604 75.8538 123.998 75.1709 122.673C74.6793 121.719 74.622 121.319 74.7025 119.411Z" fill="#151515"/>
<path d="M84.6397 116.513C84.6238 115.848 84.6627 115.169 84.726 115.003C84.8129 114.775 86.0512 114.701 89.779 114.701H94.7166L94.5729 117.72L91.5608 117.864L91.4326 131.731L87.9299 131.873V117.863L84.6687 117.72L84.6397 116.513Z" fill="#151515"/>
<path d="M96.5178 119.66C96.7308 117.139 96.9576 114.993 97.0217 114.889C97.0854 114.786 97.999 114.701 99.0515 114.701C100.009 114.701 100.489 114.638 100.782 114.842C101.153 115.103 101.221 115.795 101.577 117.6C102.146 120.484 102.601 122.447 102.73 122.576C102.795 122.641 102.925 122.173 103.019 121.536C103.112 120.899 103.385 119.508 103.624 118.445C103.864 117.382 104.132 116.105 104.219 115.607L104.378 114.701H106.42C107.544 114.701 108.463 114.769 108.463 114.852C108.463 115.192 109.211 123.306 109.588 127.045C109.81 129.251 109.923 131.235 109.839 131.454C109.719 131.767 109.352 131.852 108.127 131.852C107.406 131.852 106.991 131.88 106.734 131.692C106.351 131.411 106.32 130.648 106.15 128.591C105.925 125.88 105.677 125.629 105.333 127.766C105.175 128.751 104.914 130.046 104.753 130.644L104.461 131.731H100.854L100.273 128.89C99.9531 127.327 99.647 126.094 99.5924 126.148C99.5376 126.203 99.3644 127.481 99.2071 128.989L98.9211 131.731H95.5392L95.6083 129.799C95.6464 128.736 95.7793 127.051 95.9037 126.054C96.0283 125.058 96.3045 122.18 96.5178 119.66Z" fill="#151515"/>
<path d="M110.758 131.731L110.631 114.701H119.115L118.971 117.72L114.238 117.859L114.381 120.861L118.148 121.002L118.005 124.001L114.243 124.142L114.381 128.591L119.115 128.73L118.971 131.731H110.758Z" fill="#151515"/>
<path d="M119.937 131.731L119.81 114.701H123.398L124.111 116.573C124.503 117.603 125.083 119.152 125.4 120.015L125.976 121.586L126.218 114.822L129.721 114.68V131.873L127.978 131.802C127.221 131.771 126.778 131.788 126.437 131.608C125.861 131.306 125.579 130.447 124.585 127.866L123.561 125.209L123.501 127.987C123.448 130.473 123.461 131.377 123.038 131.686C122.768 131.883 122.319 131.836 121.561 131.803L119.937 131.731Z" fill="#151515"/>
<path d="M130.687 117.841V114.701H140.614L140.47 117.72L137.195 117.864L137.209 124.556C137.217 128.237 137.22 131.384 137.216 131.55C137.211 131.762 136.706 131.852 135.518 131.852H133.827V117.841H130.687Z" fill="#151515"/>
<path d="M179 89.5C179 138.929 138.929 179 89.5 179C40.0705 179 0 138.929 0 89.5C0 40.0705 40.0705 0 89.5 0C138.929 0 179 40.0705 179 89.5ZM4.90152 89.5C4.90152 136.222 42.7775 174.098 89.5 174.098C136.222 174.098 174.098 136.222 174.098 89.5C174.098 42.7775 136.222 4.90152 89.5 4.90152C42.7775 4.90152 4.90152 42.7775 4.90152 89.5Z" fill="#151515"/>
</g>
</svg>
