<svg width="32" height="32" viewBox="0 0 32 32" fill="none" xmlns="http://www.w3.org/2000/svg">
<path fill-rule="evenodd" clip-rule="evenodd" d="M5.1423 5.71409C4.68764 5.71409 4.25161 5.89471 3.93012 6.2162C3.60863 6.53769 3.42801 6.97372 3.42801 7.42838C3.42801 7.88304 3.60863 8.31907 3.93012 8.64056C4.25161 8.96205 4.68764 9.14267 5.1423 9.14267C5.59696 9.14267 6.03299 8.96205 6.35448 8.64056C6.67597 8.31907 6.85659 7.88304 6.85659 7.42838C6.85659 6.97372 6.67597 6.53769 6.35448 6.2162C6.03299 5.89471 5.59696 5.71409 5.1423 5.71409ZM2.28516 7.42838C2.28445 6.71984 2.54703 6.0363 3.02194 5.51047C3.49685 4.98465 4.1502 4.65404 4.85516 4.58283C5.56012 4.51162 6.26638 4.7049 6.83686 5.12513C7.40733 5.54536 7.8013 6.16258 7.9423 6.85695H27.428V7.99981H7.9423C7.8013 8.69418 7.40733 9.3114 6.83686 9.73163C6.26638 10.1519 5.56012 10.3451 4.85516 10.2739C4.1502 10.2027 3.49685 9.87211 3.02194 9.34628C2.54703 8.82046 2.28445 8.13692 2.28516 7.42838ZM5.1423 17.1427C4.68764 17.1427 4.25161 17.3233 3.93012 17.6448C3.60863 17.9663 3.42801 18.4023 3.42801 18.8569C3.42801 19.3116 3.60863 19.7476 3.93012 20.0691C4.25161 20.3906 4.68764 20.5712 5.1423 20.5712C5.59696 20.5712 6.03299 20.3906 6.35448 20.0691C6.67597 19.7476 6.85659 19.3116 6.85659 18.8569C6.85659 18.4023 6.67597 17.9663 6.35448 17.6448C6.03299 17.3233 5.59696 17.1427 5.1423 17.1427ZM2.28516 18.8569C2.28445 18.1484 2.54703 17.4649 3.02194 16.939C3.49685 16.4132 4.1502 16.0826 4.85516 16.0114C5.56012 15.9402 6.26638 16.1335 6.83686 16.5537C7.40733 16.9739 7.8013 17.5911 7.9423 18.2855H22.9137C23.0553 17.5918 23.4495 16.9753 24.0198 16.5557C24.5901 16.1361 25.2959 15.9431 26.0003 16.0143C26.7048 16.0854 27.3577 16.4156 27.8325 16.9409C28.3074 17.4661 28.5703 18.1489 28.5703 18.8569C28.5703 19.565 28.3074 20.2478 27.8325 20.773C27.3577 21.2983 26.7048 21.6285 26.0003 21.6996C25.2959 21.7708 24.5901 21.5778 24.0198 21.1582C23.4495 20.7386 23.0553 20.1221 22.9137 19.4284H7.9423C7.8013 20.1228 7.40733 20.74 6.83686 21.1602C6.26638 21.5804 5.56012 21.7737 4.85516 21.7025C4.1502 21.6313 3.49685 21.3007 3.02194 20.7749C2.54703 20.249 2.28445 19.5655 2.28516 18.8569ZM25.7137 17.1427C25.2591 17.1427 24.823 17.3233 24.5015 17.6448C24.1801 17.9663 23.9994 18.4023 23.9994 18.8569C23.9994 19.3116 24.1801 19.7476 24.5015 20.0691C24.823 20.3906 25.2591 20.5712 25.7137 20.5712C26.1684 20.5712 26.6044 20.3906 26.9259 20.0691C27.2474 19.7476 27.428 19.3116 27.428 18.8569C27.428 18.4023 27.2474 17.9663 26.9259 17.6448C26.6044 17.3233 26.1684 17.1427 25.7137 17.1427ZM5.1423 23.9998C4.68764 23.9998 4.25161 24.1804 3.93012 24.5019C3.60863 24.8234 3.42801 25.2594 3.42801 25.7141C3.42801 26.1687 3.60863 26.6048 3.93012 26.9263C4.25161 27.2478 4.68764 27.4284 5.1423 27.4284C5.59696 27.4284 6.03299 27.2478 6.35448 26.9263C6.67597 26.6048 6.85659 26.1687 6.85659 25.7141C6.85659 25.2594 6.67597 24.8234 6.35448 24.5019C6.03299 24.1804 5.59696 23.9998 5.1423 23.9998ZM2.28516 25.7141C2.28445 25.0055 2.54703 24.322 3.02194 23.7962C3.49685 23.2704 4.1502 22.9398 4.85516 22.8685C5.56012 22.7973 6.26638 22.9906 6.83686 23.4108C7.40733 23.8311 7.8013 24.4483 7.9423 25.1427H27.428V26.2855H7.9423C7.8013 26.9799 7.40733 27.5971 6.83686 28.0173C6.26638 28.4376 5.56012 28.6308 4.85516 28.5596C4.1502 28.4884 3.49685 28.1578 3.02194 27.632C2.54703 27.1062 2.28445 26.4226 2.28516 25.7141Z" fill="white"/>
<path fill-rule="evenodd" clip-rule="evenodd" d="M25.6005 10.2172L24.012 10.9372L23.5434 9.89725L25.132 9.17725L25.6005 10.2172ZM21.0291 12.2744L19.4405 12.9944L18.972 11.9544L20.5605 11.2344L21.0291 12.2744ZM16.4577 14.3315L14.8577 15.0515L14.4005 14.0115L15.9891 13.2915L16.4577 14.3315ZM11.8862 16.3887L10.2862 17.1087L9.8291 16.0687L11.4177 15.3487L11.8862 16.3887Z" fill="white"/>
</svg>
