<svg width="32" height="32" viewBox="0 0 32 32" fill="none" xmlns="http://www.w3.org/2000/svg">
<path fill-rule="evenodd" clip-rule="evenodd" d="M5.71479 12.297L5.24622 11.4741L5.21193 11.4284L5.24622 11.3827C5.90745 10.1867 6.70933 9.07404 7.63479 8.06843C9.31479 6.23986 11.7491 4.50272 14.8576 4.50272C17.9776 4.50272 20.4005 6.25129 22.0919 8.06843C23.0133 9.07473 23.8113 10.1874 24.4691 11.3827L24.5034 11.4284L24.4691 11.4741C23.8078 12.6702 23.006 13.7828 22.0805 14.7884C20.4005 16.617 17.9662 18.3541 14.8576 18.3541C11.7376 18.3541 9.31479 16.6056 7.62336 14.7884C6.91629 14.0176 6.28126 13.1836 5.72622 12.297H5.71479ZM25.6576 11.177L25.1434 11.4284L25.6576 11.6799L25.6462 11.7027C25.5924 11.8112 25.5353 11.9179 25.4748 12.0227C24.7697 13.3011 23.914 14.4905 22.9262 15.5656C21.1434 17.497 18.4234 19.497 14.8576 19.497C11.2919 19.497 8.57193 17.497 6.78907 15.5656C5.71918 14.401 4.80489 13.1025 4.06907 11.7027V11.6799H4.05764L4.57193 11.4284L4.05764 11.177L4.06907 11.1541C4.12307 11.0458 4.18023 10.9391 4.2405 10.8341C4.94554 9.55569 5.80116 8.36627 6.78907 7.29129C8.57193 5.35986 11.2919 3.35986 14.8576 3.35986C18.4234 3.35986 21.1434 5.35986 22.9262 7.29129C23.996 8.45596 24.9103 9.7544 25.6462 11.1541V11.177H25.6576ZM25.1434 11.4284L25.6576 11.177L25.7719 11.4284L25.6576 11.6799L25.1434 11.4284ZM4.05764 11.177L4.57193 11.4284L4.05764 11.6799L3.94336 11.4284L4.05764 11.177ZM11.8291 11.4284C11.835 11.0372 11.9182 10.651 12.0737 10.2921C12.2293 9.93307 12.4543 9.60833 12.7356 9.3365C13.017 9.06466 13.3493 8.85107 13.7135 8.70799C14.0776 8.56491 14.4665 8.49515 14.8576 8.50272C15.2488 8.49515 15.6376 8.56491 16.0018 8.70799C16.3659 8.85107 16.6983 9.06466 16.9796 9.3365C17.261 9.60833 17.486 9.93307 17.6415 10.2921C17.7971 10.651 17.8803 11.0372 17.8862 11.4284C17.8803 11.8196 17.7971 12.2058 17.6415 12.5648C17.486 12.9238 17.261 13.2485 16.9796 13.5204C16.6983 13.7922 16.3659 14.0058 16.0018 14.1489C15.6376 14.292 15.2488 14.3617 14.8576 14.3541C14.4665 14.3617 14.0776 14.292 13.7135 14.1489C13.3493 14.0058 13.017 13.7922 12.7356 13.5204C12.4543 13.2485 12.2293 12.9238 12.0737 12.5648C11.9182 12.2058 11.835 11.8196 11.8291 11.4284ZM14.8576 7.35986C14.3164 7.35231 13.779 7.45164 13.2762 7.65217C12.7734 7.85269 12.3151 8.15047 11.9276 8.52842C11.54 8.90638 11.2309 9.35709 11.0179 9.85473C10.8049 10.3524 10.6922 10.8872 10.6862 11.4284C10.6922 11.9697 10.8049 12.5045 11.0179 13.0021C11.2309 13.4998 11.54 13.9505 11.9276 14.3284C12.3151 14.7064 12.7734 15.0042 13.2762 15.2047C13.779 15.4052 14.3164 15.5046 14.8576 15.497C17.1434 15.497 19.0291 13.6913 19.0291 11.4284C19.0231 10.8872 18.9104 10.3524 18.6974 9.85473C18.4844 9.35709 18.1753 8.90638 17.7877 8.52842C17.4002 8.15047 16.9419 7.85269 16.4391 7.65217C15.9363 7.45164 15.3989 7.35231 14.8576 7.35986ZM23.8291 21.0741L24.7434 20.1599L25.5434 20.9713L24.6405 21.8856C24.5358 21.9924 24.4772 22.136 24.4772 22.2856C24.4772 22.4351 24.5358 22.5788 24.6405 22.6856L25.3148 23.3599C25.5434 23.5884 25.8862 23.5884 26.1148 23.3599L28.1719 21.3027L28.9719 22.1141L26.9262 24.1713C26.6048 24.4923 26.1691 24.6726 25.7148 24.6726C25.2605 24.6726 24.8248 24.4923 24.5034 24.1713L23.8291 23.497C23.508 23.1756 23.3277 22.7399 23.3277 22.2856C23.3277 21.8313 23.508 21.3956 23.8291 21.0741ZM18.8576 24.5713L18.4576 24.1713C18.4284 24.1952 18.4016 24.222 18.3776 24.2513L17.2348 25.9656L16.0919 27.6799C16.0335 27.7663 15.9999 27.867 15.9946 27.9712C15.9894 28.0754 16.0128 28.179 16.0622 28.2708C16.1117 28.3626 16.1853 28.4392 16.2751 28.4922C16.365 28.5451 16.4676 28.5725 16.5719 28.5713H21.1434C21.8923 28.5486 22.6023 28.2325 23.1205 27.6913C23.6617 27.1731 23.9778 26.4631 24.0005 25.7141C23.9778 24.9652 23.6617 24.2552 23.1205 23.737C22.6023 23.1958 21.8923 22.8797 21.1434 22.857C20.4642 22.8924 19.8096 23.1225 19.2576 23.5199C18.9777 23.707 18.7139 23.9173 18.4691 24.1484V24.1599H18.4576L18.8576 24.5713ZM19.3034 24.937L18.1948 26.6056L17.6348 27.4284H21.1434C21.5319 27.4284 21.9662 27.2341 22.3091 26.8799C22.6519 26.537 22.8576 26.1027 22.8576 25.7141C22.8576 25.3256 22.6634 24.8913 22.3091 24.5484C21.9662 24.2056 21.5319 23.9999 21.1434 23.9999C20.7434 23.9999 20.2862 24.2056 19.8862 24.4799C19.6806 24.6173 19.4858 24.7701 19.3034 24.937Z" fill="white"/>
</svg>
