<svg width="261" height="200" viewBox="0 0 261 200" fill="none" xmlns="http://www.w3.org/2000/svg">
<g opacity="0.5" clip-path="url(#clip0_70_643)">
<rect width="1" height="24" transform="matrix(1 0 0 -1 224 125)" fill="#444444"/>
<rect width="9" height="6.78261" transform="matrix(1 0 0 -1 220 116.13)" fill="#444444"/>
<rect width="1" height="26" transform="matrix(1 0 0 -1 180 136)" fill="#444444"/>
<rect width="9" height="3.95652" transform="matrix(1 0 0 -1 176 118.826)" fill="#444444"/>
<rect width="1" height="50" transform="matrix(1 0 0 -1 257 199)" fill="#2C2C2C"/>
<rect width="9" height="26.2778" transform="matrix(1 0 0 -1 253 191.667)" fill="#2C2C2C"/>
<rect width="1" height="50" transform="matrix(1 0 0 -1 235 162)" fill="#2C2C2C"/>
<rect width="9" height="17" transform="matrix(1 0 0 -1 231 145)" fill="#2C2C2C"/>
<rect width="1" height="30" transform="matrix(1 0 0 -1 202 145)" fill="#2C2C2C"/>
<rect width="9" height="10.2" transform="matrix(1 0 0 -1 198 134.8)" fill="#2C2C2C"/>
<rect width="1" height="41" transform="matrix(1 0 0 -1 158 123)" fill="#2C2C2C"/>
<rect width="9" height="10.2" transform="matrix(1 0 0 -1 154 101.8)" fill="#2C2C2C"/>
<rect width="1" height="41" transform="matrix(1 0 0 -1 114 50)" fill="#2C2C2C"/>
<rect width="9" height="10.2" transform="matrix(1 0 0 -1 110 28.7998)" fill="#2C2C2C"/>
<rect width="1" height="41" transform="matrix(1 0 0 -1 70 79)" fill="#2C2C2C"/>
<rect width="9" height="10.2" transform="matrix(1 0 0 -1 66 68.7998)" fill="#2C2C2C"/>
<rect width="1" height="41" transform="matrix(1 0 0 -1 59 83)" fill="#444444"/>
<rect width="9" height="10.2" transform="matrix(1 0 0 -1 55 62.2002)" fill="#444444"/>
<rect width="1" height="59" transform="matrix(1 0 0 -1 92 121)" fill="#2C2C2C"/>
<rect width="9" height="19" transform="matrix(1 0 0 -1 88 90)" fill="#2C2C2C"/>
<rect width="1" height="59" transform="matrix(1 0 0 -1 48 107)" fill="#2C2C2C"/>
<rect width="9" height="19" transform="matrix(1 0 0 -1 44 82)" fill="#2C2C2C"/>
<rect width="1" height="62" transform="matrix(1 0 0 -1 103 86)" fill="#2C2C2C"/>
<rect width="9" height="44" transform="matrix(1 0 0 -1 99 78)" fill="#2C2C2C"/>
<rect width="1" height="16" transform="matrix(1 0 0 -1 147 111)" fill="#2C2C2C"/>
<rect width="9" height="10.2" transform="matrix(1 0 0 -1 143 114.8)" fill="#2C2C2C"/>
<rect width="1" height="80" transform="matrix(1 0 0 -1 213 174)" fill="#2C2C2C"/>
<rect width="9" height="38" transform="matrix(1 0 0 -1 209 152)" fill="#2C2C2C"/>
<rect width="1" height="80" transform="matrix(1 0 0 -1 169 136)" fill="#444444"/>
<rect width="9" height="38" transform="matrix(1 0 0 -1 165 114)" fill="#444444"/>
<rect width="1" height="40" transform="matrix(1 0 0 -1 191 150)" fill="#444444"/>
<rect width="9" height="22" transform="matrix(1 0 0 -1 187 139)" fill="#444444"/>
<rect width="1" height="106" transform="matrix(1 0 0 -1 246 199)" fill="#444444"/>
<rect width="9" height="55.7089" transform="matrix(1 0 0 -1 242 183.453)" fill="#444444"/>
<rect width="1" height="53" transform="matrix(1 0 0 -1 136 113)" fill="#444444"/>
<rect width="9" height="20" transform="matrix(1 0 0 -1 132 105)" fill="#444444"/>
<rect width="1" height="53" transform="matrix(1 0 0 -1 81 106)" fill="#444444"/>
<rect width="9" height="35" transform="matrix(1 0 0 -1 77 98)" fill="#444444"/>
<rect width="1" height="53" transform="matrix(1 0 0 -1 37 83)" fill="#444444"/>
<rect width="9" height="35" transform="matrix(1 0 0 -1 33 75)" fill="#444444"/>
<rect width="1" height="34" transform="matrix(1 0 0 -1 4 34)" fill="#444444"/>
<rect width="9" height="17.8302" transform="matrix(1 0 0 -1 0 29.9243)" fill="#444444"/>
<rect width="1" height="34" transform="matrix(1 0 0 -1 26 56)" fill="#444444"/>
<rect width="9" height="12" transform="matrix(1 0 0 -1 22 46)" fill="#444444"/>
<rect width="1" height="26" transform="matrix(1 0 0 -1 15 41)" fill="#444444"/>
<rect width="9" height="4" transform="matrix(1 0 0 -1 11 33)" fill="#444444"/>
<rect width="1" height="107" transform="matrix(1 0 0 -1 125 113)" fill="#444444"/>
<rect width="9" height="66" transform="matrix(1 0 0 -1 121 97)" fill="#444444"/>
</g>
<defs>
<clipPath id="clip0_70_643">
<rect width="261" height="200" fill="white" transform="matrix(-1 0 0 1 261 0)"/>
</clipPath>
</defs>
</svg>
