<svg width="32" height="32" viewBox="0 0 32 32" fill="none" xmlns="http://www.w3.org/2000/svg">
<path d="M8.40566 24.4047L24.4057 8.40468L23.5977 7.59668L7.59766 23.5967L8.40566 24.4047Z" fill="white"/>
<path d="M25.7154 8.00014C26.6617 8.00014 27.4297 7.23214 27.4297 6.28585C27.4297 5.33957 26.6617 4.57157 25.7154 4.57157C24.7691 4.57157 24.0011 5.33957 24.0011 6.28585C24.0011 7.23214 24.7691 8.00014 25.7154 8.00014ZM25.7154 9.143C24.1371 9.143 22.8583 7.86414 22.8583 6.28585C22.8583 4.70757 24.1371 3.42871 25.7154 3.42871C27.2937 3.42871 28.5725 4.70757 28.5725 6.28585C28.5725 7.86414 27.2937 9.143 25.7154 9.143ZM6.28683 27.4287C7.23312 27.4287 8.00112 26.6607 8.00112 25.7144C8.00112 24.7681 7.23312 24.0001 6.28683 24.0001C5.34054 24.0001 4.57254 24.7681 4.57254 25.7144C4.57254 26.6607 5.34054 27.4287 6.28683 27.4287ZM6.28683 28.5716C4.70854 28.5716 3.42969 27.2927 3.42969 25.7144C3.42969 24.1361 4.70854 22.8573 6.28683 22.8573C7.86512 22.8573 9.14397 24.1361 9.14397 25.7144C9.14397 27.2927 7.86512 28.5716 6.28683 28.5716Z" fill="white"/>
</svg>
