<svg width="32" height="32" viewBox="0 0 32 32" fill="none" xmlns="http://www.w3.org/2000/svg">
<path d="M2.86746 22.2629C2.54597 22.5844 2.36535 23.0204 2.36535 23.4751C2.36535 23.9298 2.54597 24.3658 2.86746 24.6873L7.31213 29.132C7.63362 29.4534 8.06965 29.6341 8.52431 29.6341C8.97897 29.6341 9.415 29.4534 9.73649 29.132L29.1314 9.73702C29.4529 9.41553 29.6335 8.9795 29.6335 8.52484C29.6335 8.07018 29.4529 7.63415 29.1314 7.31266L24.6868 2.86799C24.3653 2.5465 23.9292 2.36588 23.4746 2.36589C23.0199 2.36589 22.5839 2.5465 22.2624 2.86799L2.86746 22.2629ZM3.67558 23.071L6.09994 20.6467L8.12025 22.667L8.92837 21.8589L6.90807 19.8385L9.53446 17.2122L12.6861 20.3638L13.4943 19.5557L10.3426 16.404L12.969 13.7776L14.9893 15.7979L15.7974 14.9898L13.7771 12.9695L16.4035 10.3431L19.5552 13.4948L20.3633 12.6867L17.2116 9.53499L19.838 6.9086L21.8583 8.9289L22.6664 8.12078L20.6461 6.10047L23.0705 3.67611C23.1777 3.56895 23.323 3.50874 23.4746 3.50874C23.6261 3.50874 23.7715 3.56895 23.8786 3.67611L28.3233 8.12078C28.4305 8.22794 28.4907 8.37329 28.4907 8.52484C28.4907 8.67639 28.4305 8.82174 28.3233 8.9289L8.92837 28.3238C8.82121 28.431 8.67586 28.4912 8.52431 28.4912C8.37276 28.4912 8.22741 28.431 8.12025 28.3238L3.67558 23.8792C3.56841 23.772 3.50821 23.6266 3.50821 23.4751C3.50821 23.3235 3.56841 23.1782 3.67558 23.071Z" fill="white"/>
</svg>
