<svg width="32" height="32" viewBox="0 0 32 32" fill="none" xmlns="http://www.w3.org/2000/svg">
<path d="M20.167 20.9761L24.7384 25.5476L25.5476 24.7384L20.9761 20.167L20.167 20.9761Z" fill="white"/>
<path d="M14.2856 23.9999C11.7092 23.9999 9.23832 22.9764 7.41654 21.1546C5.59476 19.3328 4.57129 16.862 4.57129 14.2856C4.57129 11.7092 5.59476 9.23832 7.41654 7.41654C9.23832 5.59476 11.7092 4.57129 14.2856 4.57129C16.862 4.57129 19.3328 5.59476 21.1546 7.41654C22.9764 9.23832 23.9999 11.7092 23.9999 14.2856C23.9999 16.862 22.9764 19.3328 21.1546 21.1546C19.3328 22.9764 16.862 23.9999 14.2856 23.9999ZM14.2856 22.857C16.5589 22.857 18.739 21.9539 20.3465 20.3465C21.9539 18.739 22.857 16.5589 22.857 14.2856C22.857 12.0123 21.9539 9.83211 20.3465 8.22466C18.739 6.6172 16.5589 5.71415 14.2856 5.71415C12.0123 5.71415 9.83211 6.6172 8.22466 8.22466C6.6172 9.83211 5.71415 12.0123 5.71415 14.2856C5.71415 16.5589 6.6172 18.739 8.22466 20.3465C9.83211 21.9539 12.0123 22.857 14.2856 22.857Z" fill="white"/>
<path d="M10.2852 14.8572H18.2852V13.7144H10.2852V14.8572Z" fill="white"/>
<path d="M14.8577 18.2856V10.2856H13.7148V18.2856H14.8577Z" fill="white"/>
</svg>
