<svg width="614" height="262" viewBox="0 0 614 262" fill="none" xmlns="http://www.w3.org/2000/svg">
<rect x="16" y="170" width="1" height="48" transform="rotate(180 16 170)" fill="#2C2C2C"/>
<rect x="20" y="165" width="9" height="25" transform="rotate(180 20 165)" fill="#2C2C2C"/>
<rect x="71" y="215" width="1" height="28" transform="rotate(180 71 215)" fill="#2C2C2C"/>
<rect x="75" y="209" width="9" height="16" transform="rotate(180 75 209)" fill="#2C2C2C"/>
<rect x="93" y="185" width="1" height="52" transform="rotate(180 93 185)" fill="#2C2C2C"/>
<rect x="97" y="173.857" width="9" height="29.7143" transform="rotate(180 97 173.857)" fill="#2C2C2C"/>
<rect x="137" y="155" width="1" height="19" transform="rotate(180 137 155)" fill="#2C2C2C"/>
<rect x="141" y="150.929" width="9" height="10.8571" transform="rotate(180 141 150.929)" fill="#2C2C2C"/>
<rect x="203" y="134" width="1" height="46" transform="rotate(180 203 134)" fill="#2C2C2C"/>
<rect x="207" y="130" width="9" height="13" transform="rotate(180 207 130)" fill="#2C2C2C"/>
<rect x="313" y="193" width="1" height="46" transform="rotate(180 313 193)" fill="#2C2C2C"/>
<rect x="317" y="176" width="9" height="13" transform="rotate(180 317 176)" fill="#2C2C2C"/>
<rect x="390" y="140" width="1" height="24" transform="rotate(180 390 140)" fill="#2C2C2C"/>
<rect x="394" y="131.13" width="9" height="6.78261" transform="rotate(180 394 131.13)" fill="#2C2C2C"/>
<rect x="434" y="151" width="1" height="26" transform="rotate(180 434 151)" fill="#2C2C2C"/>
<rect x="438" y="133.826" width="9" height="3.95652" transform="rotate(180 438 133.826)" fill="#2C2C2C"/>
<rect x="225" y="82" width="1" height="73" transform="rotate(180 225 82)" fill="#2C2C2C"/>
<rect x="229" y="75.6523" width="9" height="20.6304" transform="rotate(180 229 75.6523)" fill="#2C2C2C"/>
<rect x="247" y="43" width="1" height="43" transform="rotate(180 247 43)" fill="#2C2C2C"/>
<rect x="251" y="33.1523" width="9" height="12.1522" transform="rotate(180 251 33.1523)" fill="#2C2C2C"/>
<rect x="148" y="148" width="1" height="42" transform="rotate(180 148 148)" fill="#2C2C2C"/>
<rect x="152" y="143" width="9" height="28" transform="rotate(180 152 143)" fill="#2C2C2C"/>
<rect x="159" y="123" width="1" height="75" transform="rotate(180 159 123)" fill="#2C2C2C"/>
<rect x="163" y="114.071" width="9" height="50" transform="rotate(180 163 114.071)" fill="#2C2C2C"/>
<rect x="5" y="152" width="1" height="45" transform="rotate(180 5 152)" fill="#202020"/>
<rect x="9" y="140" width="9" height="11" transform="rotate(180 9 140)" fill="#202020"/>
<rect x="27" y="189" width="1" height="76" transform="rotate(180 27 189)" fill="#202020"/>
<rect x="31" y="182" width="9" height="19" transform="rotate(180 31 182)" fill="#202020"/>
<rect x="38" y="241" width="1" height="74" transform="rotate(180 38 241)" fill="#202020"/>
<rect x="42" y="225" width="9" height="43" transform="rotate(180 42 225)" fill="#202020"/>
<rect x="49" y="241" width="1" height="46" transform="rotate(180 49 241)" fill="#202020"/>
<rect x="53" y="237" width="9" height="13" transform="rotate(180 53 237)" fill="#202020"/>
<rect x="60" y="253" width="1" height="53" transform="rotate(180 60 253)" fill="#202020"/>
<rect x="64" y="236" width="9" height="26" transform="rotate(180 64 236)" fill="#202020"/>
<rect x="82" y="197" width="1" height="57" transform="rotate(180 82 197)" fill="#2C2C2C"/>
<rect x="86" y="194.962" width="9" height="27.9623" transform="rotate(180 86 194.962)" fill="#2C2C2C"/>
<rect x="104" y="222" width="1" height="107" transform="rotate(180 104 222)" fill="#202020"/>
<rect x="108" y="156" width="9" height="24" transform="rotate(180 108 156)" fill="#202020"/>
<rect x="115" y="178" width="1" height="54" transform="rotate(180 115 178)" fill="#202020"/>
<rect x="119" y="159" width="9" height="26" transform="rotate(180 119 159)" fill="#202020"/>
<rect x="126" y="170" width="1" height="28" transform="rotate(180 126 170)" fill="#202020"/>
<rect x="130" y="161" width="9" height="13" transform="rotate(180 130 161)" fill="#202020"/>
<rect x="170" y="91" width="1" height="56" transform="rotate(180 170 91)" fill="#202020"/>
<rect x="174" y="88" width="9" height="23" transform="rotate(180 174 88)" fill="#202020"/>
<rect x="181" y="111" width="1" height="31" transform="rotate(180 181 111)" fill="#202020"/>
<rect x="185" y="108" width="9" height="22" transform="rotate(180 185 108)" fill="#202020"/>
<rect x="192" y="146" width="1" height="50" transform="rotate(180 192 146)" fill="#202020"/>
<rect x="196" y="129" width="9" height="27" transform="rotate(180 196 129)" fill="#202020"/>
<rect x="236" y="64" width="1" height="50" transform="rotate(180 236 64)" fill="#202020"/>
<rect x="240" y="59" width="9" height="27" transform="rotate(180 240 59)" fill="#202020"/>
<rect x="258" y="115" width="1" height="115" transform="rotate(180 258 115)" fill="#202020"/>
<rect x="262" y="109" width="9" height="85" transform="rotate(180 262 109)" fill="#202020"/>
<rect x="269" y="120" width="1" height="50" transform="rotate(180 269 120)" fill="#202020"/>
<rect x="273" y="117" width="9" height="22" transform="rotate(180 273 117)" fill="#202020"/>
<rect x="324" y="174" width="1" height="71" transform="rotate(180 324 174)" fill="#202020"/>
<rect x="328" y="162" width="9" height="13" transform="rotate(180 328 162)" fill="#202020"/>
<rect x="335" y="218" width="1" height="86" transform="rotate(180 335 218)" fill="#202020"/>
<rect x="339" y="191" width="9" height="41" transform="rotate(180 339 191)" fill="#202020"/>
<rect x="280" y="149" width="1" height="72" transform="rotate(180 280 149)" fill="#202020"/>
<rect x="284" y="137" width="9" height="43" transform="rotate(180 284 137)" fill="#202020"/>
<rect x="291" y="205" width="1" height="87" transform="rotate(180 291 205)" fill="#202020"/>
<rect x="295" y="190.5" width="9" height="51.9583" transform="rotate(180 295 190.5)" fill="#202020"/>
<rect x="302" y="204" width="1" height="44" transform="rotate(180 302 204)" fill="#202020"/>
<rect x="306" y="196.667" width="9" height="26.2778" transform="rotate(180 306 196.667)" fill="#202020"/>
<rect x="346" y="214" width="1" height="50" transform="rotate(180 346 214)" fill="#202020"/>
<rect x="350" y="206.667" width="9" height="26.2778" transform="rotate(180 350 206.667)" fill="#202020"/>
<rect x="357" y="214" width="1" height="50" transform="rotate(180 357 214)" fill="#202020"/>
<rect x="361" y="206.667" width="9" height="26.2778" transform="rotate(180 361 206.667)" fill="#202020"/>
<rect x="379" y="177" width="1" height="50" transform="rotate(180 379 177)" fill="#202020"/>
<rect x="383" y="160" width="9" height="17" transform="rotate(180 383 160)" fill="#202020"/>
<rect x="412" y="160" width="1" height="30" transform="rotate(180 412 160)" fill="#202020"/>
<rect x="416" y="149.8" width="9" height="10.2" transform="rotate(180 416 149.8)" fill="#202020"/>
<rect x="456" y="138" width="1" height="41" transform="rotate(180 456 138)" fill="#202020"/>
<rect x="460" y="116.8" width="9" height="10.2" transform="rotate(180 460 116.8)" fill="#202020"/>
<rect x="500" y="65" width="1" height="41" transform="rotate(180 500 65)" fill="#202020"/>
<rect x="504" y="43.7998" width="9" height="10.2" transform="rotate(180 504 43.7998)" fill="#202020"/>
<rect x="544" y="94" width="1" height="41" transform="rotate(180 544 94)" fill="#202020"/>
<rect x="548" y="83.7998" width="9" height="10.2" transform="rotate(180 548 83.7998)" fill="#202020"/>
<rect x="555" y="98" width="1" height="41" transform="rotate(180 555 98)" fill="#2C2C2C"/>
<rect x="559" y="77.2002" width="9" height="10.2" transform="rotate(180 559 77.2002)" fill="#2C2C2C"/>
<rect x="522" y="136" width="1" height="59" transform="rotate(180 522 136)" fill="#202020"/>
<rect x="526" y="105" width="9" height="19" transform="rotate(180 526 105)" fill="#202020"/>
<rect x="566" y="122" width="1" height="59" transform="rotate(180 566 122)" fill="#202020"/>
<rect x="570" y="97" width="9" height="19" transform="rotate(180 570 97)" fill="#202020"/>
<rect x="511" y="101" width="1" height="62" transform="rotate(180 511 101)" fill="#202020"/>
<rect x="515" y="93" width="9" height="44" transform="rotate(180 515 93)" fill="#202020"/>
<rect x="467" y="126" width="1" height="16" transform="rotate(180 467 126)" fill="#202020"/>
<rect x="471" y="129.8" width="9" height="10.2" transform="rotate(180 471 129.8)" fill="#202020"/>
<rect x="401" y="189" width="1" height="80" transform="rotate(180 401 189)" fill="#202020"/>
<rect x="405" y="167" width="9" height="38" transform="rotate(180 405 167)" fill="#202020"/>
<rect x="445" y="151" width="1" height="80" transform="rotate(180 445 151)" fill="#2C2C2C"/>
<rect x="449" y="129" width="9" height="38" transform="rotate(180 449 129)" fill="#2C2C2C"/>
<rect x="423" y="165" width="1" height="40" transform="rotate(180 423 165)" fill="#2C2C2C"/>
<rect x="427" y="154" width="9" height="22" transform="rotate(180 427 154)" fill="#2C2C2C"/>
<rect x="368" y="214" width="1" height="106" transform="rotate(180 368 214)" fill="#2C2C2C"/>
<rect x="372" y="198.453" width="9" height="55.7089" transform="rotate(180 372 198.453)" fill="#2C2C2C"/>
<rect x="478" y="128" width="1" height="53" transform="rotate(180 478 128)" fill="#2C2C2C"/>
<rect x="482" y="120" width="9" height="20" transform="rotate(180 482 120)" fill="#2C2C2C"/>
<rect x="533" y="121" width="1" height="53" transform="rotate(180 533 121)" fill="#2C2C2C"/>
<rect x="537" y="113" width="9" height="35" transform="rotate(180 537 113)" fill="#2C2C2C"/>
<rect x="577" y="98" width="1" height="53" transform="rotate(180 577 98)" fill="#2C2C2C"/>
<rect x="581" y="90" width="9" height="35" transform="rotate(180 581 90)" fill="#2C2C2C"/>
<rect x="610" y="49" width="1" height="34" transform="rotate(180 610 49)" fill="#2C2C2C"/>
<rect x="614" y="44.9243" width="9" height="17.8302" transform="rotate(180 614 44.9243)" fill="#2C2C2C"/>
<rect x="588" y="71" width="1" height="34" transform="rotate(180 588 71)" fill="#2C2C2C"/>
<rect x="592" y="61" width="9" height="12" transform="rotate(180 592 61)" fill="#2C2C2C"/>
<rect x="599" y="56" width="1" height="26" transform="rotate(180 599 56)" fill="#2C2C2C"/>
<rect x="603" y="48" width="9" height="4" transform="rotate(180 603 48)" fill="#2C2C2C"/>
<rect x="489" y="128" width="1" height="107" transform="rotate(180 489 128)" fill="#2C2C2C"/>
<rect x="493" y="112" width="9" height="66" transform="rotate(180 493 112)" fill="#2C2C2C"/>
<rect x="214" y="136" width="1" height="80" transform="rotate(180 214 136)" fill="#202020"/>
<rect x="218" y="119" width="9" height="44" transform="rotate(180 218 119)" fill="#202020"/>
</svg>
