<svg width="32" height="32" viewBox="0 0 32 32" fill="none" xmlns="http://www.w3.org/2000/svg">
<path d="M26.2886 26.2859C26.2863 26.2859 26.2863 20.575 26.2863 20.575L18.284 20.5716C18.2863 20.5716 18.2863 26.2824 18.2863 26.2824L26.2886 26.2859ZM17.1435 20.575C17.143 20.4248 17.1722 20.276 17.2293 20.1371C17.2864 19.9982 17.3703 19.8719 17.4762 19.7655C17.5821 19.659 17.708 19.5745 17.8466 19.5167C17.9852 19.4589 18.1339 19.429 18.284 19.4287H26.2886C26.9183 19.4287 27.4292 19.9293 27.4292 20.575V26.2824C27.4296 26.4326 27.4005 26.5814 27.3434 26.7203C27.2863 26.8592 27.2024 26.9855 27.0965 27.092C26.9905 27.1984 26.8647 27.2829 26.7261 27.3407C26.5874 27.3985 26.4388 27.4284 26.2886 27.4287H18.284C18.1336 27.4295 17.9844 27.4003 17.8453 27.3429C17.7062 27.2855 17.5799 27.201 17.4738 27.0943C17.3677 26.9877 17.2838 26.8609 17.2271 26.7216C17.1704 26.5822 17.142 26.4329 17.1435 26.2824V20.575Z" fill="white"/>
<path fill-rule="evenodd" clip-rule="evenodd" d="M21.7147 22.8574H22.8576V25.1431H21.7147V22.8574Z" fill="white"/>
<path d="M25.144 16.5715C25.144 15.8137 24.843 15.087 24.3071 14.5512C23.7713 14.0154 23.0446 13.7144 22.2868 13.7144C21.5291 13.7144 20.8023 14.0154 20.2665 14.5512C19.7307 15.087 19.4297 15.8137 19.4297 16.5715V20.0001H20.5725V16.5715C20.5725 16.1168 20.7532 15.6808 21.0746 15.3593C21.3961 15.0378 21.8322 14.8572 22.2868 14.8572C22.7415 14.8572 23.1775 15.0378 23.499 15.3593C23.8205 15.6808 24.0011 16.1168 24.0011 16.5715V17.1429H25.144V16.5715Z" fill="white"/>
<path d="M3.42951 16.8081C3.42958 16.505 3.55003 16.2143 3.76437 16.0001L16.5027 3.26177C16.6619 3.10247 16.8509 2.97609 17.0589 2.88987C17.267 2.80365 17.49 2.75928 17.7152 2.75928C17.9404 2.75928 18.1635 2.80365 18.3715 2.88987C18.5796 2.97609 18.7686 3.10247 18.9278 3.26177L21.8821 6.21605C22.0414 6.37526 22.1678 6.56428 22.254 6.77234C22.3402 6.9804 22.3846 7.20341 22.3846 7.42863C22.3846 7.65384 22.3402 7.87685 22.254 8.08491C22.1678 8.29297 22.0414 8.482 21.8821 8.6412L9.1438 21.3795C8.92952 21.5938 8.63888 21.7143 8.3358 21.7143H4.57237C4.26926 21.7143 3.97857 21.5939 3.76425 21.3796C3.54992 21.1653 3.42951 20.8746 3.42951 20.5715V16.8081ZM4.57237 16.8081V20.5715H8.3358L21.0741 7.8332C21.1273 7.78012 21.1695 7.71706 21.1983 7.64764C21.2271 7.57821 21.242 7.50379 21.242 7.42863C21.242 7.35346 21.2271 7.27904 21.1983 7.20962C21.1695 7.14019 21.1273 7.07714 21.0741 7.02405L18.1198 4.06977C18.0667 4.01655 18.0037 3.97433 17.9342 3.94553C17.8648 3.91672 17.7904 3.90189 17.7152 3.90189C17.6401 3.90189 17.5656 3.91672 17.4962 3.94553C17.4268 3.97433 17.3637 4.01655 17.3107 4.06977L4.57237 16.8081Z" fill="white"/>
<path d="M15.025 5.54742L19.5964 10.1189L20.4055 9.30971L15.8341 4.73828L15.025 5.54742ZM4.73926 15.8331L9.31069 20.4046L10.1198 19.5954L5.5484 15.024L4.73926 15.8331Z" fill="white"/>
<path d="M17.3109 7.02393L7.02522 17.3096L7.83436 18.1188L18.1201 7.83307L17.3109 7.02393Z" fill="white"/>
</svg>
