<svg width="32" height="32" viewBox="0 0 32 32" fill="none" xmlns="http://www.w3.org/2000/svg">
<path d="M3.42795 5.71415H28.5708V4.57129H3.42795V5.71415Z" fill="white"/>
<path d="M3.42795 19.4285H28.5708V18.2856H3.42795V19.4285Z" fill="white"/>
<path d="M3.42795 12.5711H25.7137V11.4282H3.42795V12.5711Z" fill="white"/>
<path d="M6.28625 26.2854H28.572V25.1426H6.28625V26.2854Z" fill="white"/>
<path d="M3.99984 27.4283C4.94612 27.4283 5.71412 26.6603 5.71412 25.714C5.71412 24.7677 4.94612 23.9997 3.99984 23.9997C3.05355 23.9997 2.28555 24.7677 2.28555 25.714C2.28555 26.6603 3.05355 27.4283 3.99984 27.4283ZM3.99984 28.5711C2.42155 28.5711 1.1427 27.2923 1.1427 25.714C1.1427 24.1357 2.42155 22.8569 3.99984 22.8569C5.57812 22.8569 6.85698 24.1357 6.85698 25.714C6.85698 27.2923 5.57812 28.5711 3.99984 28.5711ZM27.9998 13.714C28.9461 13.714 29.7141 12.946 29.7141 11.9997C29.7141 11.0534 28.9461 10.2854 27.9998 10.2854C27.0536 10.2854 26.2856 11.0534 26.2856 11.9997C26.2856 12.946 27.0536 13.714 27.9998 13.714ZM27.9998 14.8569C26.4216 14.8569 25.1427 13.578 25.1427 11.9997C25.1427 10.4214 26.4216 9.14258 27.9998 9.14258C29.5781 9.14258 30.857 10.4214 30.857 11.9997C30.857 13.578 29.5781 14.8569 27.9998 14.8569Z" fill="white"/>
</svg>
