<svg width="32" height="32" viewBox="0 0 32 32" fill="none" xmlns="http://www.w3.org/2000/svg">
<path d="M2.04486 26.2856L3.02657 25.3096L3.27914 25.049C3.48486 24.8319 3.71343 24.5816 3.96143 24.3005C4.66886 23.4959 5.37629 22.6113 6.03571 21.6742C7.158 20.0788 8.022 18.5016 8.52371 17.0102C9.934 12.8193 15.3317 11.6205 18.7214 15.5668C22.4369 19.8925 18.6791 26.2867 12.574 26.2867H2.04714L2.04486 26.2856ZM12.5717 25.1428C17.7649 25.1428 20.8826 19.8376 17.8529 16.3108C15.0529 13.0502 10.7386 14.0079 9.606 17.3748C9.06429 18.9839 8.15114 20.6536 6.96943 22.3313C6.28486 23.305 5.55114 24.2205 4.81857 25.0548L4.74086 25.1439H12.5729L12.5717 25.1428Z" fill="white"/>
<path d="M20.7791 6.85938L19.1574 8.32909C17.9791 9.39766 17.9288 11.1874 19.0476 12.3062L21.1928 14.4514C22.3082 15.5668 24.1105 15.5417 25.2076 14.3999L31.6648 7.6868L30.8408 6.8948L24.3836 13.6079C23.7276 14.2891 22.6614 14.3039 21.9996 13.6434L19.8545 11.4982C19.1985 10.8422 19.2282 9.8068 19.9242 9.17595L21.5459 7.70623L20.7779 6.85938H20.7791Z" fill="white"/>
</svg>
