<svg width="32" height="32" viewBox="0 0 32 32" fill="none" xmlns="http://www.w3.org/2000/svg">
<path fill-rule="evenodd" clip-rule="evenodd" d="M15.9993 6.85721C15.09 6.85721 14.2179 7.21844 13.5749 7.86142C12.932 8.5044 12.5707 9.37647 12.5707 10.2858V13.7144H22.285C23.0428 13.7144 23.7695 14.0154 24.3053 14.5512C24.8411 15.087 25.1422 15.8137 25.1422 16.5715V24.5715C25.1422 24.9467 25.0683 25.3182 24.9247 25.6649C24.7811 26.0115 24.5706 26.3265 24.3053 26.5918C24.04 26.8571 23.725 27.0676 23.3784 27.2112C23.0318 27.3547 22.6602 27.4286 22.285 27.4286H9.71359C9.33838 27.4286 8.96685 27.3547 8.62021 27.2112C8.27356 27.0676 7.95859 26.8571 7.69328 26.5918C7.42797 26.3265 7.21752 26.0115 7.07393 25.6649C6.93035 25.3182 6.85645 24.9467 6.85645 24.5715V16.5715C6.85645 15.8137 7.15746 15.087 7.69328 14.5512C8.2291 14.0154 8.95583 13.7144 9.71359 13.7144H11.4279V10.2858C11.4279 9.07337 11.9095 7.9106 12.7668 7.0533C13.6241 6.19599 14.7869 5.71436 15.9993 5.71436C17.2117 5.71436 18.3745 6.19599 19.2318 7.0533C20.0891 7.9106 20.5707 9.07337 20.5707 10.2858H19.4279C19.4279 9.37647 19.0667 8.5044 18.4237 7.86142C17.7807 7.21844 16.9086 6.85721 15.9993 6.85721ZM14.8564 19.4286C14.8564 19.1255 14.9769 18.8348 15.1912 18.6205C15.4055 18.4062 15.6962 18.2858 15.9993 18.2858C16.3024 18.2858 16.5931 18.4062 16.8074 18.6205C17.0218 18.8348 17.1422 19.1255 17.1422 19.4286V21.7144C17.1422 22.0175 17.0218 22.3081 16.8074 22.5225C16.5931 22.7368 16.3024 22.8572 15.9993 22.8572C15.6962 22.8572 15.4055 22.7368 15.1912 22.5225C14.9769 22.3081 14.8564 22.0175 14.8564 21.7144V19.4286ZM7.9993 16.5715C7.9993 15.6229 8.76502 14.8572 9.71359 14.8572H22.285C23.2336 14.8572 23.9993 15.6229 23.9993 16.5715V24.5715C23.9993 25.5201 23.2336 26.2858 22.285 26.2858H9.71359C9.25893 26.2858 8.8229 26.1052 8.5014 25.7837C8.17991 25.4622 7.9993 25.0262 7.9993 24.5715V16.5715Z" fill="white"/>
</svg>
