<svg width="32" height="32" viewBox="0 0 32 32" fill="none" xmlns="http://www.w3.org/2000/svg">
<path d="M23.3719 9.72015L25.7753 20.1339L26.8885 19.8767L24.485 9.463L23.3719 9.72015ZM15.9365 16.0127L24.6576 21.5624L25.2713 20.5979L16.5502 15.0481L15.9365 16.0127ZM16.4348 13.3899L21.9342 9.26529L21.2485 8.35101L15.749 12.4756L16.4348 13.3899ZM12.5273 15.8036L7.1319 23.511L8.0679 24.1659L13.4633 16.4584L12.5273 15.8036ZM7.23704 23.623L9.87704 8.66529L8.75133 8.46643L6.11133 23.4241L7.23704 23.623ZM10.3342 8.51901L12.6142 12.5099L13.6062 11.943L11.3262 7.95215L10.3342 8.51901Z" fill="white"/>
<path d="M9.7154 8.00014C10.6617 8.00014 11.4297 7.23214 11.4297 6.28585C11.4297 5.33957 10.6617 4.57157 9.7154 4.57157C8.76912 4.57157 8.00112 5.33957 8.00112 6.28585C8.00112 7.23214 8.76912 8.00014 9.7154 8.00014ZM9.7154 9.143C8.13712 9.143 6.85826 7.86414 6.85826 6.28585C6.85826 4.70757 8.13712 3.42871 9.7154 3.42871C11.2937 3.42871 12.5725 4.70757 12.5725 6.28585C12.5725 7.86414 11.2937 9.143 9.7154 9.143ZM6.28683 27.4287C7.23312 27.4287 8.00112 26.6607 8.00112 25.7144C8.00112 24.7681 7.23312 24.0001 6.28683 24.0001C5.34054 24.0001 4.57254 24.7681 4.57254 25.7144C4.57254 26.6607 5.34054 27.4287 6.28683 27.4287ZM6.28683 28.5716C4.70854 28.5716 3.42969 27.2927 3.42969 25.7144C3.42969 24.1361 4.70854 22.8573 6.28683 22.8573C7.86512 22.8573 9.14397 24.1361 9.14397 25.7144C9.14397 27.2927 7.86512 28.5716 6.28683 28.5716ZM14.2868 16.0001C15.2331 16.0001 16.0011 15.2321 16.0011 14.2859C16.0011 13.3396 15.2331 12.5716 14.2868 12.5716C13.3405 12.5716 12.5725 13.3396 12.5725 14.2859C12.5725 15.2321 13.3405 16.0001 14.2868 16.0001ZM14.2868 17.143C12.7085 17.143 11.4297 15.8641 11.4297 14.2859C11.4297 12.7076 12.7085 11.4287 14.2868 11.4287C15.8651 11.4287 17.144 12.7076 17.144 14.2859C17.144 15.8641 15.8651 17.143 14.2868 17.143ZM23.4297 9.143C24.376 9.143 25.144 8.375 25.144 7.42871C25.144 6.48243 24.376 5.71443 23.4297 5.71443C22.4834 5.71443 21.7154 6.48243 21.7154 7.42871C21.7154 8.375 22.4834 9.143 23.4297 9.143ZM23.4297 10.2859C21.8514 10.2859 20.5725 9.007 20.5725 7.42871C20.5725 5.85043 21.8514 4.57157 23.4297 4.57157C25.008 4.57157 26.2868 5.85043 26.2868 7.42871C26.2868 9.007 25.008 10.2859 23.4297 10.2859ZM26.8583 24.0001C27.8045 24.0001 28.5725 23.2321 28.5725 22.2859C28.5725 21.3396 27.8045 20.5716 26.8583 20.5716C25.912 20.5716 25.144 21.3396 25.144 22.2859C25.144 23.2321 25.912 24.0001 26.8583 24.0001ZM26.8583 25.143C25.28 25.143 24.0011 23.8641 24.0011 22.2859C24.0011 20.7076 25.28 19.4287 26.8583 19.4287C28.4365 19.4287 29.7154 20.7076 29.7154 22.2859C29.7154 23.8641 28.4365 25.143 26.8583 25.143Z" fill="white"/>
</svg>
