<svg width="32" height="32" viewBox="0 0 32 32" fill="none" xmlns="http://www.w3.org/2000/svg">
<path d="M16.0002 11.4284C15.394 11.4284 14.8126 11.6692 14.3839 12.0979C13.9553 12.5266 13.7144 13.1079 13.7144 13.7141V26.2856H6.8573V13.7141C6.8573 8.66729 10.9533 4.57129 16.0002 4.57129C21.047 4.57129 25.143 8.66729 25.143 13.7141V26.2856H18.2859V13.7141C18.2859 13.1079 18.0451 12.5266 17.6164 12.0979C17.1877 11.6692 16.6064 11.4284 16.0002 11.4284ZM12.5716 13.7141C12.5716 12.8048 12.9328 11.9328 13.5758 11.2898C14.2188 10.6468 15.0908 10.2856 16.0002 10.2856C16.9095 10.2856 17.7815 10.6468 18.4245 11.2898C19.0675 11.9328 19.4287 12.8048 19.4287 13.7141V25.1427H24.0002V13.7141C24.0002 9.29815 20.4162 5.71415 16.0002 5.71415C11.5842 5.71415 8.00016 9.29815 8.00016 13.7141V25.1427H12.5716V13.7141Z" fill="white"/>
<path fill-rule="evenodd" clip-rule="evenodd" d="M7.42867 20.5713H13.143V21.7141H7.42867V20.5713ZM18.8572 20.5713H24.5715V21.7141H18.8572V20.5713Z" fill="white"/>
</svg>
