<svg width="119" height="120" viewBox="0 0 119 120" fill="none" xmlns="http://www.w3.org/2000/svg">
<path fill-rule="evenodd" clip-rule="evenodd" d="M75.0966 28.4067H42.9824V60.5209H75.0966V28.4067ZM47.4785 30.9759V57.3804H52.2446L52.2461 52.1048C52.247 49.2032 52.2804 46.7796 52.3205 46.7191C52.3607 46.6587 52.7063 46.601 53.0886 46.591C53.9531 46.5683 54.7265 46.434 55.5385 46.1655C56.6384 45.8018 57.236 45.4404 59.2944 43.8944C61.2292 42.4412 62.03 42.0847 63.3654 42.0821C64.5018 42.0799 65.6432 42.5084 66.0559 43.0922C66.3134 43.4565 66.4178 44.2823 66.2588 44.6965C66.0527 45.2332 65.1303 45.6329 62.4914 46.3291C59.101 47.2235 57.6629 47.8076 56.682 48.6881C55.6369 49.6265 55.1321 51.0921 55.2557 52.8299C55.3827 54.614 56.2641 56.0709 57.7463 56.9468C58.5343 57.4125 59.2973 57.6542 60.6149 57.8555C62.9366 58.2104 65.2273 57.5693 66.6043 56.1793L67.0392 55.7404L67.0469 56.0854C67.051 56.2751 67.0622 56.6328 67.0717 56.8804L67.0889 57.3304L70.9219 57.3848L70.887 50.6068C70.8523 43.8469 70.8516 43.8267 70.6218 43.0786C70.0328 41.1612 69.0567 39.9496 67.441 39.1307C65.05 37.9187 61.5679 37.8802 59.344 39.0415C58.5904 39.435 58.2946 39.6496 57.0106 40.7338C55.4491 42.0527 54.4604 42.5029 53.0909 42.5191L52.2942 42.5285V38.9782C52.2942 35.8935 52.3138 35.4266 52.4432 35.418C52.5251 35.4125 54.9722 35.4012 57.8814 35.3928L63.1707 35.3776L63.1171 31.0271L47.4785 30.9759ZM65.9626 48.5342C65.5432 48.8347 64.8018 49.115 63.415 49.4976C60.2525 50.3702 59.6915 50.7626 59.6915 52.1018C59.6915 53.3536 60.385 53.8816 62.1318 53.9599C64.1592 54.0507 65.6379 53.4333 66.2757 52.2298C66.4642 51.8741 66.4918 51.6327 66.5249 50.0545L66.5255 50.0268C66.5509 48.813 66.5603 48.3647 66.4147 48.3059C66.3294 48.2714 66.1909 48.3707 65.9713 48.528L65.9626 48.5342Z" fill="url(#paint0_linear_70_1803)"/>
<path d="M119.255 60.4407C119.255 93.297 92.6193 119.932 59.763 119.932C26.9067 119.932 0.271484 93.297 0.271484 60.4407C0.271484 27.5845 26.9067 0.949219 59.763 0.949219C92.6193 0.949219 119.255 27.5845 119.255 60.4407ZM3.52957 60.4407C3.52957 91.4976 28.7061 116.674 59.763 116.674C90.8199 116.674 115.996 91.4976 115.996 60.4407C115.996 29.3839 90.8199 4.20731 59.763 4.20731C28.7061 4.20731 3.52957 29.3839 3.52957 60.4407Z" fill="url(#paint1_linear_70_1803)"/>
<path d="M14.7226 79.9192V67.2702H17.7385V79.9192H14.7226Z" fill="white"/>
<path d="M19.5406 79.9192V67.2702H22.3501L24.9343 73.1524C25.0135 73.3184 25.0969 73.5532 25.1845 73.8566C25.2763 74.16 25.3723 74.5264 25.4724 74.9557C25.4473 74.7325 25.4286 74.4863 25.4161 74.2172C25.4035 73.9482 25.3973 73.6219 25.3973 73.2383V67.2702H28.2193V79.9192H25.3973L22.8131 74.0798C22.7338 73.9081 22.6462 73.6648 22.5503 73.3499C22.4585 73.0351 22.3647 72.6744 22.2687 72.2679C22.2979 72.4912 22.3188 72.7259 22.3313 72.9721C22.3438 73.2125 22.3501 73.5532 22.3501 73.994V79.9192H19.5406Z" fill="white"/>
<path d="M29.2204 67.2702H32.2489L33.8007 75.4366L35.4651 67.2702H38.3747L35.2711 79.9192H32.324L29.2204 67.2702Z" fill="white"/>
<path d="M39.3758 79.9192V67.2702H46.7467V70.3015H42.3354V71.9846H46.0647V74.887H42.3354V76.8449H46.9282V79.9192H39.3758Z" fill="white"/>
<path d="M47.8793 75.9776H50.7576C50.8368 76.4356 50.9808 76.7648 51.1893 76.9651C51.3979 77.1655 51.7087 77.2657 52.1216 77.2657C52.4679 77.2657 52.739 77.1856 52.9351 77.0253C53.1353 76.8592 53.2354 76.6331 53.2354 76.3469C53.2354 75.8889 52.8204 75.5168 51.9902 75.2305C51.8234 75.1733 51.6962 75.1303 51.6086 75.1017C50.9286 74.8613 50.3863 74.6437 49.9817 74.4491C49.5812 74.2487 49.2892 74.0627 49.1057 73.8909C48.7511 73.5417 48.4841 73.1238 48.3048 72.6372C48.1296 72.1506 48.042 71.5953 48.042 70.9713C48.042 69.7175 48.3861 68.7329 49.0744 68.0173C49.7627 67.3016 50.7096 66.9438 51.9152 66.9438C53.0998 66.9438 54.0322 67.2873 54.7121 67.9743C55.3921 68.6556 55.7758 69.6345 55.8634 70.9111H53.054C53.0081 70.539 52.8871 70.2614 52.691 70.0782C52.4992 69.895 52.2238 69.8034 51.8651 69.8034C51.5481 69.8034 51.3124 69.875 51.158 70.0181C51.0037 70.1612 50.9265 70.3787 50.9265 70.6707C50.9265 71.0886 51.3312 71.4378 52.1404 71.7183C52.2113 71.747 52.2656 71.767 52.3031 71.7785C52.4199 71.8185 52.5972 71.8786 52.835 71.9588C53.907 72.3309 54.6078 72.6687 54.9374 72.9721C55.3462 73.3442 55.6444 73.7678 55.8321 74.243C56.0199 74.7182 56.1137 75.2792 56.1137 75.9261C56.1137 77.3229 55.7571 78.3964 55.0437 79.1463C54.3346 79.8963 53.3168 80.2712 51.9902 80.2712C50.768 80.2712 49.7982 79.8963 49.0807 79.1463C48.3673 78.3964 47.9669 77.3401 47.8793 75.9776Z" fill="white"/>
<path d="M59.3862 79.9192V70.602H56.7332V67.2702H64.9426V70.602H62.3459V79.9192H59.3862Z" fill="white"/>
<path d="M68.6343 79.9192H65.9562V67.2702H69.5604L70.8368 73.5818C70.8535 73.6677 70.8869 73.8652 70.937 74.1743C70.987 74.4777 71.0579 74.8985 71.1497 75.4366C71.2081 75.013 71.2623 74.6437 71.3124 74.3289C71.3624 74.0083 71.4062 73.7678 71.4438 73.6075L72.7515 67.2702H76.3494V79.9192H73.6713L73.6964 73.6934C73.6964 73.3156 73.6964 72.9492 73.6964 72.5942C73.7005 72.2336 73.7047 71.8615 73.7089 71.4779C73.6088 72.1305 73.4878 72.8433 73.346 73.6161L73.3272 73.7278L72.1884 79.9192H70.1235L68.9722 73.8652C68.918 73.5904 68.8637 73.2755 68.8095 72.9206C68.7553 72.5656 68.6844 72.0847 68.5968 71.4779C68.6093 72.0218 68.6176 72.4883 68.6218 72.8776C68.6301 73.2669 68.6343 73.5789 68.6343 73.8136V79.9192Z" fill="white"/>
<path d="M78.0951 79.9192V67.2702H85.4661V70.3015H81.0548V71.9846H84.7841V74.887H81.0548V76.8449H85.6475V79.9192H78.0951Z" fill="white"/>
<path d="M87.0304 79.9192V67.2702H89.8398L92.4241 73.1524C92.5033 73.3184 92.5867 73.5532 92.6743 73.8566C92.7661 74.16 92.8621 74.5264 92.9622 74.9557C92.9371 74.7325 92.9184 74.4863 92.9059 74.2172C92.8933 73.9482 92.8871 73.6219 92.8871 73.2383V67.2702H95.7091V79.9192H92.8871L90.3029 74.0798C90.2236 73.9081 90.136 73.6648 90.0401 73.3499C89.9483 73.0351 89.8544 72.6744 89.7585 72.2679C89.7877 72.4912 89.8086 72.7259 89.8211 72.9721C89.8336 73.2125 89.8398 73.5532 89.8398 73.994V79.9192H87.0304Z" fill="white"/>
<path d="M99.4071 79.9192V70.602H96.754V67.2702H104.963V70.602H102.367V79.9192H99.4071Z" fill="white"/>
<defs>
<linearGradient id="paint0_linear_70_1803" x1="42.9824" y1="60.5209" x2="76.3795" y2="58.0377" gradientUnits="userSpaceOnUse">
<stop stop-color="#F6D58A"/>
<stop offset="0.25" stop-color="#FAE1AE"/>
<stop offset="0.5" stop-color="#ECC06A"/>
<stop offset="0.75" stop-color="#ECC06A"/>
<stop offset="1" stop-color="#ECC06A"/>
</linearGradient>
<linearGradient id="paint1_linear_70_1803" x1="0.271484" y1="119.932" x2="124.008" y2="110.732" gradientUnits="userSpaceOnUse">
<stop stop-color="#F6D58A"/>
<stop offset="0.25" stop-color="#FAE1AE"/>
<stop offset="0.5" stop-color="#ECC06A"/>
<stop offset="0.75" stop-color="#ECC06A"/>
<stop offset="1" stop-color="#ECC06A"/>
</linearGradient>
</defs>
</svg>
