<svg width="52" height="52" viewBox="0 0 52 52" fill="none" xmlns="http://www.w3.org/2000/svg">
<path d="M45.76 0V4.16H43.68C42.5344 4.16 41.6 5.09438 41.6 6.24V16.64C41.6 17.7856 42.5344 18.72 43.68 18.72H49.92C51.0656 18.72 52 17.7856 52 16.64V6.24C52 5.09438 51.0656 4.16 49.92 4.16H47.84V0H45.76ZM43.68 6.24H49.92C49.3472 6.24 48.88 6.70719 48.88 7.28C48.88 7.85281 49.3472 8.32 49.92 8.32V12.48C49.3472 12.48 48.88 12.9472 48.88 13.52C48.88 14.0928 49.3472 14.56 49.92 14.56V16.64H47.84C47.84 16.0672 47.3728 15.6 46.8 15.6C46.2272 15.6 45.76 16.0672 45.76 16.64H43.68V14.56C44.2528 14.56 44.72 14.0928 44.72 13.52C44.72 12.9472 44.2528 12.48 43.68 12.48V8.32C44.2528 8.32 44.72 7.85281 44.72 7.28C44.72 6.70719 44.2528 6.24 43.68 6.24ZM46.8 9.36C46.2272 9.36 45.76 9.82719 45.76 10.4C45.76 10.9728 46.2272 11.44 46.8 11.44C47.3728 11.44 47.84 10.9728 47.84 10.4C47.84 9.82719 47.3728 9.36 46.8 9.36ZM17.68 13.52V17.68H15.6C14.4544 17.68 13.52 18.6144 13.52 19.76V30.16C13.52 31.3056 14.4544 32.24 15.6 32.24H21.84C22.9856 32.24 23.92 31.3056 23.92 30.16V19.76C23.92 18.6144 22.9856 17.68 21.84 17.68H19.76V13.52H17.68ZM33.28 15.6V19.76H31.2C30.0544 19.76 29.12 20.6944 29.12 21.84V32.24C29.12 33.3856 30.0544 34.32 31.2 34.32H37.44C38.5856 34.32 39.52 33.3856 39.52 32.24V21.84C39.52 20.6944 38.5856 19.76 37.44 19.76H35.36V15.6H33.28ZM15.6 19.76H21.84C21.2672 19.76 20.8 20.2272 20.8 20.8C20.8 21.3728 21.2672 21.84 21.84 21.84V26C21.2672 26 20.8 26.4672 20.8 27.04C20.8 27.6128 21.2672 28.08 21.84 28.08V30.16H19.76C19.76 29.5872 19.2928 29.12 18.72 29.12C18.1472 29.12 17.68 29.5872 17.68 30.16H15.6V28.08C16.1728 28.08 16.64 27.6128 16.64 27.04C16.64 26.4672 16.1728 26 15.6 26V21.84C16.1728 21.84 16.64 21.3728 16.64 20.8C16.64 20.2272 16.1728 19.76 15.6 19.76ZM45.76 19.76V22.88H47.84V19.76H45.76ZM31.2 21.84H37.44C36.8672 21.84 36.4 22.3072 36.4 22.88C36.4 23.4528 36.8672 23.92 37.44 23.92V28.08C36.8672 28.08 36.4 28.5472 36.4 29.12C36.4 29.6928 36.8672 30.16 37.44 30.16V32.24H35.36C35.36 31.6672 34.8928 31.2 34.32 31.2C33.7472 31.2 33.28 31.6672 33.28 32.24H31.2V30.16C31.7728 30.16 32.24 29.6928 32.24 29.12C32.24 28.5472 31.7728 28.08 31.2 28.08V23.92C31.7728 23.92 32.24 23.4528 32.24 22.88C32.24 22.3072 31.7728 21.84 31.2 21.84ZM18.72 22.88C18.1472 22.88 17.68 23.3472 17.68 23.92C17.68 24.4928 18.1472 24.96 18.72 24.96C19.2928 24.96 19.76 24.4928 19.76 23.92C19.76 23.3472 19.2928 22.88 18.72 22.88ZM34.32 24.96C33.7472 24.96 33.28 25.4272 33.28 26C33.28 26.5728 33.7472 27.04 34.32 27.04C34.8928 27.04 35.36 26.5728 35.36 26C35.36 25.4272 34.8928 24.96 34.32 24.96ZM4.16 29.12V33.28H2.08C0.934375 33.28 0 34.2144 0 35.36V45.76C0 46.9056 0.934375 47.84 2.08 47.84H8.32C9.46562 47.84 10.4 46.9056 10.4 45.76V35.36C10.4 34.2144 9.46562 33.28 8.32 33.28H6.24V29.12H4.16ZM17.68 33.28V36.4H19.76V33.28H17.68ZM2.08 35.36H8.32V45.76H2.08V35.36ZM33.28 35.36V38.48H35.36V35.36H33.28ZM4.16 48.88V52H6.24V48.88H4.16Z" fill="url(#paint0_linear_2071_82)"/>
<defs>
<linearGradient id="paint0_linear_2071_82" x1="-2.38108e-07" y1="52" x2="54.0773" y2="47.9791" gradientUnits="userSpaceOnUse">
<stop stop-color="#F6D58A"/>
<stop offset="0.25" stop-color="#FAE1AE"/>
<stop offset="0.5" stop-color="#ECC06A"/>
<stop offset="0.75" stop-color="#ECC06A"/>
<stop offset="1" stop-color="#ECC06A"/>
</linearGradient>
</defs>
</svg>
