<svg width="52" height="48" viewBox="0 0 52 48" fill="none" xmlns="http://www.w3.org/2000/svg">
<path d="M17.68 0.0800781C14.2472 0.0800781 11.44 2.88727 11.44 6.32008C11.44 8.38383 12.4556 10.2201 14.0075 11.3576C13.1747 11.776 12.415 12.3163 11.765 12.9826C11.0094 12.7145 10.205 12.5601 9.36 12.5601C5.35031 12.5601 2.08 15.8304 2.08 19.8401C2.08 22.3873 3.40031 24.6501 5.395 25.9501C2.21813 27.4532 -1.88593e-08 30.6707 -1.88593e-08 34.4001V39.0801C-0.00406252 39.4132 0.154376 39.726 0.4225 39.9251C0.4225 39.9251 1.15781 40.4451 2.5675 40.8676C3.97719 41.2901 6.15469 41.6801 9.36 41.6801C12.5653 41.6801 14.7428 41.2901 16.1525 40.8676C16.3353 40.8148 16.4816 40.762 16.64 40.7051V45.3201C16.6359 45.6532 16.7944 45.966 17.0625 46.1651C17.0625 46.1651 17.7978 46.6851 19.2075 47.1076C20.6172 47.5301 22.7947 47.9201 26 47.9201C29.2053 47.9201 31.3828 47.5301 32.7925 47.1076C34.2022 46.6851 34.9375 46.1651 34.9375 46.1651C35.2056 45.966 35.3641 45.6532 35.36 45.3201V40.7051C35.5184 40.762 35.6647 40.8148 35.8475 40.8676C37.2572 41.2901 39.4347 41.6801 42.64 41.6801C45.8453 41.6801 48.0228 41.2901 49.4325 40.8676C50.8422 40.4451 51.5775 39.9251 51.5775 39.9251C51.8456 39.726 52.0041 39.4132 52 39.0801V34.4001C52 30.6707 49.7819 27.4532 46.605 25.9501C48.5997 24.6501 49.92 22.3873 49.92 19.8401C49.92 15.8304 46.6497 12.5601 42.64 12.5601C41.7341 12.5601 40.8728 12.7429 40.0725 13.0476C39.4184 12.361 38.6466 11.7882 37.7975 11.3576C39.3494 10.2201 40.365 8.38383 40.365 6.32008C40.365 2.88727 37.5578 0.0800781 34.125 0.0800781C30.6922 0.0800781 27.885 2.88727 27.885 6.32008C27.885 8.38383 28.9006 10.2201 30.4525 11.3576C28.0637 12.5357 26.3169 14.8026 25.9025 17.5326C25.4881 14.7985 23.7453 12.5316 21.3525 11.3576C22.9044 10.2201 23.92 8.38383 23.92 6.32008C23.92 2.88727 21.1128 0.0800781 17.68 0.0800781ZM17.68 2.16008C19.9916 2.16008 21.84 4.00852 21.84 6.32008C21.84 8.63164 19.9916 10.4801 17.68 10.4801C15.3684 10.4801 13.52 8.63164 13.52 6.32008C13.52 4.00852 15.3684 2.16008 17.68 2.16008ZM34.125 2.16008C36.4366 2.16008 38.285 4.00852 38.285 6.32008C38.285 8.63164 36.4366 10.4801 34.125 10.4801C31.8134 10.4801 29.965 8.63164 29.965 6.32008C29.965 4.00852 31.8134 2.16008 34.125 2.16008ZM17.68 12.5601C21.1859 12.5601 23.92 15.2941 23.92 18.8001V19.1251C20.93 20.031 18.72 22.8016 18.72 26.0801C18.72 28.6273 20.0403 30.8901 22.035 32.1901C20.7309 32.8076 19.6137 33.7135 18.72 34.8226V34.4001C18.72 30.6707 16.5019 27.4532 13.325 25.9501C15.3197 24.6501 16.64 22.3873 16.64 19.8401C16.64 17.4676 15.4822 15.3551 13.715 14.0226C14.7956 13.1004 16.1362 12.5601 17.68 12.5601ZM34.125 12.5601C35.7134 12.5601 37.0947 13.1166 38.1875 14.0876C36.4731 15.4201 35.36 17.5123 35.36 19.8401C35.36 22.3873 36.6803 24.6501 38.675 25.9501C35.4981 27.4532 33.28 30.6707 33.28 34.4001V34.8226C32.3862 33.7135 31.2691 32.8076 29.965 32.1901C31.9597 30.8901 33.28 28.6273 33.28 26.0801C33.28 22.7285 30.9806 19.897 27.885 19.0601V18.8001C27.885 15.2941 30.6191 12.5601 34.125 12.5601ZM9.36 14.6401C10.1684 14.6401 10.92 14.8351 11.6025 15.1601C13.3494 15.997 14.56 17.7641 14.56 19.8401C14.56 22.7245 12.2444 25.0401 9.36 25.0401C6.47563 25.0401 4.16 22.7245 4.16 19.8401C4.16 16.9557 6.47563 14.6401 9.36 14.6401ZM42.64 14.6401C45.5244 14.6401 47.84 16.9557 47.84 19.8401C47.84 22.7245 45.5244 25.0401 42.64 25.0401C39.7556 25.0401 37.44 22.7245 37.44 19.8401C37.44 17.9185 38.4678 16.257 40.0075 15.3551C40.0156 15.351 40.0319 15.3591 40.04 15.3551C40.1944 15.3226 40.3366 15.2576 40.4625 15.1601C40.4991 15.1438 40.5234 15.1113 40.56 15.0951C40.5803 15.087 40.6047 15.0748 40.625 15.0626C41.2466 14.7985 41.9209 14.6401 42.64 14.6401ZM26 20.8801C28.8844 20.8801 31.2 23.1957 31.2 26.0801C31.2 28.9645 28.8844 31.2801 26 31.2801C23.1156 31.2801 20.8 28.9645 20.8 26.0801C20.8 23.1957 23.1156 20.8801 26 20.8801ZM9.36 27.1201C13.3697 27.1201 16.64 30.3904 16.64 34.4001V38.3976C16.4856 38.491 16.4247 38.5966 15.5675 38.8526C14.3772 39.2101 12.3947 39.6001 9.36 39.6001C6.32531 39.6001 4.34281 39.2101 3.1525 38.8526C2.29531 38.5966 2.23438 38.491 2.08 38.3976V34.4001C2.08 30.3904 5.35031 27.1201 9.36 27.1201ZM42.64 27.1201C46.6497 27.1201 49.92 30.3904 49.92 34.4001V38.3976C49.7656 38.491 49.7047 38.5966 48.8475 38.8526C47.6572 39.2101 45.6747 39.6001 42.64 39.6001C39.6053 39.6001 37.6228 39.2101 36.4325 38.8526C35.5753 38.5966 35.5144 38.491 35.36 38.3976V34.4001C35.36 30.3904 38.6303 27.1201 42.64 27.1201ZM26 33.3601C30.0097 33.3601 33.28 36.6304 33.28 40.6401V44.6376C33.1256 44.731 33.0647 44.8366 32.2075 45.0926C31.0172 45.4501 29.0347 45.8401 26 45.8401C22.9653 45.8401 20.9828 45.4501 19.7925 45.0926C18.9353 44.8366 18.8744 44.731 18.72 44.6376V40.6401C18.72 36.6304 21.9903 33.3601 26 33.3601Z" fill="url(#paint0_linear_2071_90)"/>
<defs>
<linearGradient id="paint0_linear_2071_90" x1="-7.65321e-05" y1="47.9201" x2="54.0234" y2="43.5539" gradientUnits="userSpaceOnUse">
<stop stop-color="#F6D58A"/>
<stop offset="0.25" stop-color="#FAE1AE"/>
<stop offset="0.5" stop-color="#ECC06A"/>
<stop offset="0.75" stop-color="#ECC06A"/>
<stop offset="1" stop-color="#ECC06A"/>
</linearGradient>
</defs>
</svg>
