<svg width="61" height="58" viewBox="0 0 61 58" fill="none" xmlns="http://www.w3.org/2000/svg">
<path d="M18.2 0.340088C17.495 0.340088 16.92 0.915088 16.92 1.62009C16.92 2.32509 17.495 2.90009 18.2 2.90009C18.905 2.90009 19.48 2.32509 19.48 1.62009C19.48 0.915088 18.905 0.340088 18.2 0.340088ZM43.8 0.340088C43.095 0.340088 42.52 0.915088 42.52 1.62009C42.52 2.32509 43.095 2.90009 43.8 2.90009C44.505 2.90009 45.08 2.32509 45.08 1.62009C45.08 0.915088 44.505 0.340088 43.8 0.340088ZM18.2 4.18009C17.495 4.18009 16.92 4.75509 16.92 5.46009C16.92 6.16509 17.495 6.74009 18.2 6.74009C18.905 6.74009 19.48 6.16509 19.48 5.46009C19.48 4.75509 18.905 4.18009 18.2 4.18009ZM43.8 4.18009C43.095 4.18009 42.52 4.75509 42.52 5.46009C42.52 6.16509 43.095 6.74009 43.8 6.74009C44.505 6.74009 45.08 6.16509 45.08 5.46009C45.08 4.75509 44.505 4.18009 43.8 4.18009ZM57.68 4.18009C57.17 4.26009 56.76 4.64009 56.64 5.14009C56.64 5.14009 55.89 8.00509 55.04 10.8601C54.615 12.2851 54.18 13.7101 53.8 14.7401C53.73 14.9351 53.665 15.0151 53.6 15.1801C53.43 15.0301 53.275 14.9151 53.08 14.7401C52.71 14.4151 52.315 14.0801 51.88 13.7801C51.445 13.4801 50.975 13.1401 50.2 13.1401C49.17 13.1401 48.77 13.6951 48.36 14.1401C47.95 14.5851 47.555 15.0951 47.2 15.5801C46.845 16.0651 46.53 16.5401 46.28 16.8201C46.225 16.8851 46.205 16.8701 46.16 16.9001C46.01 16.8551 45.71 16.7701 45.2 16.4201C44.585 16.0001 43.84 15.3751 43.12 14.7401C42.4 14.1051 41.69 13.4701 41 12.9401C40.31 12.4101 39.775 11.8601 38.68 11.8601C37.81 11.8601 37.615 12.1901 37.28 12.4601C36.945 12.7301 36.61 13.0801 36.24 13.4601C35.5 14.2201 34.63 15.1801 33.8 16.1401C32.97 17.1001 32.165 18.0551 31.52 18.7401C31.215 19.0651 30.94 19.3051 30.76 19.4601C30.6 19.4051 30.04 19.2451 29.4 18.9801C29.025 18.8251 28.665 18.6751 28.32 18.5401C27.975 18.4051 27.79 18.2601 27.16 18.2601C26.595 18.2601 26.49 18.3651 26.28 18.4601C26.07 18.5551 25.88 18.6901 25.64 18.8201C25.16 19.0751 24.595 19.3801 24.04 19.7001C23.485 20.0201 22.91 20.3201 22.48 20.5401C22.28 20.6451 22.115 20.7751 22 20.8201C22.055 20.8201 22.04 20.8251 21.88 20.7801C21.675 20.7201 21.38 20.6151 21.04 20.5001C20.365 20.2651 19.51 19.9401 18.64 19.6201C17.77 19.3001 16.875 18.9851 16.16 18.7401C15.8 18.6151 15.515 18.5001 15.24 18.4201C14.965 18.3401 14.835 18.2601 14.36 18.2601C13.695 18.2601 13.465 18.5201 13.24 18.7001C13.015 18.8801 12.825 19.0901 12.64 19.3001C12.275 19.7151 11.89 20.1851 11.52 20.6601C11.15 21.1351 10.8 21.6151 10.52 21.9001C10.415 22.0101 10.345 22.0301 10.28 22.0601C10.15 22.0401 10.055 22.0151 9.75999 21.9401C9.33499 21.8301 8.80499 21.6601 8.27999 21.5001C7.75499 21.3401 7.23499 21.1901 6.75999 21.0601C6.28499 20.9301 5.93999 20.8201 5.39999 20.8201C4.79499 20.8201 4.56999 21.0151 4.31999 21.1801C4.06999 21.3451 3.82999 21.5351 3.59999 21.7401C3.13999 22.1551 2.68499 22.6801 2.23999 23.1801C1.34999 24.1751 0.559994 25.1401 0.559994 25.1401C0.119994 25.6901 0.204994 26.5001 0.759994 26.9401C1.30999 27.3801 2.11999 27.2951 2.55999 26.7401C2.55999 26.7401 3.29499 25.7851 4.11999 24.8601C4.53499 24.4001 4.97999 23.9651 5.31999 23.6601C5.43999 23.5501 5.51999 23.4801 5.59999 23.4201C5.68999 23.4401 5.78999 23.4601 6.07999 23.5401C6.48999 23.6501 6.98999 23.8201 7.51999 23.9801C8.04999 24.1401 8.61999 24.2901 9.11999 24.4201C9.61999 24.5501 9.99499 24.6601 10.52 24.6601C11.605 24.6601 11.94 24.0951 12.36 23.6601C12.78 23.2251 13.18 22.7451 13.56 22.2601C13.94 21.7751 14.295 21.2851 14.56 20.9801C14.6 20.9351 14.605 20.9351 14.64 20.9001C14.835 20.9601 15.07 21.0401 15.36 21.1401C16.035 21.3751 16.89 21.7001 17.76 22.0201C18.63 22.3401 19.48 22.6551 20.2 22.9001C20.56 23.0251 20.885 23.1401 21.16 23.2201C21.435 23.3001 21.575 23.3801 22.04 23.3801C22.505 23.3801 22.685 23.2751 22.92 23.1801C23.155 23.0851 23.385 22.9901 23.64 22.8601C24.15 22.6001 24.755 22.2601 25.32 21.9401C25.885 21.6201 26.42 21.2851 26.84 21.0601C27.015 20.9651 27.135 20.9101 27.24 20.8601C27.25 20.8701 27.215 20.8701 27.4 20.9401C27.675 21.0451 28.045 21.2151 28.44 21.3801C29.23 21.7101 29.95 22.1001 31 22.1001C31.485 22.1001 31.69 21.9351 31.88 21.8201C32.07 21.7051 32.245 21.5951 32.4 21.4601C32.715 21.1951 33.005 20.8801 33.36 20.5001C34.07 19.7451 34.93 18.7801 35.76 17.8201C36.59 16.8601 37.385 15.9001 38.04 15.2201C38.345 14.9051 38.615 14.6551 38.8 14.5001C38.735 14.5301 38.965 14.5751 39.44 14.9401C40 15.3701 40.7 16.0151 41.44 16.6601C41.875 17.0401 42.34 17.4201 42.8 17.7801C42.93 17.9451 43.125 18.0551 43.32 18.1401C43.475 18.2551 43.605 18.3951 43.76 18.5001C44.545 19.0401 45.315 19.5401 46.36 19.5401C47.435 19.5401 47.765 18.9401 48.16 18.5001C48.555 18.0601 48.93 17.5751 49.28 17.1001C49.63 16.6251 49.985 16.1751 50.24 15.9001C50.3 15.8351 50.315 15.8501 50.36 15.8201C50.405 15.8451 50.345 15.8201 50.4 15.8601C50.66 16.0401 51.005 16.3451 51.36 16.6601C51.715 16.9751 52.1 17.2901 52.48 17.5801C52.86 17.8701 53.165 18.2601 54.04 18.2601C54.845 18.2601 55.08 17.8601 55.24 17.6601C55.4 17.4601 55.46 17.2601 55.56 17.0601C55.765 16.6601 55.99 16.1851 56.2 15.6201C56.615 14.4901 57.045 13.0351 57.48 11.5801C58.345 8.67509 59.12 5.78009 59.12 5.78009C59.235 5.36009 59.13 4.91009 58.835 4.58509C58.545 4.26509 58.11 4.11009 57.68 4.18009ZM18.2 8.02009C17.495 8.02009 16.92 8.59509 16.92 9.30009C16.92 10.0051 17.495 10.5801 18.2 10.5801C18.905 10.5801 19.48 10.0051 19.48 9.30009C19.48 8.59509 18.905 8.02009 18.2 8.02009ZM43.8 8.02009C43.095 8.02009 42.52 8.59509 42.52 9.30009C42.52 10.0051 43.095 10.5801 43.8 10.5801C44.505 10.5801 45.08 10.0051 45.08 9.30009C45.08 8.59509 44.505 8.02009 43.8 8.02009ZM18.2 11.8601C17.495 11.8601 16.92 12.4351 16.92 13.1401C16.92 13.8451 17.495 14.4201 18.2 14.4201C18.905 14.4201 19.48 13.8451 19.48 13.1401C19.48 12.4351 18.905 11.8601 18.2 11.8601ZM43.8 11.8601C43.095 11.8601 42.52 12.4351 42.52 13.1401C42.52 13.8451 43.095 14.4201 43.8 14.4201C44.505 14.4201 45.08 13.8451 45.08 13.1401C45.08 12.4351 44.505 11.8601 43.8 11.8601ZM18.2 15.7001C17.495 15.7001 16.92 16.2751 16.92 16.9801C16.92 17.6851 17.495 18.2601 18.2 18.2601C18.905 18.2601 19.48 17.6851 19.48 16.9801C19.48 16.2751 18.905 15.7001 18.2 15.7001ZM43.8 19.5401C43.095 19.5401 42.52 20.1151 42.52 20.8201C42.52 21.5251 43.095 22.1001 43.8 22.1001C44.505 22.1001 45.08 21.5251 45.08 20.8201C45.08 20.1151 44.505 19.5401 43.8 19.5401ZM18.2 23.3801C17.495 23.3801 16.92 23.9551 16.92 24.6601C16.92 25.3651 17.495 25.9401 18.2 25.9401C18.905 25.9401 19.48 25.3651 19.48 24.6601C19.48 23.9551 18.905 23.3801 18.2 23.3801ZM43.8 23.3801C43.095 23.3801 42.52 23.9551 42.52 24.6601C42.52 25.3651 43.095 25.9401 43.8 25.9401C44.505 25.9401 45.08 25.3651 45.08 24.6601C45.08 23.9551 44.505 23.3801 43.8 23.3801ZM18.2 27.2201C17.495 27.2201 16.92 27.7951 16.92 28.5001C16.92 29.2051 17.495 29.7801 18.2 29.7801C18.905 29.7801 19.48 29.2051 19.48 28.5001C19.48 27.7951 18.905 27.2201 18.2 27.2201ZM43.8 27.2201C43.095 27.2201 42.52 27.7951 42.52 28.5001C42.52 29.2051 43.095 29.7801 43.8 29.7801C44.505 29.7801 45.08 29.2051 45.08 28.5001C45.08 27.7951 44.505 27.2201 43.8 27.2201ZM18.2 31.0601C17.495 31.0601 16.92 31.6351 16.92 32.3401C16.92 33.0451 17.495 33.6201 18.2 33.6201C18.905 33.6201 19.48 33.0451 19.48 32.3401C19.48 31.6351 18.905 31.0601 18.2 31.0601ZM43.8 31.0601C43.095 31.0601 42.52 31.6351 42.52 32.3401C42.52 33.0451 43.095 33.6201 43.8 33.6201C44.505 33.6201 45.08 33.0451 45.08 32.3401C45.08 31.6351 44.505 31.0601 43.8 31.0601ZM18.2 34.9001C17.495 34.9001 16.92 35.4751 16.92 36.1801C16.92 36.8851 17.495 37.4601 18.2 37.4601C18.905 37.4601 19.48 36.8851 19.48 36.1801C19.48 35.4751 18.905 34.9001 18.2 34.9001ZM43.8 34.9001C43.095 34.9001 42.52 35.4751 42.52 36.1801C42.52 36.8851 43.095 37.4601 43.8 37.4601C44.505 37.4601 45.08 36.8851 45.08 36.1801C45.08 35.4751 44.505 34.9001 43.8 34.9001ZM18.2 38.7401C17.495 38.7401 16.92 39.3151 16.92 40.0201C16.92 40.7251 17.495 41.3001 18.2 41.3001C18.905 41.3001 19.48 40.7251 19.48 40.0201C19.48 39.3151 18.905 38.7401 18.2 38.7401ZM43.8 38.7401C43.095 38.7401 42.52 39.3151 42.52 40.0201C42.52 40.7251 43.095 41.3001 43.8 41.3001C44.505 41.3001 45.08 40.7251 45.08 40.0201C45.08 39.3151 44.505 38.7401 43.8 38.7401ZM18.2 42.5801C17.495 42.5801 16.92 43.1551 16.92 43.8601C16.92 44.5651 17.495 45.1401 18.2 45.1401C18.905 45.1401 19.48 44.5651 19.48 43.8601C19.48 43.1551 18.905 42.5801 18.2 42.5801ZM43.8 42.5801C43.095 42.5801 42.52 43.1551 42.52 43.8601C42.52 44.5651 43.095 45.1401 43.8 45.1401C44.505 45.1401 45.08 44.5651 45.08 43.8601C45.08 43.1551 44.505 42.5801 43.8 42.5801ZM18.2 46.4201C17.495 46.4201 16.92 46.9951 16.92 47.7001C16.92 48.4051 17.495 48.9801 18.2 48.9801C18.905 48.9801 19.48 48.4051 19.48 47.7001C19.48 46.9951 18.905 46.4201 18.2 46.4201ZM43.8 46.4201C43.095 46.4201 42.52 46.9951 42.52 47.7001C42.52 48.4051 43.095 48.9801 43.8 48.9801C44.505 48.9801 45.08 48.4051 45.08 47.7001C45.08 46.9951 44.505 46.4201 43.8 46.4201ZM18.2 50.2601C17.495 50.2601 16.92 50.8351 16.92 51.5401C16.92 52.2451 17.495 52.8201 18.2 52.8201C18.905 52.8201 19.48 52.2451 19.48 51.5401C19.48 50.8351 18.905 50.2601 18.2 50.2601ZM43.8 50.2601C43.095 50.2601 42.52 50.8351 42.52 51.5401C42.52 52.2451 43.095 52.8201 43.8 52.8201C44.505 52.8201 45.08 52.2451 45.08 51.5401C45.08 50.8351 44.505 50.2601 43.8 50.2601ZM18.2 54.1001C17.495 54.1001 16.92 54.6751 16.92 55.3801H2.83999C2.79999 55.3801 2.75999 55.3801 2.71999 55.3801C2.67999 55.3801 2.63999 55.3801 2.59999 55.3801C1.89499 55.4451 1.37499 56.0751 1.43999 56.7801C1.50499 57.4851 2.13499 58.0051 2.83999 57.9401H59.16C59.62 57.9451 60.05 57.7051 60.285 57.3051C60.515 56.9051 60.515 56.4151 60.285 56.0151C60.05 55.6151 59.62 55.3751 59.16 55.3801H45.08C45.08 54.6751 44.505 54.1001 43.8 54.1001C43.095 54.1001 42.52 54.6751 42.52 55.3801H19.48C19.48 54.6751 18.905 54.1001 18.2 54.1001Z" fill="url(#paint0_linear_2071_74)"/>
<defs>
<linearGradient id="paint0_linear_2071_74" x1="0.279236" y1="57.9456" x2="62.8301" y2="53.0869" gradientUnits="userSpaceOnUse">
<stop stop-color="#F6D58A"/>
<stop offset="0.25" stop-color="#FAE1AE"/>
<stop offset="0.5" stop-color="#ECC06A"/>
<stop offset="0.75" stop-color="#ECC06A"/>
<stop offset="1" stop-color="#ECC06A"/>
</linearGradient>
</defs>
</svg>
