<svg width="24" height="22" viewBox="0 0 24 22" fill="none" xmlns="http://www.w3.org/2000/svg">
<path d="M23.95 1.5L20.204 20.626C20.204 20.626 20.043 21.5 18.959 21.5C18.383 21.5 18.086 21.226 18.086 21.226L9.972 14.493L6.002 12.492L0.907 11.137C0.907 11.137 0 10.875 0 10.125C0 9.5 0.933 9.202 0.933 9.202L22.249 0.734003C22.249 0.734003 22.9 0.499003 23.375 0.500003C23.667 0.500003 24 0.625003 24 1C24 1.25 23.95 1.5 23.95 1.5Z" fill="white"/>
<path d="M12.9998 17.0052L9.57384 20.3792C9.57384 20.3792 9.42484 20.4942 9.22584 20.4992C9.15684 20.5012 9.08284 20.4902 9.00684 20.4562L9.97084 14.4912L12.9998 17.0052Z" fill="#B0BEC5"/>
<path d="M19.897 4.69589C19.728 4.47589 19.416 4.43589 19.196 4.60289L6 12.4999C6 12.4999 8.106 18.3919 8.427 19.4119C8.749 20.4329 9.007 20.4569 9.007 20.4569L9.971 14.4919L19.803 5.39589C20.023 5.22889 20.064 4.91589 19.897 4.69589Z" fill="#CFD8DC"/>
</svg>
