<svg width="340" height="80" viewBox="0 0 340 80" fill="none" xmlns="http://www.w3.org/2000/svg">
<g opacity="0.4">
<path d="M44.186 16.8531L38.5921 14.6396C39.0674 13.5105 41.2608 12.5511 44.186 12.5488C47.1135 12.5511 49.3069 13.5105 49.7822 14.6396L44.186 16.8531ZM48.3564 23.7902L44.5966 25.7761V17.7345L49.6996 15.9985L48.3564 23.786L48.3564 23.7902ZM50.6859 25.9233L52.404 26.923H52.4286L52.8615 27.1751C51.8908 27.4429 51.1478 27.9316 50.5253 28.5697L50.4584 28.6366C50.3116 28.7933 50.1709 28.9555 50.0366 29.1231L49.9586 29.2257C49.8247 29.3975 49.6975 29.5738 49.5792 29.7568L49.5145 29.8482C49.3698 30.0692 49.2321 30.2946 49.1017 30.5243C47.8745 32.6374 45.9221 33.9003 44.1861 33.9048C42.4501 33.9003 40.4956 32.6374 39.2728 30.5243C39.1428 30.299 39.0066 30.0772 38.8644 29.8594L38.7841 29.7411C38.6675 29.5688 38.547 29.3992 38.4226 29.2324C38.3914 29.1878 38.3624 29.1543 38.3312 29.1164C38.2001 28.9536 38.064 28.7951 37.9228 28.6411C37.8938 28.6188 37.8737 28.5898 37.847 28.5652C37.2095 27.8977 36.4016 27.417 35.5108 27.1752L35.9481 26.923H35.966L37.6908 25.9233L39.4557 24.9081L44.1772 27.483L44.1861 27.4741L44.1995 27.483L48.9187 24.9081L50.6859 25.9233ZM57.4691 33.0724C57.0831 34.09 56.764 35.1922 56.764 36.2877L56.7685 43.361C55.2935 43.1156 55.1173 41.5224 55.1128 41.4532L55.086 41.1297L54.7669 41.1007C54.2258 41.053 53.7202 40.8113 53.3433 40.4202C52.6182 39.695 52.6182 38.5213 52.6182 38.5102C52.6092 38.5704 51.8238 39.6705 52.7342 40.8754C53.118 41.3841 53.6758 41.6987 54.3943 41.8214C54.5638 42.7028 55.2198 43.9501 56.7684 44.142V47.6006H52.4151C50.407 46.4827 51.2571 44.5146 51.2973 44.4299L51.4669 44.055L51.0831 43.91C48.9076 43.1022 49.5078 40.929 49.5369 40.8353L49.6261 40.5184L49.3271 40.3801C47.5332 39.5456 47.7764 37.3009 47.801 37.2072C47.2476 37.6557 47.049 38.5683 47.4283 39.4675C47.223 39.7041 46.9464 39.9874 46.6451 40.2998C46.121 40.1853 45.6491 39.9015 45.3023 39.4922C44.9555 39.0829 44.753 38.5708 44.7261 38.035L44.7239 37.7717L44.4785 37.678C43.7533 37.4102 43.2557 37.0041 43.008 36.4619C42.7335 35.8617 42.8295 35.2347 42.9053 34.929C43.3223 35.0155 43.7469 35.0603 44.1728 35.0629H44.2018C44.4182 35.0629 44.6302 35.0495 44.8399 35.0294C46.0003 34.9134 47.2944 34.4158 48.6466 33.0725L57.4691 33.0724ZM52.0291 63.898L52.5155 61.3611L52.5936 60.8925C52.8938 61.0101 53.2128 61.0728 53.5352 61.0777C54.276 61.0777 54.7089 60.685 54.9967 60.3525L55.3671 59.9174L55.0637 59.4399C55.0369 59.3931 54.3608 58.3242 53.8431 57.5924C53.7403 57.4478 53.6413 57.3005 53.5463 57.1506C52.955 56.267 52.2165 55.158 50.7349 55.158L50.6033 55.1625C50.3899 55.174 50.1794 55.2169 49.9785 55.2897C49.5276 55.0741 49.0345 54.9613 48.5348 54.9595C48.0321 54.9716 47.535 55.0681 47.0643 55.2451C46.9662 55.2741 46.8769 55.3053 46.8077 55.3187L44.0409 55.0465C44.0052 55.0376 43.8937 54.9706 43.7553 54.81V54.7944L44.3533 54.5556C44.186 52.5564 42.2693 51.3269 41.2027 50.9097C41.1554 50.6959 41.0468 50.5005 40.8903 50.3474L40.2968 49.7829L39.7746 50.4099L39.518 50.7312L35.64 49.1358L38.1614 52.3065L37.1684 53.8171C36.8025 54.2031 37.2064 54.5936 37.2064 54.5936L38.2328 55.3032L39.2993 54.9038C39.335 54.9038 39.3662 54.9127 39.4042 54.9172C39.3529 55.08 39.2859 55.716 39.2413 55.8923L37.3915 55.5286L35.4503 56.6286C34.4483 57.3649 34.3123 58.5787 34.6849 59.411L34.8991 59.884L35.2048 60.5512L35.8853 60.27C35.8965 60.2656 35.9054 60.2633 35.9121 60.2567C35.6667 61.0399 35.7671 61.7828 36.2022 62.2715L36.615 62.7914L37.1639 63.4876L37.7663 62.8383C37.9448 62.6598 38.5205 62.0149 38.6968 61.4616L38.8262 61.0399L38.5339 60.7163L38.4848 60.6561L38.8151 60.1094L41.2294 60.6806L41.7738 60.8056L42.0639 60.3258L42.2201 60.067C42.2491 60.0112 42.2558 60.0023 42.3674 60.0023C42.4544 60.0023 42.5392 60.0112 42.6307 60.0335C43.454 60.1961 44.2906 60.282 45.1297 60.2901C45.8504 60.2901 46.2855 60.2634 46.7987 60.0916C46.7987 60.0916 48.0951 61.5643 48.1397 61.6222L47.3453 64.0767L47.3096 64.2239C45.8079 64.3467 45.0761 64.6769 44.1903 65.5627C42.9051 64.2864 41.9968 64.1503 38.5451 64.1503C34.4105 64.1503 31.6079 61.7249 31.6079 57.8447V48.3663H56.7679L56.7724 57.8447C56.7724 60.9886 54.9298 63.1818 52.0291 63.898ZM36.5323 58.5384L36.6639 58.8665C36.5747 59.1521 35.5929 59.5581 35.5929 59.5581L35.3831 59.0918C35.2492 58.7722 35.2263 58.417 35.3181 58.0828C35.4099 57.7487 35.6112 57.455 35.8896 57.2488L37.4805 56.2781L39.1696 56.6351C39.1362 57.1729 39.4575 57.5745 39.4575 57.5745L37.6903 57.2353L36.6304 57.9672C36.4519 58.0922 36.4386 58.3242 36.5323 58.5384ZM51.7611 61.216L51.2189 64.052C50.8708 64.1011 50.5048 64.1279 50.13 64.1413L50.7012 61.4191C50.8708 60.6069 48.702 60.3548 47.6286 58.7639C47.1043 59.3529 46.1202 59.5292 45.1296 59.5292C44.2237 59.5292 43.3222 59.3842 42.7711 59.2748C42.6384 59.2518 42.5042 59.2391 42.3695 59.2369C42.0504 59.2369 41.7626 59.3351 41.5617 59.672L41.4055 59.9398L38.4468 59.2414L37.7105 60.4619C37.6078 60.6605 37.5989 60.8256 37.7663 61.0108L37.9671 61.2295C37.8287 61.6602 37.2129 62.3139 37.2129 62.3139L36.7733 61.7628C36.4252 61.3745 36.4832 60.6605 36.8447 60.0001L38.0184 58.0141L40.5241 58.3778L40.1359 57.4876C39.6115 56.3117 40.4103 54.8167 40.4951 53.9554C40.4661 54.2165 40.2274 54.2745 39.9507 54.2745C39.6963 54.2745 39.4152 54.2277 39.2278 54.2277C39.1541 54.2277 39.0894 54.2344 39.0559 54.2589L38.3776 54.6717L37.8421 54.1986C37.7774 54.1094 37.7573 53.893 37.9135 53.7323L39.1541 52.34L37.6904 50.6263L39.7387 51.6594L40.3657 50.8985C40.5375 51.0681 40.4617 51.5077 40.4617 51.5077C41.102 51.5255 42.8983 52.5185 42.992 54.839C42.9987 54.9104 42.9987 54.9885 42.9987 55.0666L43.0455 55.1425C43.1727 55.3188 43.523 55.7673 43.9671 55.8074L46.8008 56.0886H46.812C47.1244 56.0886 47.7425 55.7226 48.5345 55.7226C48.9696 55.7226 49.4493 55.8342 49.9626 56.1577C49.9626 56.1577 50.2214 55.9525 50.6387 55.9302C50.6699 55.9257 50.7056 55.9257 50.7346 55.9257C52.0065 55.9257 52.5353 57.077 53.2181 58.0342C53.7313 58.7616 54.4163 59.8416 54.4163 59.8416C54.1642 60.1428 53.9277 60.3102 53.5327 60.3102C53.4099 60.3106 53.2873 60.2987 53.1668 60.2745C51.8057 60.0223 51.6071 57.2176 50.8306 56.9945C50.7899 56.9837 50.7478 56.9785 50.7057 56.9789C50.4558 56.9789 50.3464 57.202 50.3464 57.202C50.7034 58.1593 50.4937 58.5452 50.8775 59.2838C51.1631 59.8305 51.6696 60.279 51.8794 60.4932C51.8794 60.4932 51.8236 60.9082 51.7611 61.2184L51.7611 61.216ZM49.1527 64.1613C48.7734 64.1613 48.4208 64.1658 48.104 64.1792L48.934 61.5886C49.0634 61.2294 48.4074 60.7675 48.1374 60.3614C48.5457 60.6202 49.6056 61.1869 50.1166 61.4101C49.7854 62.3237 49.4641 63.2408 49.1527 64.1613ZM36.8087 40.8173L36.9269 36.3145L37.9355 35.2457L38.5692 36.5756L37.3196 40.8976L36.8064 40.8195L36.8087 40.8173ZM37.5339 42.2141C37.687 42.5075 37.9188 42.7524 38.2033 42.9215C38.1955 43.3494 38.1544 43.7762 38.0805 44.1978C38.0582 44.296 38.0359 44.3874 38.0069 44.4789C37.9935 44.5369 37.9757 44.5838 37.9645 44.6217C37.6544 44.6217 37.0497 44.5838 36.5565 44.4031C36.0076 44.2022 35.1888 43.1937 35.3784 42.0825C35.6149 41.9375 36.1638 41.6273 36.6791 41.6273C37.0741 41.6273 37.3442 41.8147 37.5339 42.2141ZM49.2171 43.4235C48.4428 43.9969 46.4435 45.4584 45.7183 45.9672L38.7388 44.7087L38.7879 44.5235C38.8772 44.1598 38.9731 43.6644 38.9776 43.082L44.8437 43.1758L44.9553 43.0642C45.0446 42.9749 46.9033 41.1743 47.8494 40.1412C48.0747 40.4246 48.3559 40.6924 48.7263 40.9289C48.6013 41.6206 48.6525 42.598 49.2171 43.4235ZM39.7275 33.0731C40.5687 33.9076 41.3875 34.4275 42.1686 34.7131C42.0682 35.1147 41.9343 35.9492 42.3092 36.777C42.6171 37.4464 43.1749 37.9596 43.9804 38.3032C44.0697 39.1287 44.5896 40.3716 46.0332 40.9205C45.3995 41.5587 44.7836 42.1612 44.5382 42.4021L38.6832 42.3106C38.4898 42.2182 38.3294 42.0687 38.2236 41.8822C38.2124 41.8532 38.1924 41.8376 38.179 41.8064L39.1362 41.9626L39.1965 41.9648C39.2865 41.9654 39.3738 41.9338 39.4425 41.8757C39.5113 41.8176 39.557 41.7368 39.5714 41.648C39.5875 41.548 39.5635 41.4457 39.5046 41.3634C39.4456 41.2811 39.3566 41.2253 39.2567 41.2084L38.0808 41.021L39.3839 36.5114L38.1499 33.9075L36.1707 36.005L36.0502 40.693L34.7204 40.481C34.5151 40.4408 34.3188 40.5926 34.2808 40.8001C34.266 40.9005 34.2911 41.0028 34.3507 41.0849C34.4104 41.1671 34.4998 41.2226 34.5999 41.2396L35.1577 41.3244C34.9569 41.4382 34.8253 41.5297 34.8097 41.5408L34.6981 41.6212L34.6668 41.7595C34.3433 43.076 35.0752 44.3255 35.8651 44.8834L35.8361 45.0507C35.8048 45.2515 35.8495 45.4524 35.97 45.6152C36.0385 45.7142 36.1303 45.7948 36.2373 45.85C36.3443 45.9053 36.4632 45.9334 36.5836 45.9321C36.7527 45.9307 36.9163 45.8722 37.048 45.766C37.1796 45.6599 37.2715 45.5124 37.3088 45.3475C37.6033 45.3809 37.8733 45.3899 38.0563 45.3899H38.2147L45.8928 46.7799L46.0244 46.6929C46.6358 46.2645 48.9697 44.562 49.7328 43.9976C49.9448 44.1783 50.1791 44.3434 50.4625 44.4795C50.2148 45.3118 50.1992 46.5903 51.1765 47.6034H31.6077V36.2906C31.6077 35.1928 31.2886 34.0905 30.9093 33.073L39.7275 33.0731ZM38.6699 16.0035L43.7773 17.7372V25.7748L40.0175 23.7889L38.6699 16.0014V16.0035ZM51.1291 15.0328C51.1291 13.0715 47.8334 11.3065 44.1964 11.3065H44.1741C40.5371 11.3065 37.2437 13.0715 37.2437 15.0328L37.3151 15.5148L38.7678 23.8668L37.3085 24.7146L33.5354 26.9237H33.5487C33.5487 26.9237 32.7009 27.361 32.3059 27.6288C30.8689 28.6285 30.5631 30.0877 31.3977 30.6901C31.603 29.5009 32.5423 28.258 34.2984 28.258C35.5659 28.258 36.5297 28.914 37.3107 29.8935C37.5115 30.1412 37.7011 30.4067 37.8774 30.6901C38.0961 31.0494 38.317 31.3662 38.5334 31.6696H28.8094C29.5234 33.1088 30.204 34.6328 30.204 36.2884V57.8476C30.204 63.0644 34.2092 65.5545 38.5424 65.5545C41.8916 65.5545 42.3423 65.4028 44.1898 67.2459C46.0284 65.4028 46.4813 65.5545 49.8329 65.5545C54.1683 65.5545 58.1673 63.0644 58.1673 57.8476V36.2884C58.1673 34.6328 58.8478 33.1088 59.5663 31.6696H49.8375C50.0562 31.3662 50.2748 31.0493 50.4935 30.6901C50.672 30.4067 50.8617 30.1412 51.058 29.8935C51.8435 28.9095 52.8074 28.258 54.0747 28.258C55.8307 28.258 56.7679 29.5009 56.9755 30.6901C57.8099 30.0877 57.5087 28.6284 56.0607 27.6288C55.6769 27.361 54.8245 26.9237 54.8245 26.9237H54.8401L51.058 24.7146L49.6076 23.8668L51.058 15.5148L51.1291 15.0328ZM11.5411 25.2208C12.3265 24.4108 13.1543 24.1655 13.8683 24.1655C14.9661 24.1655 15.7984 24.7523 15.7984 24.7523C12.8308 26.3366 12.2194 28.8758 10.5236 29.4493C10.2474 29.545 9.95687 29.5926 9.66458 29.5899C8.41722 29.5899 7.2101 28.7821 6.79954 27.8606C6.79954 27.8606 9.08434 27.72 11.5411 25.2208ZM9.6645 30.6072C10.0728 30.6072 10.4723 30.5448 10.8515 30.4153C11.9136 30.0628 12.592 29.2171 13.306 28.3335C14.0357 27.4343 14.8567 26.4146 16.2803 25.6559L17.7441 24.8682L16.383 23.9088C16.2714 23.8396 15.2517 23.1501 13.8683 23.1501C12.7348 23.1501 11.6816 23.612 10.8137 24.5C8.70066 26.6622 6.80626 26.8362 6.73706 26.8384L5.26434 26.9255L5.8668 28.2799C6.47818 29.6298 8.07586 30.6072 9.6645 30.6072ZM16.3205 42.4416C16.1643 38.6015 17.146 35.4889 18.6857 32.9224C17.8289 35.5956 17.9449 38.8667 20.8724 41.924C20.8724 41.924 15.0531 34.9401 23.1863 27.7864C26.4395 25.062 29.9985 23.3796 31.8287 22.188C25.2106 24.3524 21.9775 21.9694 21.9775 21.9694C24.0905 23.8057 26.8283 23.7767 28.5263 23.509C28.0667 23.7343 27.5847 23.9686 27.0715 24.2476C21.4866 27.2844 16.4731 32.2852 15.6115 39.206V39.1546C14.3152 45.9512 11.4279 47.6962 11.4279 47.6962C13.7261 46.5583 15.172 43.546 15.5245 42.4615C15.9083 48.437 18.8179 52.5823 22.2184 56.5743C23.9856 58.6427 24.6059 60.6532 24.6059 60.6532C24.6059 60.6532 24.2623 58.375 22.7294 56.5208C19.561 52.6985 16.5442 47.9416 16.3211 42.4408L16.3205 42.4416ZM42.2725 28.4352V29.8097C42.7455 29.2318 43.6559 29.3501 43.6559 29.3501V31.3293C43.6559 31.3293 43.6269 32.3022 43.2811 32.7238H45.258C44.9144 32.3021 44.8809 31.3293 44.8809 31.3293V29.3501C44.8809 29.3501 45.7957 29.2318 46.2644 29.8097V28.4352H42.2703H42.2725ZM41.4247 20.296C42.0561 20.7981 42.4221 20.8829 42.4332 20.8896L42.6787 21.0034V19.7115L40.3581 18.7341C40.3581 18.7341 40.3782 19.4839 41.4247 20.296ZM46.9449 20.296C47.9936 19.4838 48.0159 18.7341 48.0159 18.7341L45.6931 19.7115V21.0056L45.9386 20.8896C45.9498 20.8829 46.3134 20.7981 46.9449 20.296ZM74.5089 24.1673C75.2185 24.1673 76.0485 24.4105 76.8295 25.2205C79.2884 27.7196 81.5755 27.8602 81.5755 27.8602C81.1604 28.7817 79.9555 29.5917 78.7082 29.5917C78.4203 29.5917 78.128 29.5471 77.8447 29.4467C76.1511 28.8755 75.5464 26.334 72.5766 24.752C72.5766 24.752 73.4021 24.1673 74.5089 24.1673ZM72.0923 25.6534C73.5137 26.4121 74.3437 27.4317 75.0711 28.3332C75.7852 29.2146 76.4612 30.0625 77.5256 30.4151C77.9005 30.5445 78.2999 30.607 78.7082 30.607C80.2991 30.607 81.8989 29.6296 82.5059 28.2775L83.115 26.9253L81.6401 26.8361C81.5709 26.8361 79.6721 26.6598 77.5613 24.4999C76.6911 23.6118 75.6401 23.1477 74.5088 23.1477C73.1253 23.1477 72.0989 23.8394 71.9874 23.9109L70.6308 24.8681L72.0923 25.6534ZM72.7595 39.155V39.2063C71.9027 32.2848 66.8867 27.2863 61.3011 24.2479C60.7879 23.9712 60.3082 23.7347 59.8463 23.5116C61.5444 23.7749 64.2822 23.8061 66.3974 21.972C66.3974 21.972 63.1621 24.3528 56.5422 22.1884C58.3719 23.3799 61.9353 25.0623 65.1886 27.7846C73.3174 34.9426 67.5025 41.9222 67.5025 41.9222C70.4254 38.8675 70.546 35.5964 69.6847 32.9238C71.2243 35.4898 72.2061 38.6025 72.0544 42.443C71.8313 47.9431 68.8123 52.6998 65.6371 56.523C64.111 58.375 63.7718 60.6554 63.7718 60.6554C63.7718 60.6554 64.3876 58.645 66.1526 56.5765C69.5553 52.5824 72.4672 48.4389 72.8465 42.4637C73.199 43.5503 74.6494 46.5626 76.9476 47.6984C76.9476 47.6984 74.058 45.9535 72.7594 39.1568L72.7595 39.155ZM28.5347 65.3414C20.0627 65.3414 20.2795 58.0651 20.2795 58.0651C20.2795 58.0651 19.686 60.2205 17.3275 60.7806C17.0394 60.8531 16.7432 60.8884 16.4462 60.8855C15.6875 60.8855 15.027 60.707 15.027 60.707C15.027 60.707 16.261 58.0919 15.0315 54.4347C14.0185 51.4002 14.1837 49.1488 14.1837 49.1488C14.1837 49.1488 13.0435 50.8781 10.2119 50.8959H10.1829C7.82882 50.8959 6.80018 49.1043 6.80018 49.1043C12.4454 46.7547 11.892 39.1747 11.892 39.1747C11.892 39.1747 11.1557 39.7236 9.72762 39.7771H9.57812C6.46316 39.7771 5.4078 36.439 5.4078 36.439H5.47251C6.04819 36.439 10.6692 36.3051 13.9381 32.1393C16.0913 29.4015 17.8585 26.9938 21.3368 26.0478L21.6871 25.9853L21.7608 25.635C21.859 25.1039 21.493 24.6018 20.6675 24.0642C15.859 20.9091 19.1235 16.8861 19.1235 16.8861C19.1235 16.8861 20.489 20.1014 23.5705 20.1014L23.7937 20.0991C24.1417 20.0813 24.4831 20.0656 24.8201 19.9942L25.3868 19.8849C25.3868 19.8849 24.5077 17.4974 26.6275 15.3063C28.2206 13.6506 30.1551 13.3695 31.2731 13.3695C31.842 13.3695 32.1923 13.4431 32.1923 13.4431C31.1347 14.8332 30.3671 17.1426 31.5899 18.5662C32.652 19.7913 35.238 19.8493 35.238 21.6722C35.238 22.4465 34.5173 23.348 33.2254 24.1579C29.3318 26.6124 25.4696 29.8701 23.8622 34.2363C21.8585 39.6807 24.121 43.2955 27.3497 45.3707C27.3497 45.3707 26.3344 46.3034 24.8663 46.4216C24.5785 46.4493 24.2896 46.4635 24.0005 46.464C20.9034 46.464 19.3014 45.0092 19.3014 45.0092C19.3014 45.0092 19.5692 47.0196 21.1712 48.8894C22.6663 50.612 24.6186 51.6272 27.5975 51.6697C27.5975 51.6697 27.6934 53.0531 26.3747 54.2535C25.5291 55.0122 23.5811 55.2576 23.5811 55.2576C23.5811 55.2576 27.2337 55.9984 27.6354 61.3981C27.8541 64.3256 28.5948 65.3409 28.5948 65.3409L28.5347 65.3414ZM29.4339 64.7613C29.4317 64.7501 28.8404 63.8241 28.6507 61.3251C28.4276 58.3307 27.2985 56.5813 26.1807 55.5773C26.5042 55.4255 26.8055 55.2359 27.0553 55.0083C28.6953 53.5312 28.6261 51.7952 28.615 51.6033L28.5525 50.6662L27.6132 50.6528C25.1097 50.6127 23.3625 49.8629 21.9457 48.2162C21.6402 47.8597 21.3683 47.4758 21.1334 47.0693C21.9144 47.308 22.8694 47.4843 24.0007 47.4843C24.3019 47.4843 24.6188 47.4665 24.9513 47.4442C26.0901 47.3304 27.1669 46.871 28.0372 46.1277L29.0123 45.2285L27.9011 44.5145C25.411 42.9191 22.8651 39.8957 24.8219 34.5921C26.0871 31.1447 29.0123 28.0231 33.7691 25.0281C35.3757 24.0128 36.2548 22.8145 36.2548 21.6721C36.2548 19.9072 34.7821 19.211 33.7021 18.7134C33.1756 18.4613 32.6267 18.2114 32.3612 17.9012C31.5245 16.9305 32.2273 15.0719 33.006 14.0633L34.0012 12.758L32.388 12.4389C32.3434 12.4322 31.9195 12.3541 31.2724 12.3541C30.0696 12.3541 27.7692 12.6464 25.8949 14.5944C24.3308 16.2143 24.1255 17.9392 24.2058 19.0525C24.0541 19.0659 23.9023 19.0726 23.7417 19.0793H23.5699C21.2136 19.0793 20.1024 16.5803 20.06 16.4843L19.3973 14.9223L18.3263 16.2388C18.266 16.3191 16.6974 18.2738 17.0812 20.726C17.3333 22.3549 18.3552 23.7606 20.1091 24.9164C20.301 25.0391 20.4326 25.144 20.5286 25.231C17.2173 26.3087 15.372 28.6717 13.4218 31.1552L13.1407 31.5077C10.1597 35.3077 5.93998 35.4214 5.43598 35.4214L3.99902 35.3768L4.43636 36.7468C4.48768 36.9119 5.75948 40.8011 9.57732 40.8011L9.76029 40.7944C10.1642 40.7832 10.5279 40.7275 10.8492 40.665C10.693 42.7847 9.91205 46.7051 6.40437 48.1623L5.33333 48.6086L5.91347 49.6194C5.96702 49.7109 7.27011 51.9132 10.22 51.9132C11.2757 51.9237 12.3184 51.6787 13.259 51.1991C13.3728 52.1586 13.6093 53.3881 14.069 54.7648C15.1356 57.9467 14.1426 60.1803 14.1047 60.2695L13.5781 61.3807L14.7674 61.6953C14.8477 61.7176 15.5796 61.9005 16.4453 61.9005C17.6365 61.9036 18.7892 61.4792 19.6941 60.7045C20.0176 61.702 20.5732 62.8288 21.5349 63.8261C23.1727 65.5108 25.5267 66.3609 28.6015 66.3609L30.4646 66.3363L29.4339 64.7613ZM39.6643 52.4781C39.6304 52.4753 39.5962 52.4794 39.5639 52.4902C39.5315 52.5009 39.5017 52.518 39.4761 52.5405C39.4505 52.563 39.4297 52.5903 39.4149 52.621C39.4 52.6517 39.3915 52.685 39.3899 52.7191C39.3871 52.7531 39.3913 52.7873 39.4022 52.8196C39.4131 52.852 39.4304 52.8818 39.4532 52.9072C39.4759 52.9327 39.5036 52.9533 39.5345 52.9677C39.5654 52.9822 39.599 52.9902 39.6331 52.9913C39.7013 52.9956 39.7684 52.973 39.8202 52.9284C39.8719 52.8837 39.9041 52.8206 39.9098 52.7525C39.9134 52.6836 39.8897 52.6161 39.8437 52.5646C39.7977 52.5132 39.7332 52.4821 39.6643 52.4781ZM51.3251 72.3589L50.176 69.1905C51.5438 68.7732 53.8934 67.8762 54.9488 67.2805L54.2459 69.5854L56.6267 70.3776C55.1853 71.1005 53.4404 71.7766 51.3251 72.3568L51.3251 72.3589ZM44.1894 75.2038C41.4204 75.2038 38.2608 74.5657 37.3282 74.2332L38.7428 70.3997C39.9165 70.7434 42.3575 71.1071 44.1314 71.0959H44.243C46.0146 71.1071 48.4535 70.7411 49.6339 70.3997L51.0463 74.2332C50.1136 74.5679 46.9542 75.2038 44.1894 75.2038ZM31.7478 70.3775L34.1309 69.5854L33.4258 67.2804C34.4767 67.8762 36.833 68.7754 38.1963 69.1904L37.0472 72.3588C34.9387 71.7787 33.187 71.1005 31.7478 70.3775ZM56.7342 69.6746L55.2838 69.1168L55.6855 67.6174L56.125 65.9819C56.125 65.9819 53.559 67.3787 49.9376 68.4252C48.9112 68.7197 48.1347 68.8559 48.1347 68.8559V69.9693C48.1347 69.9693 46.1979 70.304 44.2434 70.304H44.1318C42.1727 70.304 40.2404 69.9693 40.2404 69.9693V68.8536C40.2404 68.8536 39.4617 68.7197 38.4353 68.4252C34.8184 67.3765 32.2523 65.9818 32.2523 65.9818L32.6852 67.6174L33.0957 69.1168L31.6409 69.6746L30.0277 70.2771C31.8752 71.1718 34.4368 72.4728 36.7796 73.1153L36.2285 74.6282C36.2285 74.6282 39.2006 75.9848 44.1521 75.9982V76.0004H44.219V75.9982C49.177 75.9848 52.1491 74.6282 52.1491 74.6282L51.5913 73.1153C53.9364 72.4727 56.5024 71.174 58.341 70.2771L56.7342 69.6746ZM38.1358 8.63224L38.7941 8.70364L39.0774 8.10118L39.9075 6.32286L41.447 7.1217L42.045 7.42739L44.1826 5.30315L45.8494 6.95435L46.3269 7.42739L46.9249 7.1217L48.4556 6.32286L49.299 8.10118L49.5779 8.70364L50.2362 8.63224L50.8654 8.55861C50.5776 9.20792 50.3656 9.82605 50.2116 10.3392C48.5493 9.40869 46.3894 8.88213 44.1849 8.88213C41.9892 8.88213 39.8294 9.40871 38.1603 10.3392C37.9803 9.7327 37.7627 9.13803 37.5088 8.55861L38.1336 8.63224H38.1358ZM44.1827 9.80816C47.1347 9.80816 49.4932 10.7899 50.7985 11.8319C50.7985 11.8319 51.1868 9.49576 52.5078 7.43624L50.1314 7.704L48.8886 5.05984L46.501 6.29376L44.1827 4L41.8733 6.29376L39.4813 5.05984L38.2406 7.70624L35.8643 7.43402C37.1874 9.49578 37.5735 11.8297 37.5735 11.8297C38.8855 10.7876 41.2373 9.80816 44.1827 9.80816ZM81.5755 49.1034C81.5755 49.1034 80.5491 50.895 78.1928 50.895H78.1638C75.3345 50.8772 74.192 49.1479 74.192 49.1479C74.192 49.1479 74.3571 51.397 73.3397 54.4338C72.1125 58.0932 73.3486 60.7038 73.3486 60.7038C73.3486 60.7038 72.6882 60.8846 71.9273 60.8846C71.6372 60.8846 71.3337 60.8556 71.0459 60.7797C68.6829 60.2197 68.0939 58.0642 68.0939 58.0642C68.0939 58.0642 68.3126 65.3405 59.8403 65.3405H59.7734C59.7734 65.3405 60.5209 64.3252 60.7418 61.3978C61.1434 55.998 64.7938 55.255 64.7938 55.255C64.7938 55.255 62.8459 55.0095 62.0003 54.2531C60.6815 53.0548 60.773 51.6692 60.773 51.6692C63.7541 51.6268 65.7087 50.6116 67.197 48.8868C68.1561 47.7833 68.8032 46.4438 69.0714 45.0066C69.0714 45.0066 67.4693 46.4636 64.37 46.4636C64.0978 46.4636 63.8077 46.4502 63.5087 46.4212C62.0405 46.303 61.0275 45.368 61.0275 45.368C64.254 43.2952 66.5166 39.6782 64.5106 34.2336C62.904 29.8715 59.0394 26.6117 55.1506 24.1568C53.8564 23.3468 53.1334 22.4454 53.1334 21.6712C53.1334 19.8482 55.7218 19.7902 56.7839 18.5652C58.0111 17.1416 57.2413 14.8322 56.1792 13.442C56.1792 13.442 56.5362 13.3684 57.1007 13.3684C58.2208 13.3684 60.1576 13.6495 61.7508 15.3052C63.8638 17.4964 62.9869 19.8838 62.9869 19.8838L63.5537 19.9954C63.8928 20.0646 64.2298 20.0802 64.5801 20.098L64.8077 20.1003C67.8802 20.1003 69.2525 16.8828 69.2525 16.8828C69.2525 16.8828 72.5191 20.908 67.7106 24.0631C66.8829 24.6008 66.5169 25.1029 66.6129 25.6339L66.6887 25.9842L67.0301 26.0444C70.5154 26.9928 72.2804 29.4026 74.4339 32.1382C77.705 36.3041 82.333 36.438 82.9019 36.438H82.9644C82.9644 36.438 81.909 39.7783 78.7963 39.7783C78.7449 39.7783 78.7003 39.7783 78.649 39.7738C77.2209 39.7225 76.4846 39.1736 76.4846 39.1736C76.4846 39.1736 75.929 46.753 81.5765 49.1032L81.5755 49.1034ZM78.7953 40.8002C82.6109 40.8002 83.8871 36.911 83.9407 36.7458L84.3647 35.3736L82.9366 35.4182H82.9326C82.4261 35.4182 78.2178 35.3067 75.2343 31.5068L74.951 31.1542C73.0008 28.6708 71.1511 26.3078 67.8442 25.2301C67.9764 25.1144 68.1174 25.0092 68.266 24.9155C70.0197 23.7596 71.0417 22.3562 71.296 20.7251C71.6731 18.2728 70.109 16.3183 70.042 16.2379L68.98 14.9214L68.315 16.4833C68.2704 16.5792 67.1547 19.0783 64.8074 19.0783H64.6334C64.4727 19.0716 64.3188 19.065 64.167 19.0516C64.2496 17.9359 64.0465 16.2133 62.4846 14.5934C60.6081 12.6454 58.3054 12.3532 57.1005 12.3532C56.4579 12.3532 56.0294 12.4335 55.9826 12.438L54.3783 12.757L55.3668 14.0623C56.1433 15.0709 56.8484 16.9296 56.0139 17.9002C55.7461 18.2126 55.1972 18.4603 54.6729 18.7125C53.593 19.21 52.1158 19.9062 52.1158 21.6712C52.1158 22.8136 53.0016 24.0118 54.6081 25.0271C59.3564 28.0193 62.2884 31.1431 63.5537 34.5911C65.5128 39.8927 62.958 42.9183 60.4745 44.5111L59.3633 45.2274L60.3384 46.1243C60.4701 46.2403 61.6593 47.2913 63.4199 47.443C63.7546 47.4653 64.0737 47.4832 64.3727 47.4832C65.4995 47.4832 66.4612 47.3047 67.2422 47.0682C67.0088 47.4756 66.7368 47.8596 66.43 48.215C65.0129 49.8618 63.268 50.6115 60.7578 50.6517L59.8251 50.6651L59.7537 51.6022C59.7448 51.7919 59.6756 53.53 61.3156 55.0072C61.5677 55.2347 61.8712 55.4244 62.1902 55.5761C61.0746 56.5802 59.9456 58.3296 59.7269 61.324C59.5417 63.823 58.9459 64.749 58.9392 64.7601L57.9083 66.3354L59.7714 66.36C62.8484 66.36 65.2047 65.5121 66.8358 63.8252C67.6806 62.9392 68.3111 61.8713 68.6788 60.7036C69.5849 61.4762 70.7368 61.9003 71.9276 61.8996C72.7978 61.8996 73.5252 61.7144 73.6055 61.6966L74.7948 61.3797L74.2704 60.2686C74.2303 60.1793 73.2396 57.948 74.3061 54.7639C74.7658 53.3872 75.0001 52.1555 75.1139 51.1938C75.8636 51.5865 76.8655 51.9079 78.1619 51.9123C81.1072 51.9123 82.4037 49.71 82.4617 49.6186L83.0418 48.6055L81.9664 48.1637C78.4588 46.7044 77.6822 42.7863 77.526 40.6664C77.8451 40.7266 78.2066 40.7824 78.6149 40.7935L78.7953 40.8002Z" fill="white"/>
<path d="M113.616 50.9649H120.31V35.3905H129.503V29.723H104.423V35.3905H113.616L113.616 50.9649ZM149.808 29.7225L138.651 42.0841V29.7225H132.181V50.9649H137.893L149.049 38.6033V50.9649H155.52V29.7225H149.808ZM166.893 43.0657H177.291V50.9646H183.761V29.7222H177.291V37.4872H166.893V29.7222H160.422V50.9646H166.893V43.0657ZM201.782 50.9646C203.254 50.9646 204.593 50.8307 205.843 50.4737C209.19 49.5366 211.376 46.8144 211.376 43.1104C211.376 39.5849 209.502 37.1305 206.512 36.0148C205.084 35.4793 203.388 35.4346 201.782 35.4346H195.132V29.7225H188.662V50.9649L201.782 50.9646ZM195.132 40.4326H200.666C201.559 40.4326 202.407 40.4326 203.165 40.7004C204.236 41.0574 204.861 41.9499 204.861 43.0209C204.861 44.1366 204.236 45.0737 203.21 45.52C202.496 45.8324 201.782 45.8324 200.666 45.8324H195.132V40.4326ZM221.194 42.9317H222.979L230.699 50.9645H239.312L228.557 39.8973L238.911 29.7229H230.789L222.979 37.7109H221.194V29.7229H214.724V50.9653H221.194L221.194 42.9317ZM252.627 29.1421C243.924 29.1421 238.704 34.0509 238.704 40.3877C238.704 46.7244 243.925 51.6333 252.627 51.6333C261.284 51.6333 266.505 46.7244 266.505 40.3877C266.505 34.0509 261.284 29.1421 252.627 29.1421ZM252.627 46.4573C248.298 46.4573 245.531 43.8689 245.531 40.3881C245.531 36.9072 248.298 34.3635 252.627 34.3635C256.911 34.3635 259.722 36.9072 259.722 40.3881C259.722 43.8689 256.911 46.4573 252.627 46.4573ZM288.056 30.6597V28.5176H281.585V30.6597C273.463 30.8382 268.598 34.2744 268.598 40.3437C268.598 46.4129 273.463 49.5813 281.585 49.7597V51.9017H288.056V49.7597C296.222 49.5812 301.087 46.4127 301.087 40.3437C301.087 34.2746 296.223 30.8381 288.056 30.6597ZM281.585 45.2077C277.122 45.0292 275.159 43.1995 275.159 40.3434C275.159 37.4873 277.122 35.4345 281.585 35.2561V45.2077ZM288.056 45.2077V35.2557C292.563 35.4342 294.482 37.4869 294.482 40.343C294.482 43.1991 292.563 45.0292 288.056 45.2077ZM322.614 30.6597V28.5176H316.143V30.6597C308.022 30.8382 303.157 34.2744 303.157 40.3437C303.157 46.4129 308.021 49.5813 316.143 49.7597V51.9017H322.614V49.7597C330.78 49.5812 335.645 46.4127 335.645 40.3437C335.645 34.2746 330.781 30.8381 322.614 30.6597ZM316.143 45.2077C311.681 45.0292 309.717 43.1995 309.717 40.3434C309.717 37.4873 311.681 35.4345 316.143 35.2561V45.2077ZM322.614 45.2077V35.2557C327.121 35.4342 329.04 37.4869 329.04 40.343C329.04 43.1991 327.121 45.0292 322.614 45.2077Z" fill="white"/>
</g>
</svg>
