<svg width="28" height="37" viewBox="0 0 28 37" fill="none" xmlns="http://www.w3.org/2000/svg">
<path d="M25.9777 11.5024C25.6292 7.57737 22.1637 6.29262 17.7342 5.9267L17.811 0.504395L14.3843 0.524396L14.3152 5.81264L11.5894 5.84981L11.6711 0.522741L8.24782 0.541884L8.17509 5.98103L6.00495 6.01747L6.00082 6.00063L1.26929 6.01958L1.22659 9.55854C1.22659 9.55854 3.74964 9.51045 3.71965 9.53924C5.10625 9.54163 5.5334 10.3153 5.65457 10.9748L5.59538 17.1785L5.95738 17.2039L5.58268 17.2173L5.4755 25.897C5.41783 26.3111 5.15032 26.9875 4.17401 26.9808C4.22569 27.0253 1.70689 27.0152 1.70689 27.0152L0.969971 30.9567L5.42281 30.9348L7.86326 30.9427L7.78711 36.4434L11.2104 36.4242L11.2613 30.9869L14.0214 30.9984L13.9445 36.4208L17.3678 36.4016L17.4265 30.9052C23.1865 30.5623 27.2412 29.1453 27.7973 23.9089C28.2478 19.6912 26.2295 17.8404 22.9689 17.0732C24.97 16.1069 26.2286 14.3657 25.9602 11.5067L25.9777 11.5024ZM21.0464 23.2951C21.0083 27.4115 13.7239 26.9645 11.4118 26.9965L11.5027 19.6993C13.823 19.701 21.1041 19.0025 21.0422 23.2783L21.0464 23.2951ZM19.5753 13.0173C19.5396 16.751 13.4573 16.3552 11.5401 16.3652L11.6229 9.75936C13.5567 9.74165 19.6286 9.12931 19.5761 13.0207L19.5753 13.0173Z" fill="white"/>
</svg>
